<svg xmlns="http://www.w3.org/2000/svg" xmlns:xlink="http://www.w3.org/1999/xlink" width="292" height="292" viewBox="0 0 292 292">
    <defs>
        <filter id="prefix__a" width="107.1%" height="107.1%" x="-3.6%" y="-2.9%" filterUnits="objectBoundingBox">
            <feOffset dy="2" in="SourceAlpha" result="shadowOffsetOuter1"/>
            <feGaussianBlur in="shadowOffsetOuter1" result="shadowBlurOuter1" stdDeviation="3"/>
            <feColorMatrix in="shadowBlurOuter1" values="0 0 0 0 0.8 0 0 0 0 0.831372549 0 0 0 0 0.905882353 0 0 0 1 0"/>
        </filter>
        <path id="prefix__b" d="M0 0h140c77.32 0 140 62.68 140 140s-62.68 140-140 140S0 217.32 0 140V0z"/>
    </defs>
    <g fill="none" fill-rule="evenodd">
        <g fill-rule="nonzero" transform="translate(6 4)">
            <use fill="#000" filter="url(#prefix__a)" xlink:href="#prefix__b"/>
            <use fill="#BD8F72" xlink:href="#prefix__b"/>
            <circle cx="140" cy="140" r="120" fill="#FFF"/>
            <path fill="#E9D6CA" d="M260 140c0 24.383-7.272 47.067-19.766 66.002H39.766C27.272 187.067 20 164.382 20 140z"/>
        </g>
        <path fill="#BD8F72" fill-rule="nonzero" d="M31 13.5L25.71 16.281 26.72 10.391 22.44 6.219 28.355 5.359 31 0 33.645 5.359 39.56 6.219 35.28 10.391 36.29 16.281z" transform="translate(6 4) translate(109 222)"/>
        <text fill="#222" font-family="NotoSansCJKkr-Bold, Noto Sans CJK KR" font-size="20" font-weight="bold" letter-spacing="-.6" transform="translate(6 4)">
            <tspan x="50.76" y="196">Customer Empathy</tspan>
        </text>
        <text fill="#222" font-family="NotoSansCJKkr-Bold, Noto Sans CJK KR" font-size="20" font-weight="bold" letter-spacing="-.6" transform="translate(6 4)">
            <tspan x="75.63" y="167">AI/DT Literacy</tspan>
        </text>
        <g stroke="#222" stroke-linejoin="round" stroke-width="2">
            <path d="M17.351 51.058L17.607 59M42.874 57.865V41.612c6.415-4.298 10.52-11.704 10.096-20.027C52.385 10.087 42.886.663 31.244.035 17.926-.683 6.899 9.767 6.899 22.762l-.025 1.492C6.898 24.926 0 35.974 0 35.974l6.167 2.204v6.533c0 3.566 2.927 6.456 6.538 6.456 0 0 24.921-.25 24.921-6.503v-4.863s0-1.39-1.407-2.78l-6.332-6.252V25.21" transform="translate(6 4) translate(113 54)"/>
            <path d="M37.213 18.154c0 3.76-3.03 6.808-6.766 6.808-3.737 0-6.766-3.048-6.766-6.808s3.029-6.808 6.766-6.808 6.766 3.048 6.766 6.808zM29.883 11.346L29.883 0" transform="translate(6 4) translate(113 54)"/>
        </g>
        <g fill-rule="nonzero">
            <path d="M0.889 0H72V21.769H0.889z" transform="translate(6 4) translate(6 6)"/>
            <path fill="#E1002A" d="M32.458 11.538h-5.052c-.915 0-1.502-.623-1.502-1.392 0-.77.587-1.393 1.502-1.393h6.944c.482.013.932-.237 1.177-.652.245-.415.245-.93 0-1.346-.245-.415-.695-.665-1.177-.652h-7.411c-2.379 0-4.121 1.81-4.121 4.043s1.746 4.043 4.12 4.043h4.927c.915 0 1.503.62 1.505 1.39.002.768-.59 1.393-1.505 1.396h-7.33c-.718.02-1.29.607-1.29 1.325s.572 1.305 1.29 1.325h7.96c2.37-.017 4.102-1.821 4.096-4.05-.005-2.23-1.753-4.045-4.133-4.037zm16.494-3.752c-.9 0-1.629.73-1.629 1.63v7.738c0 .876-.71 1.587-1.587 1.587H42.75c-.877 0-1.588-.71-1.588-1.587V9.411c0-.9-.73-1.629-1.63-1.629-.9 0-1.629.73-1.629 1.63v7.926c0 1.053.419 2.062 1.163 2.806.744.744 1.754 1.162 2.806 1.162h4.736c1.053 0 2.062-.418 2.806-1.162.745-.744 1.163-1.753 1.163-2.806V9.411c-.001-.896-.727-1.624-1.624-1.627v.002zm11.965-4.253h-4.738c-2.19 0-3.967 1.777-3.967 3.968v7.926c0 .9.73 1.63 1.63 1.63.899 0 1.628-.73 1.628-1.63v-7.74c0-.42.167-.825.465-1.122.298-.298.701-.465 1.122-.465h2.99c.42 0 .824.167 1.122.465.298.297.465.701.465 1.122v7.738c0 .9.729 1.63 1.629 1.63s1.629-.73 1.629-1.63V7.5c0-1.053-.419-2.064-1.164-2.808-.746-.745-1.758-1.162-2.811-1.16v.002zm7.227 4.253c-.9 0-1.63.73-1.63 1.63v10.268c0 .9.73 1.63 1.63 1.63.9 0 1.629-.73 1.629-1.63V9.411c-.001-.899-.73-1.627-1.63-1.627v.002z" transform="translate(6 4) translate(6 6)"/>
            <path fill="#61C1BE" d="M11.264 8.543c-.18-.313-.514-.505-.875-.505s-.695.192-.875.505L6.819 13.21 4.124 8.542c-.18-.313-.514-.505-.875-.505s-.695.192-.875.505L.136 12.426c-.181.313-.181.699 0 1.011.18.313.514.506.875.506h11.625c.361 0 .695-.193.875-.506.181-.312.181-.698 0-1.01l-2.247-3.884zm8.111-.506h-4.48c-.361 0-.695.192-.876.505-.18.313-.18.699 0 1.011l2.535 4.39c.119.21.342.34.583.34.242 0 .465-.13.584-.34l2.535-4.39c.18-.313.18-.7-.002-1.013-.182-.313-.517-.505-.879-.503zm-2.242 6.89c-.52 0-.988.314-1.187.794-.199.48-.089 1.032.279 1.4.367.366.92.476 1.399.277.48-.198.793-.667.793-1.186 0-.709-.575-1.284-1.284-1.284zm0 1.975c-.382 0-.69-.309-.69-.69 0-.381.308-.69.69-.69.38 0 .69.309.69.69 0 .183-.072.36-.202.49s-.305.203-.488.203v-.003zM68.144 6.555c-1.18 0-2.243-.709-2.695-1.798-.452-1.089-.203-2.343.63-3.177.834-.834 2.088-1.084 3.177-.632 1.09.45 1.8 1.514 1.8 2.693-.003 1.608-1.305 2.91-2.912 2.914zm0-4.709c-.99 0-1.794.804-1.793 1.795 0 .99.803 1.793 1.794 1.793.99 0 1.794-.803 1.794-1.794-.002-.99-.805-1.792-1.795-1.793v-.001z" transform="translate(6 4) translate(6 6)"/>
        </g>
    </g>
</svg>
