<svg xmlns="http://www.w3.org/2000/svg" width="38" height="38" viewBox="0 0 38 38">
    <g fill="none" fill-rule="evenodd">
        <circle cx="19" cy="19" r="18.5" stroke="#5B6477"/>
        <path fill="#5B6477" fill-rule="nonzero" d="M26.333 13.06h-2.666v-1.7c0-.75-.598-1.36-1.334-1.36h-6.666c-.736 0-1.334.61-1.334 1.36v1.7h-2.666a.673.673 0 0 0-.667.68v.68c0 .094.075.17.167.17h1.258l.515 11.114c.033.724.62 1.296 1.33 1.296h9.46c.712 0 1.297-.57 1.33-1.296l.515-11.114h1.258a.169.169 0 0 0 .167-.17v-.68a.673.673 0 0 0-.667-.68zM22 13h-6v-1h6v1z"/>
    </g>
</svg>
