<svg xmlns="http://www.w3.org/2000/svg" width="20" height="20" viewBox="0 0 20 20">
    <g fill="#FEFEFE" fill-rule="evenodd">
        <path d="M3 7.14h1.199l.1.75h.04c.47-.49.989-.89 1.719-.89.799 0 1.269.36 1.539.98C8.106 7.44 8.646 7 9.376 7c1.189 0 1.739.84 1.739 2.249v3.488H9.646V9.429c0-.86-.25-1.17-.78-1.17-.319 0-.679.21-1.079.63v3.848h-1.47V9.429c0-.86-.25-1.17-.779-1.17-.319 0-.68.21-1.079.63v3.848H3V7.14zM12.36 14.875l.27-1.129c.1.03.258.07.388.07.57 0 .89-.36 1.05-.85l.1-.33L11.99 7.14h1.48l.89 2.6c.17.5.31 1.038.47 1.578h.05c.128-.52.268-1.059.398-1.579l.77-2.599h1.41l-1.99 5.767c-.49 1.32-1.089 2.08-2.338 2.08-.33 0-.55-.04-.77-.11"/>
    </g>
</svg>
