<?xml version="1.0" encoding="UTF-8"?>
<svg width="60px" height="60px" viewBox="0 0 60 60" version="1.1" xmlns="http://www.w3.org/2000/svg" xmlns:xlink="http://www.w3.org/1999/xlink">
    <title>학습완료 아이콘</title>
    <defs>
        <filter id="filter-1">
            <feColorMatrix in="SourceGraphic" type="matrix" values="0 0 0 0 1.000000 0 0 0 0 0.400000 0 0 0 0 0.301961 0 0 0 1.000000 0"></feColorMatrix>
        </filter>
    </defs>
    <g id="14_Certification" stroke="none" stroke-width="1" fill="none" fill-rule="evenodd">
        <g id="학습완료-아이콘">
            <rect id="Rectangle" fill-rule="nonzero" x="0" y="0" width="60" height="60"></rect>
            <g filter="url(#filter-1)" id="Group-8">
                <g transform="translate(7.857143, 30.285714)"></g>
            </g>
            <path d="M15.54,26.5714286 C16.8474922,21.2970597 20.9231564,17.1530363 26.1750497,15.7580021 C31.4269429,14.362968 37.0218001,15.9382592 40.7742857,19.8685714 L42.4885714,19.3971429 C38.3632675,14.5774283 31.8409819,12.54808 25.7094122,14.1764641 C19.5778426,15.8048481 14.9218387,20.8028569 13.7314286,27.0342857 L15.54,26.5714286 Z M40.8085714,18.7285714 C40.8496507,18.6888389 40.8995992,18.6594574 40.9542857,18.6428571 C41.0676341,18.618716 41.1856732,18.6506184 41.2714286,18.7285714 C41.3955143,18.8579078 41.3955143,19.0620922 41.2714286,19.1914286 C41.2303493,19.2311611 41.1804008,19.2605426 41.1257143,19.2771429 C41.0122842,19.3060711 40.891986,19.2735581 40.8085714,19.1914286 C40.6962694,19.0673521 40.6962694,18.8783622 40.8085714,18.7542857 L40.8085714,18.7285714 Z M39.7714286,17.8542857 C39.8144466,17.8047639 39.871084,17.7689929 39.9342857,17.7514286 C40.0395098,17.7269597 40.150141,17.7522468 40.2342857,17.82 C40.295549,17.8796948 40.3301014,17.9616054 40.3301014,18.0471429 C40.3301014,18.1326803 40.295549,18.2145909 40.2342857,18.2742857 C40.1936597,18.3282529 40.1364474,18.3673982 40.0714286,18.3857143 C39.9774839,18.4085075 39.878272,18.3895159 39.7993868,18.3336388 C39.7205015,18.2777618 39.6696681,18.1904712 39.66,18.0942857 C39.6644564,18.0028237 39.7044363,17.9167132 39.7714286,17.8542857 L39.7714286,17.8542857 Z M38.6571429,17.0485714 C38.7048308,16.9886303 38.7712174,16.9463843 38.8457143,16.9285714 C38.936256,16.9027012 39.0336119,16.9184037 39.1114286,16.9714286 C39.1843024,17.0213116 39.2337973,17.0986475 39.2485714,17.1857143 C39.2664367,17.2693877 39.2477252,17.3567082 39.1971429,17.4257143 C39.1543794,17.492426 39.0862942,17.5388477 39.0085714,17.5542857 C38.9206671,17.5800637 38.8259102,17.5665725 38.7486934,17.5172852 C38.6714766,17.4679979 38.6193434,17.3877294 38.6057143,17.2971429 C38.5928844,17.21081 38.6111088,17.1227255 38.6571429,17.0485714 L38.6571429,17.0485714 Z M37.4828571,16.3457143 C37.5298331,16.2605994 37.6172279,16.2055731 37.7142857,16.2 C37.793691,16.1661762 37.8834519,16.1661762 37.9628571,16.2 C38.0398305,16.2413342 38.0963423,16.3125922 38.119056,16.3969574 C38.1417698,16.4813227 38.1286732,16.5713214 38.0828571,16.6457143 C38.0403193,16.7213512 37.9693575,16.7768866 37.8857143,16.8 C37.806309,16.8338238 37.7165481,16.8338238 37.6371429,16.8 C37.5615059,16.7574622 37.5059706,16.6865003 37.4828571,16.6028571 C37.451201,16.5200657 37.451201,16.4285058 37.4828571,16.3457143 L37.4828571,16.3457143 Z M36.2485714,15.7457143 C36.2921721,15.6605355 36.3701851,15.5981252 36.4628571,15.5742857 C36.5342092,15.5447606 36.6143623,15.5447606 36.6857143,15.5742857 C36.7623111,15.6095174 36.821156,15.6745566 36.8485714,15.7542857 C36.8835937,15.8404136 36.8790575,15.9375717 36.8361627,16.0200617 C36.7932678,16.1025518 36.7163356,16.1620639 36.6257143,16.1828571 C36.5543623,16.2123822 36.4742092,16.2123822 36.4028571,16.1828571 C36.3238014,16.1465814 36.2643818,16.0777798 36.24,15.9942857 C36.2088923,15.9137178 36.2119878,15.823948 36.2485714,15.7457143 L36.2485714,15.7457143 Z M34.9628571,15.2571429 C34.9918789,15.1749079 35.0526651,15.1077451 35.131607,15.0706907 C35.2105489,15.0336363 35.3010529,15.0297854 35.3828571,15.06 C35.4640987,15.0929026 35.5309551,15.1536811 35.5714286,15.2314286 C35.6017102,15.311519 35.6017102,15.3999096 35.5714286,15.48 C35.5368699,15.5819497 35.4529557,15.659409 35.3485714,15.6857143 C35.284625,15.7072711 35.215375,15.7072711 35.1514286,15.6857143 C35.0688455,15.6583081 35.0028282,15.5954345 34.9714286,15.5142857 C34.9312693,15.4339075 34.9281396,15.340017 34.9628571,15.2571429 L34.9628571,15.2571429 Z M33.6428571,14.88 C33.677178,14.7694507 33.7637364,14.6828923 33.8742857,14.6485714 C33.9311067,14.6399946 33.9888933,14.6399946 34.0457143,14.6485714 C34.2159509,14.702156 34.3166094,14.8773763 34.2771429,15.0514286 C34.242822,15.1619778 34.1562636,15.2485363 34.0457143,15.2828571 C33.9898637,15.300044 33.9301363,15.300044 33.8742857,15.2828571 C33.7011828,15.2328817 33.598829,15.0547102 33.6428571,14.88 L33.6428571,14.88 Z M32.5714286,14.3657143 C32.6162384,14.3528539 32.6637616,14.3528539 32.7085714,14.3657143 C32.7938833,14.3803648 32.8698547,14.4283713 32.9197096,14.4991332 C32.9695645,14.569895 32.989202,14.6575913 32.9742857,14.7428571 C32.958196,14.8713991 32.8614141,14.9750941 32.7342857,15 C32.6894759,15.0128603 32.6419527,15.0128603 32.5971429,15 C32.5123744,14.9848442 32.436121,14.9390921 32.3828571,14.8714286 C32.3368231,14.7972745 32.3185987,14.70919 32.3314286,14.6228571 C32.3596915,14.5003935 32.4512027,14.4023458 32.5714286,14.3657143 L32.5714286,14.3657143 Z M31.2085714,14.1942857 L31.32,14.1942857 C31.4064884,14.2008426 31.4867894,14.2416252 31.5431042,14.307594 C31.599419,14.3735627 31.6270958,14.4592684 31.62,14.5457143 C31.605503,14.6821215 31.5110961,14.7967584 31.38,14.8371429 L31.26,14.8371429 C31.1747205,14.8295528 31.0967471,14.7858877 31.0457143,14.7171429 C30.9863464,14.6556226 30.9579893,14.5705512 30.9685714,14.4857143 C30.9708341,14.3555586 31.0524025,14.2400033 31.1742857,14.1942857 L31.2085714,14.1942857 Z M29.8371429,14.1428571 L29.9228571,14.1428571 C30.0092419,14.1428571 30.0920886,14.1771734 30.1531719,14.2382566 C30.2142552,14.2993399 30.2485714,14.3821866 30.2485714,14.4685714 C30.2443235,14.6146264 30.1479773,14.741941 30.0085714,14.7857143 L29.9228571,14.7857143 C29.7429701,14.7857143 29.5971429,14.639887 29.5971429,14.46 C29.5910804,14.3212374 29.6736798,14.1938966 29.8028571,14.1428571 L29.8371429,14.1428571 Z M28.4657143,14.2114286 L28.5257143,14.2114286 C28.610057,14.2052584 28.6933708,14.2330297 28.7571429,14.2885714 C28.8241028,14.3448329 28.8670309,14.4245566 28.8771429,14.5114286 C28.887428,14.6678503 28.7876367,14.8104093 28.6371429,14.8542857 L28.5428571,14.8542857 C28.4556346,14.8628374 28.3687616,14.8349139 28.3028571,14.7771429 C28.2089256,14.6987161 28.1668766,14.5742591 28.1939959,14.4549341 C28.2211152,14.3356092 28.3128265,14.2415522 28.4314286,14.2114286 L28.4657143,14.2114286 Z M27.1028571,14.4 C27.1927323,14.3797025 27.2869947,14.3964334 27.3643948,14.4464209 C27.4417949,14.4964085 27.495818,14.5754453 27.5142857,14.6657143 C27.537753,14.8313112 27.4352238,14.9887668 27.2742857,15.0342857 L27.2742857,15.0342857 C27.1893796,15.0497369 27.1019318,15.027875 27.0342857,14.9742857 C26.9603085,14.9294641 26.9100639,14.8540971 26.8971429,14.7685714 C26.8612063,14.6207564 26.9323714,14.4677515 27.0685714,14.4 L27.1028571,14.4 Z M25.7142857,14.7085714 C25.8275899,14.6779487 25.9486244,14.7100991 26.0317966,14.7929121 C26.1149688,14.8757251 26.1476429,14.9966192 26.1175109,15.110055 C26.0873789,15.2234907 25.9990185,15.3122344 25.8857143,15.3428571 C25.7105611,15.3901958 25.5301958,15.2865817 25.4828572,15.1114286 C25.4355185,14.9362754 25.5391326,14.7559101 25.7142857,14.7085714 L25.7142857,14.7085714 Z M24.3857143,15.1371429 L24.3857143,15.1371429 C24.510586,15.0883976 24.65257,15.1211339 24.7434925,15.2196333 C24.8344151,15.3181327 24.8557062,15.4622778 24.7971429,15.5828571 C24.7619206,15.6645 24.6931918,15.7269808 24.6085714,15.7542857 L24.6085714,15.7542857 C24.4434957,15.8000698 24.2711674,15.7101593 24.2142857,15.5485714 C24.1606316,15.3832606 24.2426036,15.2044127 24.4028571,15.1371429 L24.3857143,15.1371429 Z M22.9285714,15.8742857 C22.9636048,15.7792972 23.0441853,15.7083863 23.1428571,15.6857143 L23.2028571,15.6857143 C23.36481,15.6443971 23.5317519,15.7323699 23.5892258,15.8893177 C23.6466996,16.0462655 23.5760497,16.2212438 23.4257143,16.2942857 L23.3657143,16.2942857 C23.215175,16.3347536 23.0570667,16.2628862 22.9885714,16.1228571 C22.9405328,16.0494891 22.9250182,15.9595046 22.9457143,15.8742857 L22.9285714,15.8742857 Z M21.7028571,16.5428571 C21.7259706,16.459214 21.7815059,16.3882521 21.8571429,16.3457143 L21.9342857,16.3457143 C22.0759582,16.3053506 22.2270866,16.365099 22.3028571,16.4914286 C22.3939726,16.650173 22.3404816,16.8526748 22.1828571,16.9457143 L22.1057143,16.9457143 C21.9640418,16.986078 21.8129134,16.9263295 21.7371429,16.8 C21.699893,16.7193379 21.6937871,16.6277501 21.72,16.5428571 L21.7028571,16.5428571 Z M20.7,17.1428571 L20.8028571,17.1 C20.9572701,17.0538501 21.1222179,17.1275638 21.1908401,17.2733862 C21.2594624,17.4192085 21.211125,17.5932917 21.0771429,17.6828571 L20.9742857,17.7257143 C20.8417559,17.76114 20.7012358,17.7097302 20.6228571,17.5971429 C20.5704546,17.5274851 20.5490329,17.4393296 20.5636261,17.353392 C20.5782192,17.2674544 20.6275406,17.1913119 20.7,17.1428571 L20.7,17.1428571 Z M19.5942857,18 C19.6310541,17.9672065 19.6751403,17.9436938 19.7228571,17.9314286 C19.8447641,17.9000376 19.9739694,17.9397931 20.0571429,18.0342857 C20.1812286,18.1636221 20.1812286,18.3678064 20.0571429,18.4971429 C20.0203745,18.5299364 19.9762882,18.5534491 19.9285714,18.5657143 C19.8048623,18.5995866 19.6729296,18.5556091 19.5942857,18.4542857 C19.5424213,18.3884717 19.5151398,18.306627 19.5171429,18.2228571 C19.5123361,18.1412876 19.5400789,18.0611418 19.5942857,18 L19.5942857,18 Z M18.5657143,18.9514286 C18.6067935,18.911696 18.6567421,18.8823145 18.7114286,18.8657143 C18.8248587,18.8367861 18.9451569,18.8692991 19.0285714,18.9514286 C19.090339,19.0126001 19.1250901,19.0959251 19.1250901,19.1828571 C19.1250901,19.2697892 19.090339,19.3531142 19.0285714,19.4142857 C18.98865,19.455515 18.9382893,19.485139 18.8828571,19.5 C18.7695087,19.5241412 18.6514697,19.4922387 18.5657143,19.4142857 C18.4416285,19.2849493 18.4416285,19.080765 18.5657143,18.9514286 L18.5657143,18.9514286 Z M17.6314286,19.9885714 C17.6729325,19.9373166 17.7301698,19.9011667 17.7942857,19.8857143 C17.8955206,19.8615754 18.0022479,19.8835487 18.0857143,19.9457143 C18.1497059,20.0056725 18.1860152,20.0894507 18.1860152,20.1771429 C18.1860152,20.264835 18.1497059,20.3486132 18.0857143,20.4085714 C18.0426962,20.4580933 17.9860589,20.4938642 17.9228571,20.5114286 C17.8191833,20.5441733 17.7059619,20.521529 17.6228571,20.4514286 C17.550822,20.3882904 17.5102313,20.2966444 17.5118826,20.2008699 C17.5135339,20.1050954 17.5572598,20.0149032 17.6314286,19.9542857 L17.6314286,19.9885714 Z M16.7742857,21.1114286 C16.8170491,21.0447169 16.8851344,20.9982951 16.9628571,20.9828571 C17.0474019,20.9450869 17.1440267,20.9450869 17.2285714,20.9828571 C17.3004374,21.0315264 17.3499058,21.1068663 17.3659984,21.1921566 C17.3820909,21.277447 17.3634763,21.3656327 17.3142857,21.4371429 C17.269562,21.5019163 17.2023488,21.5477435 17.1257143,21.5657143 C17.0351726,21.5915845 16.9378167,21.575882 16.86,21.5228571 C16.7871262,21.4729741 16.7376313,21.3956383 16.7228571,21.3085714 C16.7099265,21.2264474 16.7316544,21.1426398 16.7828571,21.0771429 L16.7742857,21.1114286 Z M16.0371429,22.2857143 C16.0831015,22.2095452 16.1568664,22.1542215 16.2428571,22.1314286 C16.3200991,22.1017206 16.4056152,22.1017206 16.4828571,22.1314286 C16.5605566,22.1715203 16.6168995,22.2435141 16.6371429,22.3285714 C16.6709667,22.4079767 16.6709667,22.4977376 16.6371429,22.5771429 C16.594605,22.6527798 16.5236432,22.7083151 16.44,22.7314286 C16.3597709,22.7609413 16.2716577,22.7609413 16.1914286,22.7314286 C16.0260862,22.6506487 15.9571247,22.4514267 16.0371429,22.2857143 L16.0371429,22.2857143 Z M15.4285714,23.5028571 C15.4721721,23.4176784 15.5501851,23.355268 15.6428571,23.3314286 C15.7142092,23.3019035 15.7943623,23.3019035 15.8657143,23.3314286 C15.9423111,23.3666603 16.001156,23.4316994 16.0285714,23.5114286 C16.0635937,23.5975565 16.0590575,23.6947145 16.0161627,23.7772046 C15.9732678,23.8596946 15.8963356,23.9192067 15.8057143,23.94 C15.7343623,23.9695251 15.6542092,23.9695251 15.5828571,23.94 C15.5040348,23.9029209 15.4433491,23.8358141 15.4143577,23.7536721 C15.3853664,23.67153 15.3904856,23.5811979 15.4285714,23.5028571 Z M14.9057143,24.8057143 C14.9372669,24.7050119 15.0180941,24.6274178 15.12,24.6 C15.1839464,24.5784432 15.2531964,24.5784432 15.3171429,24.6 C15.3993779,24.6290218 15.4665406,24.6898079 15.503595,24.7687499 C15.5406494,24.8476918 15.5445003,24.9381958 15.5142857,25.02 C15.4771704,25.1202636 15.3943364,25.1967258 15.2914286,25.2257143 C15.2268237,25.2427915 15.1588905,25.2427915 15.0942857,25.2257143 C15.0089128,25.200264 14.9376899,25.1409561 14.897203,25.0616019 C14.8567162,24.9822478 14.8504993,24.8897736 14.88,24.8057143 L14.9057143,24.8057143 Z M14.7171429,25.9114286 C14.7729934,25.8942418 14.8327209,25.8942418 14.8885714,25.9114286 C15.0358806,25.9459079 15.140055,26.0772809 15.140055,26.2285714 C15.140055,26.3798619 15.0358806,26.511235 14.8885714,26.5457143 C14.8317504,26.5542911 14.7739639,26.5542911 14.7171429,26.5457143 C14.5469062,26.4921297 14.4462478,26.3169095 14.4857143,26.1428571 C14.5147739,26.0380347 14.590736,25.9525773 14.6914286,25.9114286 L14.7171429,25.9114286 Z" id="Shape" fill="#FF664D" fill-rule="nonzero"></path>
            <path d="M44.46,33.78 C43.1525078,39.0543689 39.0768436,43.1983923 33.8249503,44.5934265 C28.5730571,45.9884606 22.9781999,44.4131694 19.2257143,40.4828571 L17.4685714,40.9542857 C21.5938754,45.7740003 28.116161,47.8033486 34.2477306,46.1749645 C40.3793003,44.5465804 45.0353042,39.5485716 46.2257143,33.3171429 L44.46,33.78 Z M19.1914286,41.6228571 C19.1480106,41.6594022 19.098751,41.6883784 19.0457143,41.7085714 C18.9323659,41.7327126 18.8143268,41.7008102 18.7285714,41.6228571 C18.6691474,41.5603229 18.6354805,41.4776859 18.6342857,41.3914286 C18.6346138,41.3049975 18.668406,41.2220529 18.7285714,41.16 C18.7696507,41.1202674 18.8195992,41.0908859 18.8742857,41.0742857 C18.9877137,41.0416104 19.1099035,41.0746347 19.1914286,41.16 C19.2531961,41.2211716 19.2879473,41.3044965 19.2879473,41.3914286 C19.2879473,41.4783607 19.2531961,41.5616856 19.1914286,41.6228571 Z M20.2285714,42.48 C20.1855534,42.5295218 20.128916,42.5652928 20.0657143,42.5828571 C19.9604902,42.6073261 19.849859,42.5820389 19.7657143,42.5142857 C19.704451,42.4545909 19.6698986,42.3726803 19.6698986,42.2871429 C19.6698986,42.2016054 19.704451,42.1196948 19.7657143,42.06 C19.8063403,42.0060328 19.8635526,41.9668875 19.9285714,41.9485714 C20.0225161,41.9257783 20.121728,41.9447698 20.2006132,42.0006469 C20.2794985,42.0565239 20.3303319,42.1438145 20.34,42.24 C20.3476712,42.3463046 20.3066849,42.4503465 20.2285714,42.5228571 L20.2285714,42.48 Z M21.3428571,43.2771429 C21.2981335,43.3419163 21.2309202,43.3877435 21.1542857,43.4057143 C21.0699839,43.4446071 20.9728733,43.4446071 20.8885714,43.4057143 C20.8156976,43.3558312 20.7662027,43.2784954 20.7514286,43.1914286 C20.7335633,43.1077551 20.7522748,43.0204347 20.8028571,42.9514286 C20.8456206,42.8847169 20.9137058,42.8382951 20.9914286,42.8228571 C21.0793329,42.7970792 21.1740898,42.8105704 21.2513066,42.8598577 C21.3285234,42.909145 21.3806566,42.9894135 21.3942857,43.08 C21.4081954,43.1636271 21.3898122,43.2494154 21.3428571,43.32 L21.3428571,43.2771429 Z M22.5171429,43.9885714 C22.4217778,44.1375681 22.2287095,44.189548 22.0714286,44.1085714 C21.9969717,44.0607455 21.9422078,43.987727 21.9171429,43.9028571 C21.8874349,43.8256152 21.8874349,43.7400991 21.9171429,43.6628571 C21.9572346,43.5851577 22.0292284,43.5288148 22.1142857,43.5085714 C22.193691,43.4747476 22.2834519,43.4747476 22.3628571,43.5085714 C22.4384941,43.5511093 22.4940294,43.6220711 22.5171429,43.7057143 C22.569067,43.8080776 22.569067,43.9290653 22.5171429,44.0314286 L22.5171429,43.9885714 Z M23.7514286,44.5885714 C23.7078279,44.6737502 23.6298149,44.7361605 23.5371429,44.76 C23.4657908,44.7895251 23.3856377,44.7895251 23.3142857,44.76 C23.2319576,44.7257439 23.1691352,44.6566393 23.1428571,44.5714286 C23.1090333,44.4920233 23.1090333,44.4022624 23.1428571,44.3228571 C23.1864578,44.2376784 23.2644708,44.175268 23.3571429,44.1514286 C23.4284949,44.1219035 23.508648,44.1219035 23.58,44.1514286 C23.6565968,44.1866603 23.7154418,44.2516994 23.7428571,44.3314286 C23.7929666,44.424454 23.7961449,44.5356939 23.7514286,44.6314286 L23.7514286,44.5885714 Z M25.0371429,45.0771429 C24.9967277,45.1733463 24.9147009,45.2459084 24.8142857,45.2742857 C24.7511811,45.3004765 24.6802475,45.3004765 24.6171429,45.2742857 C24.5351858,45.2471376 24.4673602,45.1885609 24.4285714,45.1114286 C24.3982898,45.0313382 24.3982898,44.9429475 24.4285714,44.8628571 C24.4631301,44.7609074 24.5470443,44.6834482 24.6514286,44.6571429 C24.715375,44.6355861 24.784625,44.6355861 24.8485714,44.6571429 C24.9311545,44.684549 24.9971718,44.7474226 25.0285714,44.8285714 C25.080035,44.918154 25.0832525,45.0275476 25.0371429,45.12 L25.0371429,45.0771429 Z M26.3571429,45.4542857 C26.322822,45.564835 26.2362636,45.6513935 26.1257143,45.6857143 C26.069329,45.6988735 26.010671,45.6988735 25.9542857,45.6857143 C25.7823673,45.6395991 25.6793068,45.4640146 25.7228571,45.2914286 C25.7543779,45.1792145 25.8420716,45.0915207 25.9542857,45.06 C26.0101363,45.0428132 26.0698637,45.0428132 26.1257143,45.06 C26.2169245,45.0833958 26.2940374,45.1441749 26.3380951,45.227395 C26.3821528,45.3106151 26.3890688,45.4085573 26.3571429,45.4971429 L26.3571429,45.4542857 Z M27.4628571,45.9685714 C27.4175454,45.9771513 27.371026,45.9771513 27.3257143,45.9685714 C27.2404024,45.9539209 27.1644311,45.9059144 27.1145761,45.8351525 C27.0647212,45.7643907 27.0450837,45.6766944 27.06,45.5914286 C27.0775692,45.4618484 27.1728703,45.3563365 27.3,45.3257143 L27.4285714,45.3257143 C27.5145862,45.3374375 27.5920356,45.3839071 27.6428571,45.4542857 C27.6888912,45.5284398 27.7071156,45.6165243 27.6942857,45.7028571 C27.6804019,45.851778 27.573782,45.9755947 27.4285714,46.0114286 L27.4628571,45.9685714 Z M28.8257143,46.14 L28.7142857,46.14 C28.6277973,46.1334431 28.5474963,46.0926605 28.4911815,46.0266918 C28.4348667,45.960723 28.4071899,45.8750173 28.4142857,45.7885714 C28.4287827,45.6521642 28.5231896,45.5375273 28.6542857,45.4971429 L28.7742857,45.4971429 C28.8573549,45.5054514 28.9340625,45.5453394 28.9885714,45.6085714 C29.0463425,45.6744759 29.0742659,45.7613489 29.0657143,45.8485714 C29.0786801,46.0038232 28.9769619,46.1455022 28.8257143,46.1828571 L28.8257143,46.14 Z M30.1971429,46.1914286 L30.1114286,46.1914286 C29.9435224,46.1978872 29.7982595,46.0755589 29.776052,45.9090026 C29.7538445,45.7424463 29.8619817,45.5863313 30.0257143,45.5485714 L30.1114286,45.5485714 C30.2913156,45.5485714 30.4371429,45.6943987 30.4371429,45.8742857 C30.4599126,46.0377618 30.3568014,46.1924285 30.1971429,46.2342857 L30.1971429,46.1914286 Z M31.5685714,46.1142857 L31.5085714,46.1142857 C31.4248016,46.1162888 31.3429569,46.0890072 31.2771429,46.0371429 C31.2101829,45.9808814 31.1672548,45.9011577 31.1571429,45.8142857 C31.1468577,45.657864 31.246649,45.515305 31.3971429,45.4714286 L31.4571429,45.4714286 C31.5429169,45.463319 31.6286001,45.4877999 31.6971429,45.54 C31.7590302,45.599098 31.7984255,45.6778885 31.8085714,45.7628571 C31.834489,45.84719 31.8230688,45.9385834 31.7771962,46.0139455 C31.7313236,46.0893077 31.6553865,46.1414299 31.5685714,46.1571429 L31.5685714,46.1142857 Z M32.9314286,45.9257143 L32.9314286,45.9257143 C32.8461628,45.9406306 32.7584664,45.9209931 32.6877046,45.8711382 C32.6169428,45.8212832 32.5689362,45.7453119 32.5542857,45.66 C32.5308184,45.4944031 32.6333476,45.3369475 32.7942857,45.2914286 C32.8849496,45.2678517 32.9813463,45.2833996 33.06,45.3342857 C33.1328738,45.3841688 33.1823687,45.4615046 33.1971429,45.5485714 C33.2328092,45.6399511 33.2229031,45.742845 33.1704582,45.8257418 C33.1180133,45.9086385 33.0292784,45.9616612 32.9314286,45.9685714 L32.9314286,45.9257143 Z M34.2857143,45.6685714 C34.111004,45.7125996 33.9328325,45.6102457 33.8828571,45.4371429 C33.8376133,45.2637966 33.9408573,45.0864531 34.1139396,45.0402097 C34.2870218,44.9939662 34.4649582,45.096185 34.5121998,45.2689975 C34.5594414,45.44181 34.4582513,45.6203333 34.2857143,45.6685714 Z M35.6142857,45.2314286 L35.6142857,45.2314286 C35.4520085,45.2739574 35.2833433,45.1896248 35.22,45.0342857 C35.1897184,44.9541953 35.1897184,44.8658047 35.22,44.7857143 C35.2552222,44.7040714 35.3239511,44.6415907 35.4085714,44.6142857 L35.4085714,44.6142857 C35.5788086,44.5563315 35.7643888,44.6434406 35.8285714,44.8114286 C35.8575591,44.8978245 35.8490275,44.9924131 35.8050481,45.0722276 C35.7610686,45.1520422 35.685664,45.2097824 35.5971429,45.2314286 L35.6142857,45.2314286 Z M37.0714286,44.5028571 C37.0470468,44.5863512 36.9876272,44.6551529 36.9085714,44.6914286 L36.8485714,44.6914286 C36.6866185,44.7327458 36.5196766,44.6447729 36.4622028,44.4878251 C36.4047289,44.3308773 36.4753789,44.155899 36.6257143,44.0828571 L36.6857143,44.0828571 C36.8380618,44.0472014 36.9947597,44.121989 37.0628571,44.2628571 C37.0915711,44.3408877 37.088493,44.4270738 37.0542857,44.5028571 L37.0714286,44.5028571 Z M38.2971429,43.8342857 C38.2740294,43.9179289 38.2184941,43.9888907 38.1428571,44.0314286 L38.0657143,44.0314286 C37.9218327,44.0735875 37.7680851,44.009228 37.6971429,43.8771429 C37.653767,43.8021666 37.6420423,43.7130008 37.6645611,43.6293598 C37.6870798,43.5457189 37.741987,43.4744925 37.8171429,43.4314286 L37.8942857,43.4314286 C38.0361027,43.3878014 38.1892129,43.4483333 38.2628571,43.5771429 C38.300107,43.657805 38.3062129,43.7493927 38.28,43.8342857 L38.2971429,43.8342857 Z M39.3171429,43.2771429 L39.2142857,43.2771429 C39.0598728,43.3232927 38.894925,43.249579 38.8263027,43.1037567 C38.7576804,42.9579344 38.8060179,42.7838512 38.94,42.6942857 L39.0428571,42.6942857 C39.1756502,42.6498788 39.3215018,42.7032391 39.3942857,42.8228571 C39.4451044,42.8946695 39.4638102,42.9843644 39.4459323,43.0705035 C39.4280544,43.1566425 39.3751992,43.2314851 39.3,43.2771429 L39.3171429,43.2771429 Z M40.4228571,42.42 C40.3860888,42.4527935 40.3420025,42.4763062 40.2942857,42.4885714 C40.1463852,42.5279544 39.9910153,42.4590489 39.9209231,42.3229877 C39.8508309,42.1869264 39.8849267,42.0204174 40.0028571,41.9228571 C40.0396255,41.8900636 40.0837118,41.8665509 40.1314286,41.8542857 C40.2551377,41.8204134 40.3870704,41.8643909 40.4657143,41.9657143 C40.5175787,42.0315283 40.5448602,42.113373 40.5428571,42.1971429 C40.528083,42.2842097 40.4785881,42.3615455 40.4057143,42.4114286 L40.4228571,42.42 Z M41.4514286,41.4685714 C41.4103493,41.508304 41.3604008,41.5376855 41.3057143,41.5542857 C41.1922842,41.5832139 41.071986,41.5507009 40.9885714,41.4685714 C40.9268039,41.4073999 40.8920527,41.3240749 40.8920527,41.2371429 C40.8920527,41.1502108 40.9268039,41.0668858 40.9885714,41.0057143 C41.0284928,40.964485 41.0788536,40.934861 41.1342857,40.92 C41.2476341,40.8958588 41.3656732,40.9277613 41.4514286,41.0057143 C41.5755143,41.1350507 41.5755143,41.339235 41.4514286,41.4685714 L41.4514286,41.4685714 Z M42.3857143,40.4314286 C42.3442104,40.4826834 42.2869731,40.5188333 42.2228571,40.5342857 C42.1203425,40.5600734 42.0116888,40.5345078 41.9314286,40.4657143 C41.8678809,40.4072816 41.831717,40.3249003 41.831717,40.2385714 C41.831717,40.1522425 41.8678809,40.0698612 41.9314286,40.0114286 C41.9852219,39.941536 42.0656905,39.897201 42.1535117,39.8890694 C42.2413329,39.8809378 42.3285739,39.9097442 42.3942857,39.9685714 C42.5104377,40.1018792 42.4990247,40.3035082 42.3685714,40.4228571 L42.3857143,40.4314286 Z M43.2428571,39.3085714 C43.2000937,39.3752831 43.1320085,39.4217049 43.0542857,39.4371429 C42.969741,39.4749131 42.8731162,39.4749131 42.7885714,39.4371429 C42.7167055,39.3884736 42.667237,39.3131337 42.6511445,39.2278434 C42.635052,39.142553 42.6536666,39.0543673 42.7028571,38.9828571 C42.7475808,38.9180837 42.814794,38.8722565 42.8914286,38.8542857 C42.9757304,38.8153929 43.072841,38.8153929 43.1571429,38.8542857 C43.2300166,38.9041688 43.2795116,38.9815046 43.2942857,39.0685714 C43.3025127,39.1531587 43.2744768,39.2372663 43.2171429,39.3 L43.2428571,39.3085714 Z M43.9885714,38.1257143 C43.9426128,38.2018834 43.8688479,38.2572071 43.7828571,38.28 C43.7056152,38.309708 43.6200991,38.309708 43.5428571,38.28 C43.4651577,38.2399082 43.4088148,38.1679145 43.3885714,38.0828571 C43.3547476,38.0034519 43.3547476,37.913691 43.3885714,37.8342857 C43.4311093,37.7586488 43.5020711,37.7031134 43.5857143,37.68 C43.6651196,37.6461762 43.7548804,37.6461762 43.8342857,37.68 C43.9851965,37.7694132 44.0413291,37.9602641 43.9628571,38.1171429 L43.9885714,38.1257143 Z M44.5714286,36.8571429 C44.5317664,36.9471177 44.4526133,37.0136064 44.3571429,37.0371429 C44.2857908,37.0666679 44.2056377,37.0666679 44.1342857,37.0371429 C44.05523,37.0008672 43.9958104,36.9320655 43.9714286,36.8485714 C43.9376048,36.7691662 43.9376048,36.6794053 43.9714286,36.6 C44.0150292,36.5148213 44.0930422,36.4524109 44.1857143,36.4285714 C44.2570663,36.3990464 44.3372194,36.3990464 44.4085714,36.4285714 C44.4883276,36.4622713 44.5508378,36.5271146 44.5815938,36.6080515 C44.6123499,36.6889884 44.6086773,36.7789812 44.5714286,36.8571429 Z M45.0942857,35.5628571 C45.0627331,35.6635595 44.9819059,35.7411536 44.88,35.7685714 C44.8160536,35.7901282 44.7468036,35.7901282 44.6828571,35.7685714 C44.6006221,35.7395497 44.5334594,35.6787635 44.496405,35.5998216 C44.4593506,35.5208796 44.4554997,35.4303757 44.4857143,35.3485714 C44.520273,35.2466217 44.6041872,35.1691625 44.7085714,35.1428571 C44.7731763,35.12578 44.8411095,35.12578 44.9057143,35.1428571 C44.993183,35.1680729 45.0661083,35.2287417 45.1068185,35.3101622 C45.1475287,35.3915826 45.1523087,35.4863242 45.12,35.5714286 L45.0942857,35.5628571 Z M45.2828571,34.4571429 C45.2270066,34.4743297 45.1672791,34.4743297 45.1114286,34.4571429 C44.9411919,34.4035583 44.8405335,34.228338 44.88,34.0542857 C44.9115207,33.9420716 44.9992145,33.8543779 45.1114286,33.8228571 L45.2828571,33.8228571 C45.4530938,33.8764417 45.5537522,34.051662 45.5142857,34.2257143 C45.4875931,34.3337789 45.4112823,34.4228082 45.3085714,34.4657143 L45.2828571,34.4571429 Z" id="Shape" fill="#FF664D" fill-rule="nonzero"></path>
            <circle id="Oval" fill="#FF664D" fill-rule="nonzero" cx="45.5314286" cy="16.5942857" r="1"></circle>
            <circle id="Oval" fill="#FF664D" fill-rule="nonzero" cx="9.50571429" cy="26.2457143" r="1"></circle>
            <circle id="Oval" fill="#FF664D" fill-rule="nonzero" cx="50.2542857" cy="34.2" r="1"></circle>
            <circle id="Oval" fill="#FF664D" fill-rule="nonzero" cx="14.2285714" cy="43.8514286" r="1"></circle>
            <path d="M19.4657143,48.8571429 L19.8171429,49.2085714 C19.5647885,49.4824833 19.225761,49.6610781 18.8571429,49.7142857 C18.5089314,49.7543135 18.1576018,49.6725385 17.8628571,49.4828571 C17.5630698,49.3208421 17.3183695,49.0731576 17.16,48.7714286 C17.035653,48.5040046 16.993873,48.205576 17.04,47.9142857 C17.0883044,47.5797849 17.2050169,47.2588255 17.3828571,46.9714286 C17.5525435,46.6690523 17.7938988,46.4129803 18.0857143,46.2257143 C18.3406316,46.0618119 18.6400879,45.9809587 18.9428571,45.9942857 C19.247396,46.0105302 19.5426066,46.1049976 19.8,46.2685714 C20.0885859,46.4301616 20.3148649,46.6835941 20.4428571,46.9885714 C20.550703,47.2936054 20.550703,47.6263946 20.4428571,47.9314286 L19.9714286,47.7857143 C20.0408769,47.5594958 20.0408769,47.317647 19.9714286,47.0914286 C19.8842287,46.8887135 19.7298525,46.7222294 19.5342857,46.62 C19.3255737,46.4771951 19.0753022,46.4078427 18.8228571,46.4228571 C18.5922694,46.4399432 18.3731117,46.530008 18.1971429,46.68 C18.0160445,46.8384385 17.8599889,47.0233933 17.7342857,47.2285714 C17.5834273,47.4638134 17.4787079,47.725612 17.4257143,48 C17.3810185,48.2271177 17.4142378,48.4626722 17.52,48.6685714 C17.6242135,48.862404 17.7780254,49.0250897 17.9657143,49.14 C18.1761207,49.2764332 18.4291212,49.3313008 18.6771429,49.2942857 C18.9865476,49.2557473 19.2690867,49.0991224 19.4657143,48.8571429 Z" id="Path" fill="#FF664D" fill-rule="nonzero"></path>
            <path d="M21.1628571,49.14 C21.3049983,48.6351977 21.6407942,48.2069809 22.0971429,47.9485714 C22.5215014,47.7253143 23.0218526,47.6971696 23.4685714,47.8714286 C23.7739405,47.9754341 24.0461175,48.1588577 24.2571429,48.4028571 C24.4631785,48.645144 24.5915957,48.9437888 24.6257143,49.26 C24.6603221,49.5990461 24.6193389,49.9415482 24.5057143,50.2628571 C24.3897189,50.5842121 24.2054955,50.8766301 23.9657143,51.12 C23.7302407,51.3451742 23.4308092,51.4918957 23.1085714,51.54 C22.801222,51.5915242 22.4858529,51.5649979 22.1914286,51.4628571 C21.879584,51.3627045 21.6029575,51.1753124 21.3942857,50.9228571 C21.1976247,50.6757568 21.0730432,50.3791341 21.0342857,50.0657143 C21.0093498,49.7514657 21.0532258,49.4355587 21.1628571,49.14 L21.1628571,49.14 Z M21.6342857,49.3114286 C21.4926135,49.6663859 21.4926135,50.0621855 21.6342857,50.4171429 C21.7766068,50.7289429 22.0405846,50.9687239 22.3645898,51.0805057 C22.688595,51.1922875 23.0442678,51.1662859 23.3485714,51.0085714 C23.6733655,50.7918365 23.905646,50.4617536 24,50.0828571 C24.0957722,49.8315638 24.1366874,49.5626924 24.12,49.2942857 C24.0987441,49.0636162 24.0125576,48.8436922 23.8714286,48.66 C23.722576,48.4791874 23.5268706,48.3427867 23.3057143,48.2657143 C23.0007585,48.1413754 22.6592415,48.1413754 22.3542857,48.2657143 C21.9798578,48.4995685 21.719156,48.8782068 21.6342857,49.3114286 L21.6342857,49.3114286 Z" id="Shape" fill="#FF664D" fill-rule="nonzero"></path>
            <path d="M25.7142857,52.38 L26.0914286,48.72 L26.82,48.7971429 L27.42,51.48 C27.48,51.7285714 27.5142857,51.9171429 27.54,52.0371429 L27.7971429,51.4714286 L28.9371429,49.0114286 L29.5885714,49.08 L29.1428571,52.74 L28.6714286,52.6971429 L28.9885714,49.6285714 L27.6085714,52.5857143 L27.1714286,52.5428571 L26.4342857,49.3114286 L26.1171429,52.4314286 L25.7142857,52.38 Z" id="Path" fill="#FF664D" fill-rule="nonzero"></path>
            <path d="M31.1057143,52.6885714 L30.6857143,49.0285714 L32.0657143,48.8571429 C32.2509761,48.8388082 32.4375954,48.8388082 32.6228571,48.8571429 C32.7864391,48.8652445 32.9467384,48.906048 33.0942857,48.9771429 C33.2336977,49.0527026 33.3494167,49.1654544 33.4285714,49.3028571 C33.5220317,49.4474637 33.5807095,49.6117614 33.6,49.7828571 C33.6417275,50.0578501 33.5806996,50.3385782 33.4285714,50.5714286 C33.1597061,50.8575124 32.7840215,51.0189636 32.3914286,51.0171429 L31.4485714,51.1285714 L31.62,52.6114286 L31.1057143,52.6885714 Z M31.3714286,50.7171429 L32.3142857,50.5714286 C32.5512088,50.567123 32.778954,50.4790616 32.9571429,50.3228571 C33.080178,50.1818448 33.1336373,49.9931648 33.1028571,49.8085714 C33.0918721,49.6657325 33.0347089,49.5303461 32.94,49.4228571 C32.8540144,49.3288776 32.7396093,49.2656537 32.6142857,49.2428571 C32.4603137,49.2289432 32.3054006,49.2289432 32.1514286,49.2428571 L31.2171429,49.3457143 L31.3714286,50.7171429 Z" id="Shape" fill="#FF664D" fill-rule="nonzero"></path>
            <polygon id="Path" fill="#FF664D" fill-rule="nonzero" points="35.3057143 52.0457143 34.2857143 48.5142857 34.7485714 48.3771429 35.6571429 51.4885714 37.3714286 50.9828571 37.4914286 51.4028571"></polygon>
            <polygon id="Path" fill="#FF664D" fill-rule="nonzero" points="38.8628571 50.88 37.2428571 47.58 39.6342857 46.4057143 39.8228571 46.8 37.8771429 47.7514286 38.3657143 48.7628571 40.2 47.9057143 40.3885714 48.2914286 38.5714286 49.1571429 39.12 50.28 41.1428571 49.2857143 41.3314286 49.68"></polygon>
            <polygon id="Path" fill="#FF664D" fill-rule="nonzero" points="43.4485714 48.2571429 41.5114286 45.6857143 40.5428571 46.4057143 40.2857143 46.02 42.6342857 44.3057143 42.8914286 44.6485714 41.9142857 45.3771429 43.8514286 47.9485714"></polygon>
            <polygon id="Path" fill="#FF664D" fill-rule="nonzero" points="45.8914286 46.2857143 43.1914286 43.7828571 45.0085714 41.8285714 45.3257143 42.1285714 43.8428571 43.7142857 44.7 44.4771429 46.0885714 42.9857143 46.4057143 43.2857143 45.0171429 44.7771429 45.9342857 45.6342857 47.4771429 43.98 47.7942857 44.28"></polygon>
            <path d="M48.7542857,42.9514286 L45.6257143,41.0142857 L46.2857143,39.9342857 C46.3916612,39.7443924 46.521267,39.5687045 46.6714286,39.4114286 C46.8124869,39.2651411 46.9856121,39.1536367 47.1771429,39.0857143 C47.4302308,39.0211324 47.6954835,39.0211324 47.9485714,39.0857143 C48.4855349,39.2105689 48.9724144,39.494333 49.3457143,39.9 C49.4784811,40.0453602 49.5883141,40.2101096 49.6714286,40.3885714 C49.7323274,40.5357152 49.7671331,40.6923412 49.7742857,40.8514286 C49.7809004,41.0121825 49.7546509,41.172596 49.6971429,41.3228571 C49.6365775,41.5137896 49.5500533,41.6954903 49.44,41.8628571 L48.7542857,42.9514286 Z M48.6428571,42.3085714 L49.0542857,41.64 C49.1598877,41.4817255 49.2408124,41.3083155 49.2942857,41.1257143 C49.32359,40.9988126 49.32359,40.8669017 49.2942857,40.74 C49.2444713,40.5657819 49.1566496,40.4047755 49.0371429,40.2685714 C48.8807959,40.0877159 48.6953987,39.9341839 48.4885714,39.8142857 C48.2359163,39.6360055 47.9397437,39.5293834 47.6314286,39.5057143 C47.4179189,39.4944482 47.2067585,39.5547798 47.0314286,39.6771429 C46.8734537,39.8199517 46.7402223,39.9879391 46.6371429,40.1742857 L46.2342857,40.8342857 L48.6428571,42.3085714 Z" id="Shape" fill="#FF664D" fill-rule="nonzero"></path>
            <path d="M13.5771429,18.6 L13.9371429,18.2485714 C14.2041277,18.500423 14.3765914,18.8362734 14.4257143,19.2 C14.4636656,19.5504381 14.3755413,19.902935 14.1771429,20.1942857 C14.0113827,20.4890697 13.7644529,20.7300494 13.4657143,20.8885714 C13.183093,21.0130247 12.8701536,21.0517696 12.5657143,21 C12.2325066,20.94677 11.9142015,20.8241203 11.6314286,20.64 C11.3307516,20.4673466 11.0775019,20.2229312 10.8942857,19.9285714 C10.7328687,19.6728991 10.6549846,19.3733447 10.6714286,19.0714286 C10.6945969,18.7669612 10.7916893,18.4727418 10.9542857,18.2142857 C11.1190191,17.927036 11.3756593,17.7036081 11.6828571,17.58 C11.9901045,17.4679591 12.3270384,17.4679591 12.6342857,17.58 L12.4714286,18.0428571 C12.2459056,17.9689184 12.0026658,17.9689184 11.7771429,18.0428571 C11.5760329,18.1274247 11.407658,18.2747527 11.2971429,18.4628571 C11.1583039,18.6733925 11.0893244,18.9223186 11.1,19.1742857 C11.1128613,19.404283 11.200097,19.6238764 11.3485714,19.8 C11.5014009,19.9857897 11.683854,20.1450742 11.8885714,20.2714286 C12.1215887,20.4282846 12.3840363,20.5361797 12.66,20.5885714 C12.8859695,20.6402019 13.1229346,20.6098218 13.3285714,20.5028571 C13.5244758,20.4022437 13.6901275,20.2513823 13.8085714,20.0657143 C13.9472579,19.8561347 14.0051294,19.6033275 13.9714286,19.3542857 C13.9405981,19.0618969 13.7996241,18.7922077 13.5771429,18.6 Z" id="Path" fill="#FF664D" fill-rule="nonzero"></path>
            <path d="M14.0485714,17.0828571 C13.6538475,16.7378072 13.4106342,16.2513805 13.3714286,15.7285714 C13.3468162,15.2479612 13.534909,14.780864 13.8857143,14.4514286 C14.1079822,14.2179508 14.3893935,14.049104 14.7,13.9628571 C15.0000405,13.8795608 15.3171024,13.8795608 15.6171429,13.9628571 C15.9410661,14.0735357 16.2346028,14.2584638 16.4742857,14.5028571 C16.7287677,14.7391538 16.9227793,15.0331109 17.04,15.36 C17.1295456,15.662075 17.1295456,15.9836393 17.04,16.2857143 C16.9563645,16.5891194 16.7971093,16.8663413 16.5771429,17.0914286 C16.3454781,17.3347608 16.0474176,17.5046552 15.72,17.58 C15.4179969,17.6700399 15.0962888,17.6700399 14.7942857,17.58 C14.5138089,17.4680193 14.2598139,17.2986893 14.0485714,17.0828571 Z M14.4085714,16.7228571 C14.6684959,17.0061334 15.0277712,17.1780942 15.4114286,17.2028571 C15.7516471,17.2054954 16.0780729,17.068546 16.3145673,16.8239525 C16.5510617,16.579359 16.6769458,16.2485083 16.6628571,15.9085714 C16.6233576,15.5109806 16.4294703,15.1447491 16.1228571,14.8885714 C15.9351367,14.6930623 15.7069558,14.5409417 15.4542857,14.4428571 C15.2371008,14.3651391 15.0023932,14.3502841 14.7771429,14.4 C14.5528354,14.4592155 14.3485669,14.577632 14.1857143,14.7428571 C13.9584324,14.9713766 13.8266535,15.277839 13.8171429,15.6 C13.8514049,16.0397148 14.0653402,16.4458819 14.4085714,16.7228571 L14.4085714,16.7228571 Z" id="Shape" fill="#FF664D" fill-rule="nonzero"></path>
            <path d="M18.4542857,15.2742857 L16.4828571,12.1628571 L17.1085714,11.7685714 L19.2342857,13.4828571 L19.68,13.8428571 C19.6371429,13.7057143 19.5857143,13.5085714 19.5257143,13.2428571 L18.9,10.6114286 L19.4485714,10.26 L21.4285714,13.3885714 L21.0342857,13.6457143 L19.3885714,11.0742857 L20.1342857,14.2457143 L19.7571429,14.4857143 L17.1857143,12.4114286 L18.8571429,15.0171429 L18.4542857,15.2742857 Z" id="Path" fill="#FF664D" fill-rule="nonzero"></path>
            <path d="M22.38,12.9771429 L21.1285714,9.54857143 L22.44,9.07714286 C22.6155611,9.01128564 22.7961462,8.95968993 22.98,8.92285714 C23.137599,8.88365689 23.302401,8.88365689 23.46,8.92285714 C23.6130306,8.96144126 23.7524379,9.04152627 23.8628571,9.15428571 C23.9862615,9.27730756 24.0800575,9.42679482 24.1371429,9.59142857 C24.2514286,9.86571429 24.2514286,10.1742857 24.1371429,10.4485714 C23.9420592,10.7859001 23.6164375,11.0277905 23.2371429,11.1171429 L22.38,11.4428571 L22.8342857,12.8571429 L22.38,12.9771429 Z M22.1828571,10.9971429 L23.04,10.6714286 C23.2740431,10.6165391 23.4789757,10.4758391 23.6142857,10.2771429 C23.697012,10.1096584 23.697012,9.91319879 23.6142857,9.74571429 C23.5725074,9.61128042 23.4883043,9.49399758 23.3742857,9.41142857 C23.2673115,9.34263956 23.1412457,9.30962233 23.0142857,9.31714286 C22.8626154,9.34458792 22.7135194,9.38472914 22.5685714,9.43714286 L21.7114286,9.75428571 L22.1828571,10.9971429 Z" id="Shape" fill="#FF664D" fill-rule="nonzero"></path>
            <polygon id="Path" fill="#FF664D" fill-rule="nonzero" points="25.8085714 11.8542857 25.1828571 8.22857143 25.6628571 8.15142857 26.2114286 11.3485714 28.0028571 11.04 28.0714286 11.4685714"></polygon>
            <polygon id="Path" fill="#FF664D" fill-rule="nonzero" points="28.8685714 11.4 28.8685714 7.71428571 31.5342857 7.71428571 31.5342857 8.15142857 29.3571429 8.15142857 29.3571429 9.27428571 31.3885714 9.27428571 31.3885714 9.71142857 29.3485714 9.71142857 29.3485714 10.9714286 31.6114286 10.9714286 31.6114286 11.4085714"></polygon>
            <polygon id="Path" fill="#FF664D" fill-rule="nonzero" points="33.4285714 11.7257143 34.08 8.57142857 32.8971429 8.33142857 32.9828571 7.90285714 35.8371429 8.47714286 35.7514286 8.90571429 34.56 8.66571429 33.9257143 11.8457143"></polygon>
            <polygon id="Path" fill="#FF664D" fill-rule="nonzero" points="35.82 12.2914286 37.2085714 8.86285714 39.6685714 9.85714286 39.5057143 10.26 37.4914286 9.40285714 37.0714286 10.4485714 38.9571429 11.2114286 38.7942857 11.6142857 36.9085714 10.8514286 36.4371429 12.0085714 38.5285714 12.8657143 38.3657143 13.2685714"></polygon>
            <path d="M39.1285714,13.7142857 L41.1428571,10.6457143 L42.2057143,11.34 C42.3931912,11.4557824 42.5658881,11.5939399 42.72,11.7514286 C42.8635759,11.89488 42.9695618,12.0715231 43.0285714,12.2657143 C43.0931685,12.5158975 43.0931685,12.7783882 43.0285714,13.0285714 C42.8907842,13.5654364 42.5916101,14.0471067 42.1714286,14.4085714 C42.0220418,14.5399973 41.8509157,14.6444132 41.6657143,14.7171429 C41.5181432,14.7754433 41.3614749,14.8073572 41.2028571,14.8114286 C41.0451241,14.8064333 40.8890621,14.7775329 40.74,14.7257143 C40.5529791,14.654846 40.3746775,14.5628193 40.2085714,14.4514286 L39.1285714,13.7142857 Z M39.7714286,13.62 L40.4314286,14.0571429 C40.5898572,14.1667076 40.7630053,14.2532817 40.9457143,14.3142857 C41.0702142,14.3389975 41.1983573,14.3389975 41.3228571,14.3142857 C41.4982351,14.2696827 41.6619479,14.1878263 41.8028571,14.0742857 C41.9870922,13.9198627 42.1461425,13.7376778 42.2742857,13.5342857 C42.4617335,13.284368 42.5773251,12.9879792 42.6085714,12.6771429 C42.6255212,12.4655311 42.5712122,12.2543293 42.4542857,12.0771429 C42.3122817,11.9169923 42.1476948,11.7783928 41.9657143,11.6657143 L41.3228571,11.2371429 L39.7714286,13.62 Z" id="Shape" fill="#FF664D" fill-rule="nonzero"></path>
            <path d="M46.8771429,33.1371429 C45.7260679,39.7177985 40.8569493,45.030333 34.4012786,46.7491461 C27.9456079,48.4679592 21.0794721,46.2799195 16.8085714,41.1428571 L16.3714286,41.2628571 C20.7212574,46.6381276 27.8236212,48.9555675 34.5066353,47.1802183 C41.1896495,45.4048691 46.205561,39.8681976 47.3142857,33.0428571 L46.8771429,33.1371429 Z" id="Path" fill="#FF664D" fill-rule="nonzero"></path>
            <path d="M13.1228571,27.24 C14.2791203,20.6621805 19.1503092,15.3546953 25.6050603,13.639807 C32.0598114,11.9249188 38.9229045,14.1148582 43.1914286,19.2514286 L43.6285714,19.1314286 C39.2787426,13.7561581 32.1763788,11.4387182 25.4933647,13.2140674 C18.8103505,14.9894166 13.794439,20.5260881 12.6857143,27.3514286 L13.1228571,27.24 Z" id="Path" fill="#FF664D" fill-rule="nonzero"></path>
            <polygon id="Path" fill="#FF664D" fill-rule="nonzero" points="4.32857143 43.7142857 4.38857143 37.0542857 1.00285714 31.3114286 55.68 16.8428571 55.62 23.5028571 58.9971429 29.2457143"></polygon>
            <path d="M5.44285714,29.2714286 C5.83199,18.4666092 13.2396162,9.18642638 23.689481,6.41228303 C34.1393458,3.63813968 45.1744671,8.02229504 50.8714286,17.2114286 L51.8485714,16.9542857 C45.9754217,7.25867599 34.4132527,2.59582732 23.4570249,5.50440244 C12.5007972,8.41297756 4.77376005,18.1965764 4.48285714,29.5285714 L5.44285714,29.2714286 Z" id="Path" fill="#FF664D" fill-rule="nonzero"></path>
            <path d="M6.44571429,29.0057143 C6.96410909,18.7641852 14.039889,10.0308316 23.9511649,7.3994328 C33.8624409,4.76803404 44.3383702,8.84148861 49.8685714,17.4771429 L50.2885714,17.3657143 C44.6914895,8.47585464 33.9633162,4.25921481 23.8110415,6.95889071 C13.6587669,9.65856661 6.44208384,18.6470726 6,29.1428571 L6.44571429,29.0057143 Z" id="Path" fill="#FF664D" fill-rule="nonzero"></path>
            <path d="M53.5542857,31.3628571 C53.0392783,41.6058886 45.9647138,50.3423999 36.052638,52.9759677 C26.1405621,55.6095354 15.6626192,51.5365999 10.1314286,42.9 L9.71142857,43.0114286 C15.3056154,51.8982723 26.0276255,56.1163437 36.1774051,53.4232243 C46.3271846,50.7301049 53.5475509,41.7512443 54,31.26 L53.5542857,31.3628571 Z" id="Path" fill="#FF664D" fill-rule="nonzero"></path>
            <path d="M54.5571429,31.0971429 C54.1837183,41.9105808 46.7769529,51.2054574 36.3197879,53.9835118 C25.862623,56.7615662 14.8194119,52.3681172 9.12857143,43.1657143 L8.14285714,43.4228571 C14.011896,53.1256413 25.5768344,57.7953343 36.5375589,54.888075 C47.4982834,51.9808157 55.2285185,42.1932063 55.5171429,30.8571429 L54.5571429,31.0971429 Z" id="Path" fill="#FF664D" fill-rule="nonzero"></path>
            <path d="M16.3285714,30.9514286 L11.0314286,32.3485714 L10.8171429,31.4914286 L12.9514286,30.9257143 L12.7114286,30 L13.7142857,29.7771429 L13.9542857,30.7028571 L16.0971429,30.1371429 L16.3285714,30.9514286 Z M14.6142857,35.3142857 C13.32,35.6485714 12.2571429,35.2285714 12.0428571,34.2514286 C11.8285714,33.2742857 12.4885714,32.3828571 13.7571429,32.04 C15.0257143,31.6971429 16.1057143,32.1257143 16.3714286,33.1028571 C16.6371429,34.08 15.9257143,34.9714286 14.64,35.3142857 L14.6142857,35.3142857 Z M14.4,34.5257143 C15.12,34.3371429 15.5228571,33.8914286 15.3857143,33.36 C15.2485714,32.8285714 14.6742857,32.64 13.9542857,32.8285714 C13.2342857,33.0171429 12.8571429,33.4285714 13.0114286,33.9942857 C13.1657143,34.56 13.7142857,34.7142857 14.4257143,34.5257143 L14.4,34.5257143 Z M13.2685714,36.4285714 L19.1742857,34.8685714 L19.9457143,37.7914286 L18.9257143,38.0571429 L18.3685714,36 L13.4914286,37.2857143 L13.2685714,36.4285714 Z M19.7142857,31.7142857 L18.4371429,32.0485714 L19.0628571,34.4142857 L18.0342857,34.68 L16.56,29.0657143 L17.58,28.8 L18.2142857,31.2 L19.4914286,30.8571429 L19.7142857,31.7142857 Z" id="Shape" fill="#FFFFFF" fill-rule="nonzero"></path>
            <path d="M29.4,30 L29.6142857,30.8571429 L21.48,33 L21.2657143,32.1428571 L29.4,30 Z M28.4571429,29.6742857 C27.1326262,29.9078351 25.7715927,29.5613334 24.72,28.7228571 C24.2232946,29.9711972 23.2104803,30.9433739 21.9428571,31.3885714 L21.36,30.6942857 C23.0742857,29.9914286 24.1371429,28.6714286 23.8628571,27.6257143 L23.7771429,27.2828571 L24.8571429,27 L24.9428571,27.3514286 C25.2171429,28.38 26.8028571,29.0228571 28.6371429,28.7828571 L28.4571429,29.6742857 Z M27.6942857,31.9114286 L28.7142857,31.6457143 L29.6314286,35.1428571 L23.5542857,36.7457143 L22.6371429,33.2657143 L23.6485714,33 L23.8885714,33.9085714 L27.9342857,32.8457143 L27.6942857,31.9114286 Z M28.14,33.6257143 L24.0942857,34.6971429 L24.3514286,35.6571429 L28.3971429,34.5942857 L28.14,33.6257143 Z" id="Shape" fill="#FFFFFF" fill-rule="nonzero"></path>
            <path d="M36.7971429,29.3571429 C35.0739395,30.1162426 33.2869784,30.7214574 31.4571429,31.1657143 L31.1057143,30.3685714 C31.7571429,30.1971429 32.52,29.9914286 33.3171429,29.7514286 L33.1028571,28.8942857 C32.1447412,29.0917372 31.1938638,28.5271537 30.9085714,27.5914286 C30.6342857,26.5285714 31.3628571,25.56 32.6228571,25.2171429 C33.8828571,24.8742857 35.0314286,25.3542857 35.3142857,26.4171429 C35.5328811,27.357359 35.0027627,28.3100892 34.0885714,28.62 L34.2857143,29.4 C35.04,29.1514286 35.8028571,28.8857143 36.4885714,28.5428571 L36.7971429,29.3571429 Z M33.3685714,28.0714286 C34.1228571,27.8742857 34.5257143,27.3428571 34.3542857,26.7171429 C34.1828571,26.0914286 33.5828571,25.86 32.8285714,26.0314286 C32.0742857,26.2028571 31.6628571,26.7685714 31.8257143,27.3771429 C31.9885714,27.9857143 32.6571429,28.2857143 33.4285714,28.0714286 L33.3685714,28.0714286 Z M34.1742857,32.9571429 L39.2657143,31.62 L39.48,32.4771429 L33.4285714,34.0542857 L32.7685714,31.5342857 L33.7885714,31.2685714 L34.1742857,32.9571429 Z M38.8628571,26.3485714 L39.0857143,27.2057143 L37.8514286,27.5314286 L38.6657143,30.6171429 L37.7142857,30.8571429 L35.9142857,24 L36.9342857,23.7257143 L37.7057143,26.6571429 L38.8628571,26.3485714 Z" id="Shape" fill="#FFFFFF" fill-rule="nonzero"></path>
            <path d="M49.5171429,27.9685714 L49.74,28.8257143 L41.6057143,30.9685714 L41.3828571,30.1114286 L43.56,29.5371429 L43.1485714,27.9942857 L42,28.2857143 L41.2371429,25.4057143 L46.38,24.0428571 L46.0714286,22.8514286 L40.8771429,24.2142857 L40.6628571,23.3571429 L46.8685714,21.72 L47.6142857,24.5571429 L42.4714286,25.92 L42.7971429,27.1628571 L48.1714286,25.7485714 L48.3942857,26.6057143 L47.0657143,26.9571429 L47.4771429,28.5085714 L49.5171429,27.9685714 Z M44.5714286,29.2714286 L46.4142857,28.7914286 L46.0028571,27.24 L44.1685714,27.72 L44.5714286,29.2714286 Z" id="Shape" fill="#FFFFFF" fill-rule="nonzero"></path>
        </g>
    </g>
</svg>