<?xml version="1.0" encoding="UTF-8"?>
<svg width="60px" height="60px" viewBox="0 0 60 60" version="1.1" xmlns="http://www.w3.org/2000/svg" xmlns:xlink="http://www.w3.org/1999/xlink">
    <title>Group 25</title>
    <g id="Create" stroke="none" stroke-width="1" fill="none" fill-rule="evenodd">
        <g id="Group-25">
            <rect id="Rectangle-Copy-42" fill="#FFFFFF" fill-rule="nonzero" x="0" y="0" width="60" height="60"></rect>
            <g id="Group-24" transform="translate(6.857143, 5.142857)">
                <circle id="Oval-Copy-2" stroke="#000000" stroke-width="1.71428571" fill="#61C1BE" fill-rule="nonzero" stroke-linecap="round" stroke-linejoin="round" cx="41.1428571" cy="7.71428571" r="6"></circle>
                <g id="Group-23" transform="translate(0.857143, 4.285714)">
                    <g id="Group-22" transform="translate(4.285714, 0.000000)">
                        <path d="M22.74,15.9857143 C24.2907555,15.9904207 25.5467221,17.2463874 25.5514286,18.7971429 L25.5514286,18.7971429 C25.5467221,20.3478983 24.2907555,21.603865 22.74,21.6085714" id="Path" stroke="#000000" stroke-width="1.71428571" stroke-linecap="round" stroke-linejoin="round"></path>
                        <path d="M3.63428571,15.9857143 C2.08353024,15.9904207 0.827563565,17.2463874 0.822857143,18.7971429 L0.822857143,18.7971429 C0.827563565,20.3478983 2.08353024,21.603865 3.63428571,21.6085714" id="Path" stroke="#000000" stroke-width="1.71428571" stroke-linecap="round" stroke-linejoin="round"></path>
                        <path d="M17.4257143,28.02 L17.4257143,31.0285714 C17.4257143,32.1257143 16.1485714,33.0257143 14.58,33.0257143 L11.8114286,33.0257143 C10.2514286,33.0257143 8.96571429,32.1257143 8.96571429,31.0285714 L8.96571429,28.02" id="Path" stroke="#000000" stroke-width="1.71428571" stroke-linecap="round" stroke-linejoin="round"></path>
                        <path d="M1.10571429,17.5542857 L1.10571429,11.9485714 C1.13391832,5.35793332 6.47220051,0.0234778607 13.0628571,0 L13.0628571,0 C19.6501667,0.0281713461 24.9832572,5.36126189 25.0114286,11.9485714 L25.0114286,17.0914286" id="Path" stroke="#000000" stroke-width="1.71428571"></path>
                        <path d="M22.4914286,13.8 C21.3514286,14.5714286 19.1914286,14.5628571 17.8028571,14.2457143 C16.1371973,13.9683801 14.5883939,13.2118493 13.3457143,12.0685714 C11.9237202,13.3511816 10.1131716,14.1206647 8.20285714,14.2542857 C6.69046195,14.2523189 5.18829451,14.0062992 3.75428571,13.5257143 L3.75428571,19.74 C3.88960736,24.416747 7.75022784,28.120959 12.4285714,28.0628571 L13.92,28.0628571 C18.6016613,28.1256812 22.4674982,24.4201258 22.6028571,19.74 L22.6028571,13.8257143 L22.4914286,13.8 Z" id="Path" stroke="#000000" stroke-width="1.71428571" stroke-linecap="round" stroke-linejoin="round"></path>
                        <circle id="Oval" fill="#000000" fill-rule="nonzero" cx="8.11714286" cy="18.2914286" r="1"></circle>
                        <circle id="Oval" fill="#000000" fill-rule="nonzero" cx="17.9057143" cy="18.2914286" r="1"></circle>
                    </g>
                    <polyline id="Path" stroke="#000000" stroke-width="1.71428571" fill="#FFFFFF" fill-rule="nonzero" points="11.1428571 38.0204082 11.1428571 23.1428571 36.8571429 23.1428571 36.8571429 38.5714286"></polyline>
                    <polyline id="Path" stroke="#000000" stroke-width="1.71428571" fill="#FFFFFF" fill-rule="nonzero" points="24.8571429 39.4285714 39.4285714 39.4285714 39.4285714 44.5714286 24.8571429 44.5714286"></polyline>
                    <polygon id="Triangle" stroke="#000000" stroke-width="1.71428571" stroke-linejoin="round" fill-rule="nonzero" transform="translate(24.428571, 31.285714) rotate(-270.000000) translate(-24.428571, -31.285714) " points="24.4285714 28.2857143 28.2857143 34.2857143 20.5714286 34.2857143"></polygon>
                    <path d="M20.5714286,39.4285714 L14.5714286,39.4285714 L14.5714286,45.4285714 L20.5714286,45.4285714 C21.0448155,45.4285714 21.4733869,45.2366935 21.7836116,44.9264688 C22.0938363,44.6162441 22.2857143,44.1876726 22.2857143,43.7142857 L22.2857143,41.1428571 C22.2857143,40.6694702 22.0938363,40.2408988 21.7836116,39.9306741 C21.4733869,39.6204494 21.0448155,39.4285714 20.5714286,39.4285714 Z" id="Rectangle" stroke="#000000" stroke-width="1.71428571" fill-rule="nonzero"></path>
                    <path d="M6.85714286,35.1428571 L6.85714286,36 C6.85714286,36.9467739 7.62465471,37.7142857 8.57142857,37.7142857 L14.5714286,37.7142857 C15.9915894,37.7142857 17.1428571,38.8655535 17.1428571,40.2857143 L17.1428571,45.4285714 L17.1428571,45.4285714 L3.42857143,45.4285714 C1.53502371,45.4285714 0,43.8935477 0,42 L0,37.7142857 L0,34.2857143 C1.01433485,30.9938717 4.47867568,28.8053003 10.3930225,27.72" id="Path" stroke="#000000" stroke-width="1.71428571" fill-rule="nonzero"></path>
                    <rect id="Rectangle" stroke="#000000" stroke-width="1.71428571" fill="#FFFFFF" fill-rule="nonzero" x="13.7142857" y="37.7142857" width="3.42857143" height="7.71428571" rx="0.857142857"></rect>
                </g>
                <circle id="Oval" fill="#61C1BE" fill-rule="nonzero" cx="36.8571429" cy="16.2857143" r="1.71428571"></circle>
                <circle id="Oval-Copy-4" fill="#61C1BE" fill-rule="nonzero" cx="33.4285714" cy="18.8571429" r="1"></circle>
                <path d="M42,8.57142857 L42,9.42857143 L38.5714286,9.42857143 L38.5714286,6 L42,6 L42,6.85714286 L42.8571429,6 L43.7142857,6 L43.7142857,9.42857143 L42.8571429,9.42857143 L42,8.57142857 Z" id="Combined-Shape" fill="#000000" fill-rule="nonzero"></path>
                <path d="M9.42857143,0 L9.428,1.714 L11.1428571,1.71428571 L11.1428571,3.42857143 L9.428,3.428 L9.42857143,5.14285714 L7.71428571,5.14285714 L7.714,3.428 L6,3.42857143 L6,1.71428571 L7.714,1.714 L7.71428571,0 L9.42857143,0 Z" id="Combined-Shape" fill="#61C1BE" fill-rule="nonzero"></path>
                <path d="M2.57142857,12 L2.571,12.857 L3.42857143,12.8571429 L3.42857143,14.5714286 L2.571,14.571 L2.57142857,15.4285714 L0.857142857,15.4285714 L0.857,14.571 L0,14.5714286 L0,12.8571429 L0.857,12.857 L0.857142857,12 L2.57142857,12 Z" id="Combined-Shape" fill="#61C1BE" fill-rule="nonzero"></path>
            </g>
        </g>
    </g>
</svg>