<?xml version="1.0" encoding="UTF-8"?>
<svg width="60px" height="60px" viewBox="0 0 60 60" version="1.1" xmlns="http://www.w3.org/2000/svg" xmlns:xlink="http://www.w3.org/1999/xlink">
    <title>Group 29 Copy</title>
    <g id="Create" stroke="none" stroke-width="1" fill="none" fill-rule="evenodd">
        <g id="Group-29-Copy" fill-rule="nonzero">
            <rect id="Rectangle-Copy-42" fill="#FFFFFF" x="0" y="0" width="60" height="60"></rect>
            <g id="Group-9" transform="translate(46.042720, 33.964286) rotate(-150.000000) translate(-46.042720, -33.964286) translate(41.542720, 18.964286)">
                <path d="M8.81632653,19.1020408 L8.81632653,4.40816327 C8.81632653,1.97360192 6.84272461,4.72438415e-13 4.40816327,4.72438415e-13 C1.97360192,4.72438415e-13 0,1.97360192 0,4.40816327 L0,19.1020408 L0,23.164898 L3.72489796,29.042449 C3.85886151,29.2586084 4.09508261,29.3901188 4.34938776,29.3901188 C4.60369291,29.3901188 4.839914,29.2586084 4.97387755,29.042449 L8.81632653,23.164898 C8.81632653,23.164898 8.81632653,21.8106122 8.81632653,19.1020408 Z" id="Path" transform="translate(4.408163, 14.695059) rotate(-180.000000) translate(-4.408163, -14.695059) "></path>
                <path d="M8.81632653,19.1020408 L8.81632653,4.40816327 C8.81632653,1.97360192 6.84272461,5.81756865e-12 4.40816327,5.81756865e-12 C1.97360192,5.81756865e-12 0,1.97360192 0,4.40816327 L0,19.1020408 L0,23.164898 L3.72489796,29.042449 C3.85886151,29.2586084 4.09508261,29.3901188 4.34938776,29.3901188 C4.60369291,29.3901188 4.839914,29.2586084 4.97387755,29.042449 L8.81632653,23.164898 C8.81632653,23.164898 8.81632653,21.8106122 8.81632653,19.1020408 Z M5.14285714,22.0408163 L5.14285714,11.0204082 L7.34693878,11.0204082 L7.34693878,22.0408163 L5.14285714,22.0408163 Z M1.46938776,22.0408163 L1.46938776,11.0204082 L3.67346939,11.0204082 L3.67346939,22.0408163 L1.46938776,22.0408163 Z M7.34693878,9.55102041 L1.46938776,9.55102041 L1.46938776,8.08163265 L7.34693878,8.08163265 L7.34693878,9.55102041 Z M4.40816327,1.46938776 C6.03120416,1.46938776 7.34693878,2.78512237 7.34693878,4.40816327 L7.34693878,6.6122449 L1.46938776,6.6122449 L1.46938776,4.40816327 C1.46938776,2.78512237 2.78512237,1.46938776 4.40816327,1.46938776 Z M4.40816327,27.2644898 L2.05714286,23.5102041 L6.75918367,23.5102041 L4.40816327,27.2644898 Z" id="Shape" fill="#000000" transform="translate(4.408163, 14.695059) rotate(-180.000000) translate(-4.408163, -14.695059) "></path>
            </g>
            <polyline id="Path" stroke="#000000" stroke-width="1.71428571" points="35.123158 45.4285714 9.42857143 45.4285714 9.42857143 12.8571429 45.4285714 12.8571429 45.4285714 22.2120125"></polyline>
            <path d="M49.7142857,6.85714286 L49.7137143,8.57114286 L51.4285714,8.57142857 L51.4285714,10.2857143 L49.7137143,10.2851429 L49.7142857,12 L48,12 L47.9997143,10.2851429 L46.2857143,10.2857143 L46.2857143,8.57142857 L47.9997143,8.57114286 L48,6.85714286 L49.7142857,6.85714286 Z" id="Combined-Shape" fill="#E1002A"></path>
            <path d="M54,13.7142857 L53.9995714,14.5712857 L54.8571429,14.5714286 L54.8571429,16.2857143 L53.9995714,16.2852857 L54,17.1428571 L52.2857143,17.1428571 L52.2855714,16.2852857 L51.4285714,16.2857143 L51.4285714,14.5714286 L52.2855714,14.5712857 L52.2857143,13.7142857 L54,13.7142857 Z" id="Combined-Shape" fill="#E1002A"></path>
            <rect id="Rectangle" fill="#E1002A" x="30" y="8.57142857" width="13.7142857" height="1.71428571"></rect>
            <rect id="Rectangle-Copy-81" fill="#E1002A" x="11.1428571" y="48" width="6" height="1.71428571"></rect>
            <rect id="Rectangle-Copy-82" fill="#E1002A" x="18.8571429" y="48" width="3.42857143" height="1.71428571"></rect>
            <rect id="Rectangle-Copy-65" fill="#E1002A" x="26.5714286" y="8.57142857" width="1.71428571" height="1.71428571"></rect>
            <rect id="Rectangle" fill="#000000" x="12" y="15.4285714" width="2.57142857" height="2.57142857"></rect>
            <rect id="Rectangle-Copy-61" fill="#000000" x="29.1428571" y="15.4285714" width="2.57142857" height="2.57142857"></rect>
            <rect id="Rectangle-Copy-62" fill="#000000" x="20.5714286" y="40.2857143" width="2.57142857" height="2.57142857"></rect>
            <rect id="Rectangle-Copy-55" fill="#000000" x="16.2857143" y="15.4285714" width="2.57142857" height="2.57142857"></rect>
            <rect id="Rectangle-Copy-77" fill="#000000" x="33.4285714" y="15.4285714" width="2.57142857" height="2.57142857"></rect>
            <rect id="Rectangle-Copy-79" fill="#000000" x="24.8571429" y="40.2857143" width="2.57142857" height="2.57142857"></rect>
            <rect id="Rectangle-Copy-59" fill="#000000" x="20.5714286" y="15.4285714" width="2.57142857" height="2.57142857"></rect>
            <rect id="Rectangle-Copy-63" fill="#000000" x="12" y="40.2857143" width="2.57142857" height="2.57142857"></rect>
            <rect id="Rectangle-Copy-78" fill="#000000" x="37.7142857" y="15.4285714" width="2.57142857" height="2.57142857"></rect>
            <rect id="Rectangle-Copy-80" fill="#000000" x="29.1428571" y="40.2857143" width="2.57142857" height="2.57142857"></rect>
            <rect id="Rectangle-Copy-60" fill="#000000" x="24.8571429" y="15.4285714" width="2.57142857" height="2.57142857"></rect>
            <rect id="Rectangle-Copy-64" fill="#000000" x="16.2857143" y="40.2857143" width="2.57142857" height="2.57142857"></rect>
            <polygon id="Triangle" stroke="#000000" stroke-width="1.71428571" stroke-linejoin="round" transform="translate(29.571429, 29.142857) rotate(-270.000000) translate(-29.571429, -29.142857) " points="29.5714286 24 36 34.2857143 23.1428571 34.2857143"></polygon>
        </g>
    </g>
</svg>