<svg xmlns="http://www.w3.org/2000/svg" width="24" height="24" viewBox="0 0 24 24">
    <g fill="none">
        <path d="M0 0H24V24H0z"/>
        <g fill="#6C788F">
            <path d="M10 4v10H0V4h10zM4.241 6H2l1.88 3L2 12h2.24L5 10.788 5.76 12H8L6.12 9 8 6H5.759l-.758 1.212L4.24 6zM3 0H5V3H3zM3 15H5V18H3zM16 0H18V16H16z" transform="translate(3 3)"/>
            <path d="M5 0H18V2H5zM11 5H15V7H11zM11 8H15V10H11zM11 11H15V13H11zM4 16H18V18H4z" transform="translate(3 3)"/>
        </g>
    </g>
</svg>
