<svg xmlns="http://www.w3.org/2000/svg" width="98" height="31" viewBox="0 0 98 31">
    <g fill="none" fill-rule="evenodd">
        <path fill="#E1002A" d="M44.157 5.404c-.324-.201-.67-.384-1.04-.55-.37-.169-.75-.311-1.138-.43-.39-.12-.779-.21-1.17-.277-.39-.067-.766-.101-1.126-.101-.478 0-.919.043-1.322.127-.404.085-.752.214-1.045.387-.293.172-.523.388-.688.648-.164.259-.247.56-.247.905 0 .257.038.487.112.691.075.204.176.386.305.549.129.16.278.305.444.435.166.129.343.247.528.355.447.257.915.514 1.404.775.489.259.977.521 1.462.78s.957.521 1.413.782c.454.262.874.522 1.26.78.514.344.95.704 1.304 1.083.355.379.643.777.864 1.195.222.42.38.859.479 1.32.096.46.145.94.145 1.438 0 .72-.1 1.372-.303 1.956-.204.585-.487 1.106-.85 1.562-.362.458-.79.854-1.288 1.19-.497.332-1.037.608-1.62.824-.584.216-1.198.377-1.844.482-.645.106-1.3.158-1.963.158-.638 0-1.272-.035-1.901-.107-.631-.072-1.259-.2-1.886-.379-.314-.092-.615-.192-.907-.301-.291-.107-.548-.242-.771-.405-.223-.163-.403-.362-.537-.602-.134-.238-.2-.534-.2-.89 0-.277.05-.522.15-.733.1-.21.239-.39.417-.533.177-.144.386-.252.626-.324.238-.072.493-.108.766-.108.262 0 .521.036.775.104.255.07.506.148.752.237.53.178 1.053.305 1.567.38.515.074.98.114 1.396.114.4 0 .8-.035 1.196-.098.396-.063.751-.18 1.065-.346.312-.168.567-.396.763-.688.195-.29.293-.665.293-1.123 0-.23-.034-.442-.103-.632-.07-.19-.163-.364-.28-.521-.114-.156-.248-.297-.399-.424-.152-.127-.314-.243-.483-.351-.211-.134-.467-.286-.768-.454-.3-.17-.62-.345-.957-.53-.336-.182-.679-.365-1.028-.55-.35-.187-.681-.36-.991-.525-.312-.166-.592-.315-.839-.453-.246-.135-.437-.245-.57-.327-.515-.322-.98-.66-1.396-1.01-.416-.35-.771-.735-1.064-1.162-.294-.423-.52-.9-.68-1.431-.159-.528-.24-1.134-.24-1.812 0-.73.104-1.38.31-1.948.205-.569.49-1.066.851-1.493.364-.427.789-.789 1.277-1.087.489-.3 1.017-.538 1.586-.722.568-.181 1.16-.313 1.778-.397.617-.083 1.234-.122 1.851-.122.623 0 1.228.033 1.814.103.586.068 1.145.168 1.678.293.532.125 1.03.276 1.495.453.466.173.892.365 1.277.569l-1.759 3.27zM54.124 1.053v12.435c0 .645.014 1.214.041 1.71.03.496.084.935.168 1.316.08.379.192.711.331.99.14.28.32.525.547.736.216.206.45.372.696.497.247.129.497.223.75.29.255.067.508.113.76.135.252.023.492.035.719.035.205 0 .43-.023.673-.066.246-.042.492-.111.74-.2.244-.09.486-.204.723-.346.236-.141.452-.31.648-.506.205-.206.37-.444.49-.717.122-.274.214-.598.278-.977.065-.377.106-.816.123-1.315.019-.499.028-1.076.028-1.736V2.803c0-.322.053-.609.157-.857.105-.25.254-.461.444-.631.19-.168.413-.297.67-.38.26-.086.539-.13.842-.13.32 0 .607.049.868.141.26.091.483.223.667.396.185.173.329.383.428.63.101.246.15.524.15.83v10.44c0 .23 0 .47-.004.717-.002.247-.005.444-.01.594-.016.66-.074 1.297-.177 1.913-.105.619-.274 1.213-.51 1.79-.34.83-.774 1.517-1.3 2.067-.527.552-1.113.99-1.756 1.323-.643.333-1.327.568-2.052.707-.725.138-1.452.207-2.182.207-.57 0-1.157-.043-1.755-.127-.599-.084-1.187-.226-1.76-.423-.574-.2-1.12-.458-1.643-.777-.521-.319-.991-.713-1.408-1.18-.365-.406-.661-.822-.89-1.252-.23-.43-.41-.876-.54-1.34-.131-.462-.222-.944-.274-1.444-.051-.503-.08-1.026-.085-1.572-.006-.201-.007-.398-.007-.594V1.053h4.412zM76.217 1.053l4.197 7.992.545 1.052c.202.394.417.816.643 1.267.226.45.461.922.703 1.42.242.495.483.999.725 1.508.242.51.478 1.02.71 1.534.231.515.449 1.015.655 1.504h.123c-.082-.755-.156-1.497-.22-2.225-.065-.73-.12-1.464-.166-2.21-.046-.746-.08-1.514-.103-2.304-.024-.789-.036-1.624-.036-2.503V1.053h4.043v18.406c0 .608-.084 1.088-.254 1.443-.123.257-.281.479-.475.667-.194.189-.41.343-.648.466-.238.126-.497.216-.771.278-.276.062-.557.093-.845.093-.587 0-1.134-.151-1.64-.451-.507-.3-.947-.796-1.323-1.485l-3.487-6.394c-.298-.547-.601-1.114-.91-1.702-.308-.588-.626-1.22-.953-1.895-.326-.673-.662-1.4-1.01-2.182s-.706-1.637-1.076-2.568h-.146c.087.796.165 1.598.235 2.407.068.807.127 1.601.173 2.386.046.784.082 1.552.105 2.3.024.748.034 1.465.034 2.147v5.177c0 .37-.04.683-.118.938-.081.254-.206.485-.376.69-.164.2-.37.36-.62.48-.249.123-.552.184-.907.184s-.659-.061-.91-.183c-.253-.12-.46-.281-.625-.482-.17-.204-.293-.435-.37-.69-.077-.254-.116-.566-.116-.937V1.053h5.214zM97.417 1.053v18.915c0 .393-.043.723-.127.996-.086.27-.216.516-.391.732-.175.216-.398.39-.667.518-.27.128-.59.192-.96.192s-.69-.064-.962-.192c-.269-.129-.492-.302-.667-.518-.174-.216-.303-.461-.389-.732-.085-.273-.127-.603-.127-.996V1.053h4.29z"/>
        <path fill="#000" d="M7.752 22.014l-1.451.596.029-.274.078-.722.069-.684.491-4.385.069-.498c.026-.261.039-.514.039-.762 0-.631-.192-.947-.576-.947-.6 0-1.299.613-2.097 1.836-.797 1.224-1.258 2.39-1.382 3.496l-.249 2.344-1.461.596.029-.274.078-.722.078-.684.5-4.531.059-.518c.046-.403.068-.73.068-.976 0-.417-.103-.625-.312-.625-.491 0-1.019.553-1.586 1.66-.151-.124-.225-.232-.225-.322 0-.391.357-.923 1.07-1.597.714-.674 1.28-1.011 1.698-1.011.559 0 .839.358.839 1.074 0 .183-.015.427-.048.733l-.078.79-.081.665-.08.693.274-.43c1.459-2.35 2.816-3.525 4.072-3.525.606 0 .909.437.909 1.309 0 .149-.026.466-.078.947l-.098.898-.135 1.22c.605-1.256 1.322-2.3 2.152-3.13.83-.83 1.57-1.244 2.221-1.244.644 0 .967.417.967 1.25 0 .358-.038.784-.113 1.279l-.519 3.623c-.116.749-.173 1.329-.173 1.739 0 .344.096.517.285.517.223 0 .502-.185.84-.556.338-.371.607-.791.81-1.26.178.117.266.224.266.322 0 .41-.365.96-1.094 1.65-.728.69-1.308 1.036-1.74 1.036-.555 0-.832-.371-.832-1.114 0-.468.071-1.194.215-2.177l.348-2.354c.011-.085.035-.27.068-.556.012-.118.035-.316.068-.596.031-.28.049-.495.049-.645 0-.553-.183-.83-.547-.83-.609 0-1.318.613-2.127 1.836-.808 1.224-1.273 2.39-1.396 3.496l-.26 2.344zM23.06 18.469c-.657 1.198-1.348 2.188-2.066 2.969-.72.78-1.308 1.172-1.764 1.172-.627 0-.973-.657-1.037-1.971l-.069-1.356-.125-2.76-.03-.79c-.059-1.047-.25-1.571-.577-1.571-.508 0-1.002.479-1.483 1.436-.17-.117-.255-.244-.255-.381 0-.352.316-.808.948-1.367.633-.56 1.148-.84 1.546-.84.41 0 .7.184.87.552.17.368.28 1.047.334 2.036l.178 3.418c.066 1.302.272 1.953.624 1.953.526 0 1.18-.604 1.96-1.812.778-1.208 1.28-2.394 1.5-3.56l.378-1.991 1.74-.606c-.22.573-.448 1.439-.683 2.597l-1.308 6.549c-.514 2.563-1.31 4.457-2.383 5.68-1.608 1.822-3.471 2.733-5.587 2.733-.443 0-.94-.1-1.494-.295l1.203-1.326c.611.273 1.25.41 1.915.41 1.355 0 2.37-.44 3.049-1.316.678-.877 1.244-2.486 1.7-4.826l.917-4.737z"/>
    </g>
</svg>
