<svg xmlns="http://www.w3.org/2000/svg" width="24" height="24" viewBox="0 0 24 24">
    <g fill="none" fill-rule="evenodd" transform="translate(-16 -4)">
        <rect width="87" height="31" x=".5" y=".5" stroke="#6C788F" rx="4"/>
        <path fill="#6C788F" fill-rule="nonzero" d="M24.433 19.713l1.468-.423 8.836-8.942a.38.38 0 0 0-.003-.533l-.529-.535a.37.37 0 0 0-.527-.002l-8.812 8.918-.433 1.516v.001zM35.253 8.22l.529.536a1.9 1.9 0 0 1 .013 2.663l-9.105 9.215-3.137.904a.75.75 0 0 1-.925-.52.762.762 0 0 1-.001-.421l.912-3.2 9.081-9.191a1.846 1.846 0 0 1 2.633.013v.001zm-9.6.96c.414 0 .749.34.749.758a.753.753 0 0 1-.749.758H22.66c-.827 0-1.497.678-1.497 1.514v9.088c0 .837.67 1.515 1.497 1.515h8.98c.827 0 1.497-.678 1.497-1.515V18.27c0-.418.335-.757.749-.757.413 0 .748.339.748.758v3.028c0 1.674-1.34 3.03-2.994 3.03h-8.98c-1.653 0-2.993-1.356-2.993-3.03V12.21c0-1.672 1.34-3.03 2.993-3.03h2.993z"/>
    </g>
</svg>
