<svg xmlns="http://www.w3.org/2000/svg" width="24" height="24" viewBox="0 0 24 24">
    <path fill="#6C788F" fill-rule="nonzero" d="M12 4a8 8 0 1 1 0 16 8 8 0 0 1 0-16zm1.967 9.001h-3.934c.09 1.366.36 2.61.765 3.555C11.217 17.533 11.69 18 12 18c.31 0 .783-.467 1.202-1.444.405-.945.676-2.189.765-3.555zm-5.94 0H6.084a6.004 6.004 0 0 0 2.773 4.11c-.454-1.15-.741-2.567-.828-4.11zm9.89 0h-1.945c-.087 1.543-.374 2.96-.828 4.11A6 6 0 0 0 17.917 13zM8.857 6.89l-.124.077A6.003 6.003 0 0 0 6.083 11h1.945c.087-1.544.374-2.96.828-4.11zM12 6c-.31 0-.783.467-1.202 1.444-.405.946-.676 2.19-.766 3.556h3.936c-.09-1.367-.36-2.61-.766-3.556-.39-.912-.829-1.38-1.138-1.438L12 6zm3.144.889l.073.192c.412 1.114.673 2.46.755 3.919h1.945a6.004 6.004 0 0 0-2.773-4.111z"/>
</svg>
