<svg xmlns="http://www.w3.org/2000/svg" width="16" height="16" viewBox="0 0 16 16">
    <path fill="#666" fill-rule="evenodd" d="M4.385 11c.642 2.365 2.02 4 3.615 4a7 7 0 0 1-6.326-4zm3.864 3.986l.07.007c-.105.005-.21.007-.317.007.055 0 .111-.002.167-.006zm-6.575-3.985h12.652a7.01 7.01 0 0 1-5.157 3.902c1.305-.385 2.396-1.876 2.946-3.903h2.211zm9.441 0c-.539 1.984-1.595 3.455-2.864 3.876-1.27-.42-2.327-1.891-2.866-3.876zm-6.95-5A11.955 11.955 0 0 0 4 8c0 .695.058 1.367.166 2l-2.876.001A7 7 0 0 1 1 8c0-.695.101-1.366.29-2zM1.29 6h13.42A7 7 0 0 1 15 8a7 7 0 0 1-.29 2.001h-2.375c.107-.634.165-1.306.165-2.001 0-.695-.058-1.366-.165-2h2.375zm10.045 0c.107.634.165 1.305.165 2 0 .695-.058 1.367-.165 2h-6.17A11.955 11.955 0 0 1 5 8c0-.695.058-1.366.166-2zM8 1C6.404 1 5.027 2.635 4.385 5H1.673A7 7 0 0 1 8 1zm6.327 4h-2.211c-.55-2.027-1.642-3.519-2.948-3.903A7.009 7.009 0 0 1 14.327 5zM8.253 1.124C9.52 1.546 10.577 3.016 11.115 5h-5.73c.528-1.946 1.554-3.398 2.791-3.851zM8 1c.106 0 .212.002.318.007l-.07.006A2.33 2.33 0 0 0 8 1h.001z"/>
</svg>
