<svg xmlns="http://www.w3.org/2000/svg" xmlns:xlink="http://www.w3.org/1999/xlink" width="16" height="16" viewBox="0 0 16 16">
    <defs>
        <path id="a" d="M8.332 2c.086 0 .17.035.231.097l1.206 1.206a.326.326 0 0 1 0 .464l-6.238 6.239a.33.33 0 0 1-.525-.086l-.256-.512h-.863l-.448 1.57 1.583 1.584 1.57-.449v-.862l-.513-.256a.33.33 0 0 1-.085-.526l6.239-6.239a.34.34 0 0 1 .464 0l1.206 1.206a.33.33 0 0 1 0 .465L5.15 12.593c-.004.004-.01.005-.014.009-.015.014-.035.024-.053.035l-.028.017-.03.014-.016.007-1.993.57-2.599.743a.327.327 0 0 1-.405-.405l.742-2.6.57-1.993a.335.335 0 0 1 .076-.13c.003-.003.003-.007.005-.011L8.1 2.097A.329.329 0 0 1 8.33 2zM10.177.34a1.218 1.218 0 0 1 1.687-.001l1.787 1.79c.226.227.349.527.349.846 0 .319-.123.618-.35.844L12.55 4.913a.295.295 0 0 1-.42 0L9.087 1.865a.3.3 0 0 1 0-.422z"/>
    </defs>
    <use fill="#222" fill-rule="evenodd" transform="translate(1 1)" xlink:href="#a"/>
</svg>
