<svg xmlns="http://www.w3.org/2000/svg" width="32" height="32" viewBox="0 0 32 32">
    <g fill="none" fill-rule="evenodd">
        <circle cx="16" cy="16" r="16" fill="#000"/>
        <path fill="#B9B9B9" fill-rule="nonzero" d="M22.872 11.76l-2.902 2.86s-.867 0-1.734-.865-.867-1.73-.867-1.73l2.902-2.894c-1.635-.4-3.603.133-4.804 1.33-1.8 1.797-.2 4.093-.667 4.558-2.535 2.628-5.136 4.625-5.203 4.724-.767.765-.8 1.996-.067 2.728.734.732 1.968.699 2.735-.066.1-.1 2.235-2.795 4.737-5.29.467-.466 2.668 1.231 4.536-.599 1.168-1.197 1.735-3.127 1.334-4.757zM11 22a.98.98 0 0 1-1-.98c0-.589.44-1.02 1-1.02s1 .431 1 .98c0 .55-.44 1.02-1 1.02z"/>
    </g>
</svg>
