<svg xmlns="http://www.w3.org/2000/svg" width="24" height="24" viewBox="0 0 24 24">
    <g fill="none" fill-rule="evenodd">
        <path fill="#FF664D" d="M6.25 10L6.25 16.667 0 16.667z" transform="translate(4 3)"/>
        <path fill-rule="nonzero" stroke="#6C788F" d="M7.5 1.376l-3.692 6.04h7.384L7.5 1.377zM12.083 10.083c-.899 0-1.711.363-2.3.95-.587.589-.95 1.401-.95 2.3 0 .9.363 1.712.95 2.3.589.588 1.401.95 2.3.95.9 0 1.712-.362 2.3-.95.588-.588.95-1.4.95-2.3 0-.899-.362-1.711-.95-2.3-.588-.587-1.4-.95-2.3-.95zM6.167 10.5H.5v5.667h5.667V10.5z" transform="translate(4 3)"/>
    </g>
</svg>
