<svg xmlns="http://www.w3.org/2000/svg" width="24" height="24" viewBox="0 0 24 24">
    <path fill="#D9D9D9" fill-rule="nonzero" d="M20.375 5.625h-3.188l-.759-2.128A.752.752 0 0 0 15.72 3H8.53c-.317 0-.6.2-.706.497l-.761 2.128H3.874C2.839 5.625 2 6.465 2 7.5v10.688c0 1.035.84 1.875 1.875 1.875h16.5c1.036 0 1.875-.84 1.875-1.875V7.5c0-1.036-.84-1.875-1.875-1.875zm-8.25 10.688a3.749 3.749 0 0 1-3.75-3.75 3.749 3.749 0 0 1 3.75-3.75 3.749 3.749 0 0 1 3.75 3.75 3.749 3.749 0 0 1-3.75 3.75zm-2.25-3.75a2.25 2.25 0 1 0 4.5 0 2.25 2.25 0 0 0-4.5 0z"/>
</svg>
