<svg xmlns="http://www.w3.org/2000/svg" width="48" height="48" viewBox="0 0 48 48">
    <g fill="none" fill-rule="evenodd">
        <path fill="#EA644D" d="M43.768 32.472V16.504v15.968z"/>
        <path stroke="#EA644D" stroke-width="4" d="M43.768 16.504v15.968"/>
        <path fill="#6A758B" d="M24 2L0 15.8l24 13.8 24-13.8L24 2zM6.018 15.8L24 5.46 41.981 15.8l-17.98 10.34L6.017 15.8z"/>
        <path fill="#6A758B" d="M24.01 26.142L8.75 17.4l-.033 20.427L23.978 46l15.284-8.126.033-20.529-15.285 8.797zm1.496 2.6l10.781-6.204-.022 13.532-12.283 6.53L11.72 36.03l.022-13.46 10.777 6.174 1.494.857 1.493-.86z"/>
    </g>
</svg>
