<svg xmlns="http://www.w3.org/2000/svg" width="24" height="24" viewBox="0 0 24 24">
    <g fill="#B0B0B0">
        <g>
            <path d="M2 0H15V2H2zM0 4H15V6H0zM2 17H9V19H2z" transform="translate(3 2)"/>
            <path d="M0 2H2V17H0zM13 4H15V9H13zM12 2H14V4H12zM2 0L0 2 2 2z" transform="translate(3 2)"/>
            <path d="M2 17L0 19 2 19z" transform="translate(3 2) rotate(-90 1 18)"/>
        </g>
        <g>
            <path d="M3 0H5V8H3z" transform="translate(13 13)"/>
            <path d="M0 3H8V5H0z" transform="translate(13 13)"/>
        </g>
    </g>
</svg>
