<svg xmlns="http://www.w3.org/2000/svg" width="17" height="17" viewBox="0 0 17 17">
    <path fill="#303C42" fill-rule="evenodd" d="M9.7 2c.23 0 .43.156.485.38l.308 1.228.057.024 1.087-.652a.5.5 0 0 1 .611.075l1.697 1.697a.5.5 0 0 1 .075.611l-.652 1.087.024.057 1.229.308A.499.499 0 0 1 15 7.3v2.4a.5.5 0 0 1-.379.485l-1.229.307-.024.058.652 1.087a.5.5 0 0 1-.075.61l-1.697 1.698a.502.502 0 0 1-.611.075l-1.086-.652-.058.023-.308 1.23a.499.499 0 0 1-.485.38H7.3a.499.499 0 0 1-.485-.38l-.308-1.23-.058-.023-1.086.652a.502.502 0 0 1-.611-.075l-1.697-1.698a.5.5 0 0 1-.075-.61l.652-1.087-.024-.058-1.229-.307A.5.5 0 0 1 2 9.7V7.3c0-.23.156-.43.379-.485l1.229-.308.024-.057-.652-1.087a.5.5 0 0 1 .075-.61l1.697-1.698a.5.5 0 0 1 .611-.075l1.087.652.057-.024.308-1.229A.499.499 0 0 1 7.3 2h2.4zm-.39 1H7.69l-.276 1.106a.503.503 0 0 1-.321.351c-.157.055-.31.115-.459.187a.503.503 0 0 1-.476-.02l-.974-.586-1.146 1.145.585.975a.5.5 0 0 1 .021.476 4.282 4.282 0 0 0-.187.46.498.498 0 0 1-.351.32L3 7.69v1.62l1.106.276a.5.5 0 0 1 .351.321c.055.157.115.31.187.46a.5.5 0 0 1-.021.475l-.585.974 1.146 1.145.974-.585a.502.502 0 0 1 .477-.02c.148.072.301.132.458.187a.5.5 0 0 1 .321.351L7.69 14h1.62l.276-1.106a.5.5 0 0 1 .321-.35c.157-.056.31-.116.458-.188a.496.496 0 0 1 .477.02l.974.585 1.146-1.145-.585-.974a.5.5 0 0 1-.021-.476c.072-.149.132-.302.187-.459a.5.5 0 0 1 .351-.32L14 9.308V7.69l-1.106-.277a.498.498 0 0 1-.351-.32 4.282 4.282 0 0 0-.187-.459.5.5 0 0 1 .021-.476l.585-.975-1.146-1.145-.974.585a.5.5 0 0 1-.476.021 4.368 4.368 0 0 0-.459-.187.503.503 0 0 1-.321-.35L9.31 3zM8.5 5.6c1.599 0 2.9 1.301 2.9 2.9 0 1.6-1.301 2.9-2.9 2.9a2.903 2.903 0 0 1-2.9-2.9c0-1.599 1.301-2.9 2.9-2.9zm0 1c-1.048 0-1.9.852-1.9 1.9s.852 1.9 1.9 1.9 1.9-.852 1.9-1.9-.852-1.9-1.9-1.9z"/>
</svg>
