<svg xmlns="http://www.w3.org/2000/svg" width="72" height="72" viewBox="0 0 72 72">
    <g fill="none" fill-rule="evenodd" stroke="#222" stroke-linejoin="round" stroke-width="2">
        <path d="M17.351 51.058L17.607 59M42.874 57.865V41.612c6.415-4.298 10.52-11.704 10.096-20.027C52.385 10.087 42.886.663 31.244.035 17.926-.683 6.899 9.767 6.899 22.762l-.025 1.492C6.898 24.926 0 35.974 0 35.974l6.167 2.204v6.533c0 3.566 2.927 6.456 6.538 6.456 0 0 24.921-.25 24.921-6.503v-4.863s0-1.39-1.407-2.78l-6.332-6.252V25.21" transform="translate(9 6)"/>
        <path d="M37.213 18.154c0 3.76-3.03 6.808-6.766 6.808-3.737 0-6.766-3.048-6.766-6.808s3.029-6.808 6.766-6.808 6.766 3.048 6.766 6.808zM29.883 11.346L29.883 0" transform="translate(9 6)"/>
    </g>
</svg>
