<svg xmlns="http://www.w3.org/2000/svg" width="48" height="48" viewBox="0 0 48 48">
    <path fill="#DDD" fill-rule="nonzero" d="M24 0c13.255 0 24 10.745 24 24S37.255 48 24 48 0 37.255 0 24 10.745 0 24 0zm0 .8C11.187.8.8 11.187.8 24 .8 36.813 11.187 47.2 24 47.2c12.813 0 23.2-10.387 23.2-23.2C47.2 11.187 36.813.8 24 .8zm.489 30.2l.133.004c.77.057 1.378.705 1.378 1.496 0 .828-.667 1.5-1.489 1.5h-.022A1.494 1.494 0 0 1 23 32.5c0-.828.667-1.5 1.489-1.5zm.011-19c.828 0 1.5.716 1.5 1.6v12.8c0 .884-.672 1.6-1.5 1.6s-1.5-.716-1.5-1.6V13.6c0-.884.672-1.6 1.5-1.6z"/>
</svg>
