<svg xmlns="http://www.w3.org/2000/svg" xmlns:xlink="http://www.w3.org/1999/xlink" width="1175" height="728" viewBox="0 0 1175 728">
    <defs>
        <path id="prefix__a" d="M0 0.004L26 0.004 26 28.004 0 28.004z"/>
        <path id="prefix__c" d="M0 0.004L47 0.004 47 19.004 0 19.004z"/>
        <path id="prefix__e" d="M0 0.004L26 0.004 26 28.004 0 28.004z"/>
        <path id="prefix__g" d="M0 0.004L47 0.004 47 19.004 0 19.004z"/>
        <path id="prefix__i" d="M0 0.004L29 0.004 29 31.867 0 31.867z"/>
        <path id="prefix__k" d="M3.781 13.882L12.404 0 41.723 0 48.453 13.655 53 31.867 0 31.867z"/>
    </defs>
    <g fill="none" fill-rule="evenodd">
        <g transform="translate(1107 218)">
            <rect width="68" height="422" fill="#F7B962" rx="8"/>
            <path fill="#000" fill-rule="nonzero" d="M40.338 121.302v-1.456h-1.61c.238-1.288.238-2.324.238-3.15v-.882h-8.862v1.47h7.042c-.014.714-.056 1.526-.266 2.562h-8.218v1.456h11.676zm-1.078 6.804v-1.428h-7.434v-.868h7.112v-3.626h-8.974v1.428h7.126v.84h-7.112v3.654h9.282zm1.078 18.684v-1.512H35.41v-1.918h3.906v-1.484H31.84v-1.442h7.182v-4.298h-9.03v1.47h7.21v1.386h-7.196v4.368h3.556v1.918h-4.9v1.512h11.676zm-.896 15.086v-6.566h-1.848v2.604h-2.296v-2.072h-1.806v1.484h-2.45v-1.484h-1.834v5.712h6.09v-2.17h2.296v2.492h1.848zm-5.95-1.778h-2.45v-1.372h2.45v1.372zm6.314 7.952v-1.428h-7.028v-.77h6.664v-3.472H30.93v1.428h6.678v.714h-6.65v3.528h8.848zM32.547 207v-4.48h3.92V207h2.058v-10.36h-2.058v4.074h-3.92v-4.074h-2.072V207h2.072zm.525 20v-3.92h1.442l2.128 3.92h2.31l-2.422-4.242c1.19-.462 1.974-1.428 1.974-2.982 0-2.38-1.722-3.136-3.892-3.136H31V227h2.072zm1.344-5.558h-1.344v-3.164h1.344c1.33 0 2.058.378 2.058 1.498 0 1.106-.728 1.666-2.058 1.666zm5.306 46.762V255.31h-1.75v12.894h1.75zm-2.646-.574v-12.11h-1.722v4.144h-1.61v1.498h1.61v6.468h1.722zm-7.546-1.988c1.162-.7 1.918-1.932 2.366-3.36.406 1.302 1.092 2.394 2.184 3.066l1.008-1.428c-1.75-1.162-2.31-3.304-2.31-5.39v-2.1H31v2.17c0 2.198-.686 4.508-2.576 5.656l1.106 1.386zm9.814 22.59V275.31h-1.848v12.922h1.848zm-3.85-3.094v-8.666h-6.202v8.666h6.202zm-1.82-1.456h-2.562v-5.754h2.562v5.754zm5.082 24.494v-6.482h1.806v-1.526h-1.806v-4.872h-1.848v12.88h1.848zm-8.582-3.136c1.876 0 3.948-.112 6.09-.56l-.182-1.512c-1.806.35-3.556.49-5.18.532v-6.972h-1.848v8.512h1.12z"/>
        </g>
        <g transform="translate(727 395)">
            <rect width="126" height="333" fill="#F7B962" rx="8"/>
            <rect width="94" height="30" x="16" y="45" fill="#FFF" rx="4"/>
            <rect width="94" height="30" x="16" y="85" fill="#FFF" rx="4"/>
            <rect width="94" height="30" x="16" y="124" fill="#FFF" rx="4"/>
            <rect width="94" height="30" x="16" y="164" fill="#FFF" rx="4"/>
            <rect width="94" height="30" x="16" y="204" fill="#FFF" rx="4"/>
            <rect width="94" height="30" x="16" y="243" fill="#FFF" rx="4"/>
            <rect width="94" height="30" x="16" y="283" fill="#FFF" rx="4"/>
            <path fill="#222" fill-rule="nonzero" d="M62.216 63.044V54.98h-1.584v2.856h-1.728v1.284h1.728v3.924h1.584zm-8.508-1.212c1.296-.432 2.16-1.308 2.652-2.4.468.996 1.296 1.788 2.508 2.184l.768-1.236c-1.74-.588-2.496-1.944-2.496-3.252v-.144h2.148v-1.26h-5.94v1.26h2.172v.156c0 1.392-.792 2.844-2.604 3.432l.792 1.26zm8.76 4.008v-1.26h-5.952v-2.208h-1.584v3.468h7.536zm10.248-4.14v-1.548h1.452v-1.284h-1.452v-1.08h1.452v-1.284h-1.452V54.98h-1.584v6.72h1.584zm-2.208-.732l-.132-1.272c-1.38.252-2.592.324-4.392.336v-1.044h3.456v-3.396H64.4v1.26h3.48v.96h-3.468v3.492h.948c2.208 0 3.612-.048 5.148-.336zm2.208 5.064v-3.828h-7.368v1.26h5.784v2.568h1.584zM55.608 106.032v-5.58h1.608v-1.308h-1.608v-4.152h-1.584v11.04h1.584zm-3.036-2.688v-7.32h-5.28v7.32h5.28zm-1.56-1.248h-2.16v-4.824h2.16v4.824zM67.5 106.02V94.968H66v11.052h1.5zm-2.328-.48V95.22h-1.476v3.924h-1.14c.228-.9.312-1.884.312-2.928H58.56v1.272h2.784c-.036.444-.096.864-.192 1.26l-3.144.168.18 1.32 2.544-.264c-.516 1.056-1.392 1.968-2.784 2.784l.876 1.104c1.68-.972 2.712-2.136 3.3-3.456h1.572v5.136h1.476zm13.044-3.864V94.98H76.62v6.696h1.596zm-2.364-.78l-.144-1.224c-1.38.204-2.592.252-4.5.264v-.864h3.42v-1.224h-3.42v-.852h3.744v-1.248h-5.316v5.436h.948c2.328 0 3.708-.036 5.268-.288zm-1.368 5.148c2.34 0 3.78-.768 3.78-2.112 0-1.32-1.44-2.1-3.78-2.1s-3.768.78-3.768 2.1c0 1.344 1.428 2.112 3.768 2.112zm0-1.224c-1.428 0-2.196-.276-2.196-.888 0-.6.768-.888 2.196-.888 1.44 0 2.196.288 2.196.888 0 .612-.756.888-2.196.888zM62.54 145.02v-11.052h-1.5v4.236h-.9v-4.056h-1.476v7.152c-1.632-.852-2.184-2.688-2.184-4.62v-.3h1.656v-1.284h-5.004v1.284h1.812v.3c0 2.124-.528 4.08-2.172 5.04l.948 1.2c1.032-.612 1.68-1.656 2.04-2.928.396 1.104 1.032 1.992 2.016 2.52l.888-1.188v3.204h1.476V139.5h.9v5.52h1.5zm10.284-6.036v-4.464h-7.656v4.464h7.656zm-1.548-1.248h-4.548v-1.968h4.548v1.968zm-1.5 7.296v-3.612h4.248v-1.26H64.016v1.26h4.176v3.612h1.584zM57.234 184v-3.84h3.36V184h1.764v-8.88h-1.764v3.492h-3.36v-3.492h-1.776V184h1.776zm9.084 0v-3.36h1.236l1.824 3.36h1.98l-2.076-3.636c1.02-.396 1.692-1.224 1.692-2.556 0-2.04-1.476-2.688-3.336-2.688h-3.096V184h1.776zm1.152-4.764h-1.152v-2.712h1.152c1.14 0 1.764.324 1.764 1.284 0 .948-.624 1.428-1.764 1.428zM58.724 225.032v-4.44h4.248v-1.272H61.52c.276-1.548.276-2.676.276-3.708v-.996h-7.668v1.272h6.12c0 .948-.024 2.028-.3 3.432h-6.96v1.272h4.128v4.44h1.608zm14.772-.012v-11.052h-1.5v4.224h-.924v-4.044h-1.476v10.38h1.476v-5.064h.924v5.556h1.5zm-4.812-2.748v-7.164h-4.356v7.164h4.356zm-1.464-1.236h-1.416v-4.68h1.416v4.68zM62.216 259.04v-6.06h-1.584v2.52h-1.968v-1.956h-1.548v1.392h-2.1v-1.392h-1.572v5.172h5.22v-1.944h1.968v2.268h1.584zm-5.1-1.584h-2.1v-1.308h2.1v1.308zm5.1 6.432v-4.38h-1.572v.984h-4.188v-.984h-1.56v4.38h7.32zm-1.572-1.248h-4.188v-.936h4.188v.936zm12.18-4.656v-4.464h-7.656v4.464h7.656zm-1.548-1.248h-4.548v-1.968h4.548v1.968zm-1.5 7.296v-3.612h4.248v-1.26H64.016v1.26h4.176v3.612h1.584zM33.27 303v-8.88h-1.776V303h1.776zm3.96 0v-3.156h1.188c1.908 0 3.432-.912 3.432-2.94 0-2.1-1.512-2.784-3.48-2.784h-2.916V303h1.776zm1.068-4.56H37.23v-2.916h1.008c1.224 0 1.872.348 1.872 1.38 0 1.02-.588 1.536-1.812 1.536zm6.876 6.984l1.104-.468c-1.008-1.752-1.464-3.768-1.464-5.748 0-1.956.456-3.984 1.464-5.736l-1.104-.468c-1.128 1.848-1.788 3.816-1.788 6.204 0 2.412.66 4.356 1.788 6.216zm11.4-1.392V292.98H54.99v11.052h1.584zm-8.34-2.076c1.296-.588 2.184-1.8 2.676-3.24.492 1.332 1.368 2.412 2.652 2.964l.864-1.248c-1.848-.768-2.736-2.676-2.736-4.476v-.612h2.28v-1.308h-6.192v1.308h2.304v.612c0 1.884-.9 3.912-2.748 4.74l.9 1.26zm19.404-2.388v-6.588h-1.596v6.588h1.596zm-8.448-.348c1.296-.42 2.184-1.284 2.688-2.352.492.996 1.344 1.776 2.58 2.172l.768-1.248c-1.788-.552-2.568-1.872-2.568-3.252v-1.056H61.05v1.056c0 1.404-.792 2.844-2.64 3.432l.78 1.248zm8.448 4.824v-3.996h-7.536v1.272h5.94v2.724h1.596zm11.424-.024v-11.052h-1.5v4.236h-.9v-4.056h-1.476v7.152c-1.632-.852-2.184-2.688-2.184-4.62v-.3h1.656v-1.284h-5.004v1.284h1.812v.3c0 2.124-.528 4.08-2.172 5.04l.948 1.2c1.032-.612 1.68-1.656 2.04-2.928.396 1.104 1.032 1.992 2.016 2.52l.888-1.188v3.204h1.476V298.5h.9v5.52h1.5zm10.176-2.952v-3.576h1.464v-1.308h-1.464v-3.204h-1.584v8.088h1.584zm-8.028-1.404c1.26-.42 2.136-1.284 2.628-2.388.48.996 1.296 1.788 2.496 2.184l.816-1.236c-1.788-.576-2.532-1.968-2.532-3.372v-1.2H83.01v1.188c0 1.512-.78 2.988-2.64 3.588l.84 1.236zm8.412 4.176v-1.26h-5.916v-2.28h-1.584v3.54h7.5zm3.156 1.584c1.14-1.86 1.8-3.804 1.8-6.216 0-2.388-.66-4.356-1.8-6.204l-1.092.468c1.008 1.752 1.464 3.78 1.464 5.736 0 1.98-.456 3.996-1.464 5.748l1.092.468z"/>
            <path fill="#000" fill-rule="nonzero" d="M34.679 29v-4.2h3.682v-1.736h-3.682v-2.702h4.312V18.64h-6.384V29h2.072zm8.274.196c1.078 0 1.834-.518 2.506-1.316h.056l.154 1.12h1.68v-7.84h-2.058v5.292c-.532.7-.952.98-1.596.98-.756 0-1.092-.42-1.092-1.638V21.16h-2.058v4.9c0 1.96.728 3.136 2.408 3.136zM51.591 29v-5.39c.588-.574.994-.882 1.638-.882.77 0 1.106.434 1.106 1.638V29h2.058v-4.886c0-1.974-.728-3.15-2.422-3.15-1.064 0-1.862.56-2.548 1.232h-.056l-.14-1.036h-1.68V29h2.044zm10.262.196c.868 0 1.82-.294 2.562-.952l-.812-1.358c-.434.364-.966.63-1.526.63-1.134 0-1.946-.952-1.946-2.422 0-1.484.812-2.45 2.002-2.45.448 0 .812.182 1.204.518l.98-1.33c-.574-.49-1.316-.868-2.282-.868-2.128 0-4.004 1.512-4.004 4.13 0 2.59 1.652 4.102 3.822 4.102zm6.916 0c.686 0 1.232-.154 1.652-.294l-.336-1.498c-.21.084-.518.168-.77.168-.7 0-1.064-.42-1.064-1.316v-3.472h1.932V21.16h-1.932v-2.1h-1.722l-.238 2.1-1.204.098v1.526h1.106v3.472c0 1.764.714 2.94 2.576 2.94zm4.046-9.296c.7 0 1.218-.476 1.218-1.12 0-.672-.518-1.12-1.218-1.12-.714 0-1.232.448-1.232 1.12 0 .644.518 1.12 1.232 1.12zm1.008 9.1v-7.84h-2.044V29h2.044zm5.488.196c1.96 0 3.766-1.512 3.766-4.102 0-2.618-1.806-4.13-3.766-4.13s-3.766 1.512-3.766 4.13c0 2.59 1.806 4.102 3.766 4.102zm0-1.68c-1.064 0-1.666-.952-1.666-2.422 0-1.484.602-2.45 1.666-2.45s1.666.966 1.666 2.45c0 1.47-.602 2.422-1.666 2.422zM86.843 29v-5.39c.588-.574.994-.882 1.638-.882.77 0 1.106.434 1.106 1.638V29h2.058v-4.886c0-1.974-.728-3.15-2.422-3.15-1.064 0-1.862.56-2.548 1.232h-.056l-.14-1.036h-1.68V29h2.044z"/>
        </g>
        <g transform="translate(873 395)">
            <rect width="126" height="333" fill="#F7B962" rx="8"/>
            <rect width="94" height="60" x="16" y="45" fill="#FFF" rx="4"/>
            <rect width="94" height="60" x="16" y="115" fill="#FFF" rx="4"/>
            <rect width="94" height="58" x="16" y="185" fill="#FFF" rx="4"/>
            <rect width="94" height="60" x="16" y="253" fill="#FFF" rx="4"/>
            <path fill="#222" fill-rule="nonzero" d="M52.784 80v-3.708c0-.84-.144-2.076-.228-2.916h.048l.708 2.088 1.38 3.732h1.02l1.368-3.732.72-2.088h.048c-.084.84-.216 2.076-.216 2.916V80h1.62v-8.88h-1.968l-1.476 4.152c-.192.552-.348 1.14-.54 1.716h-.06c-.18-.576-.348-1.164-.54-1.716l-1.512-4.152h-1.968V80h1.596zm15.756.168l.432-1.44c-.456-.084-.996-.312-1.572-.636.684-.924 1.176-1.956 1.5-3.048h-1.596c-.24.876-.624 1.632-1.092 2.256-.708-.54-1.392-1.188-1.92-1.848.948-.66 1.908-1.392 1.908-2.568 0-1.164-.804-1.932-2.064-1.932-1.428 0-2.328 1.02-2.328 2.256 0 .588.204 1.248.564 1.92-.888.564-1.668 1.284-1.668 2.52 0 1.38 1.044 2.52 2.904 2.52 1.092 0 1.992-.36 2.724-.936.744.468 1.512.78 2.208.936zm-4.944-5.772c-.204-.42-.324-.816-.324-1.188 0-.66.372-1.08.888-1.08.468 0 .672.324.672.768 0 .648-.54 1.08-1.236 1.5zm.228 4.416c-.852 0-1.44-.516-1.44-1.272 0-.48.3-.876.732-1.248.564.744 1.248 1.452 2.004 2.076-.42.276-.864.444-1.296.444zM70.964 80l.624-2.28h2.88l.624 2.28h1.86l-2.856-8.88h-2.088L69.164 80h1.8zm3.12-3.66h-2.112l.264-.972c.264-.924.528-1.932.756-2.904h.048c.264.96.504 1.98.78 2.904l.264.972zM50.588 151.032v-5.484h1.608v-1.32h-1.608v-4.248h-1.584v11.052h1.584zm-7.932-2.268c1.248-.612 2.076-1.776 2.556-3.18.456 1.32 1.236 2.388 2.388 2.976l.96-1.248c-1.776-.876-2.556-2.88-2.556-4.872v-1.608h-1.596v1.608c0 2.052-.84 4.164-2.7 5.04l.948 1.284zm19.56-2.844v-5.94h-1.584v2.436h-1.764c-.312-1.176-1.44-1.98-2.844-1.98-1.656 0-2.904 1.104-2.904 2.64s1.248 2.64 2.904 2.64c1.428 0 2.556-.816 2.856-2.016h1.752v2.22h1.584zm-6.192-1.524c-.804 0-1.392-.492-1.392-1.32 0-.828.588-1.32 1.392-1.32.816 0 1.404.492 1.404 1.32 0 .828-.588 1.32-1.404 1.32zm6.192 6.504v-4.5h-1.572v1.056h-4.176V146.4h-1.572v4.5h7.32zm-1.572-1.248h-4.176v-.996h4.176v.996zm12.84 1.38V139.98h-1.512v4.164h-.984v-3.876h-1.476v10.296h1.476v-5.148h.984v5.616h1.512zm-8.688-2.256c3.084-1.8 3.996-4.332 3.996-7.428h-4.356v1.26h2.796c-.204 2.172-1.14 3.768-3.36 5.064l.924 1.104zm18.96-3.18V143.4h1.452v-1.284h-1.452v-2.136h-1.584v5.616h1.584zm-3.084-.288v-4.848h-1.56v1.32H76.94v-1.32h-1.56v4.848h5.292zm-1.56-1.236H76.94v-1.104h2.172v1.104zm4.956 6.876v-1.224h-6.024v-.696h5.712v-3H76.46v1.2h5.736v.672h-5.724v3.048h7.596zM59.072 211.164v-1.248h-2.16v-1.02h-1.584v1.02h-2.316v1.248h6.06zm3.144 4.404v-6.588h-1.584v2.352h-1.416v1.26h1.416v.924h-1.44v1.26h1.44v.792h1.584zm-6.096-.06c1.512 0 2.58-.816 2.58-2.016 0-1.188-1.068-2.004-2.58-2.004-1.524 0-2.592.816-2.592 2.004 0 1.2 1.068 2.016 2.592 2.016zm0-1.164c-.672 0-1.116-.288-1.116-.852 0-.552.444-.84 1.116-.84.66 0 1.116.288 1.116.84 0 .564-.456.852-1.116.852zm6.096 5.556v-3.924h-1.56v.804h-4.272v-.804h-1.56v3.924h7.392zm-1.56-1.212h-4.272v-.744h4.272v.744zm12.06-3.168v-2.664h1.464v-1.308h-1.464v-2.556h-1.584v6.528h1.584zm-8.04-.108c1.26-.432 2.112-1.284 2.592-2.376.468.936 1.272 1.68 2.436 2.064l.828-1.224c-1.74-.54-2.484-1.836-2.484-3.168v-1.128H66.44v.996c0 1.5-.744 2.976-2.592 3.588l.828 1.248zm4.428 4.62c2.292 0 3.732-.792 3.732-2.136 0-1.332-1.44-2.124-3.732-2.124-2.304 0-3.744.792-3.744 2.124 0 1.344 1.44 2.136 3.744 2.136zm0-1.224c-1.416 0-2.172-.288-2.172-.912 0-.612.756-.9 2.172-.9 1.404 0 2.16.288 2.16.9 0 .624-.756.912-2.16.912zM29.564 288c1.956 0 3.444-.828 3.444-2.616 0-1.2-.708-1.872-1.668-2.1v-.06c.756-.264 1.212-1.104 1.212-1.92 0-1.656-1.392-2.184-3.216-2.184h-2.94V288h3.168zm-.36-5.268h-1.032v-2.256h1.056c1.068 0 1.596.312 1.596 1.092 0 .708-.492 1.164-1.62 1.164zm.204 3.9h-1.236v-2.58h1.236c1.224 0 1.872.36 1.872 1.224 0 .924-.66 1.356-1.872 1.356zm5.904-6.432c.6 0 1.044-.408 1.044-.96 0-.576-.444-.96-1.044-.96-.612 0-1.056.384-1.056.96 0 .552.444.96 1.056.96zm.864 7.8v-6.72h-1.752V288h1.752zm6.744 0v-1.392h-3.108l3.012-4.38v-.948h-4.872v1.392h2.664l-3 4.38V288h5.304zm2.28.168c.636 0 1.104-.504 1.104-1.152 0-.648-.468-1.152-1.104-1.152-.624 0-1.092.504-1.092 1.152 0 .648.468 1.152 1.092 1.152zm9.396 0c1.152 0 2.1-.456 2.832-1.308l-.936-1.104c-.48.516-1.08.876-1.836.876-1.404 0-2.316-1.164-2.316-3.096 0-1.908 1.008-3.06 2.352-3.06.672 0 1.188.312 1.632.744l.936-1.128c-.576-.6-1.476-1.14-2.604-1.14-2.244 0-4.128 1.716-4.128 4.644 0 2.964 1.824 4.572 4.068 4.572zm6.924 0c1.68 0 3.228-1.296 3.228-3.516 0-2.244-1.548-3.54-3.228-3.54-1.68 0-3.228 1.296-3.228 3.54 0 2.22 1.548 3.516 3.228 3.516zm0-1.44c-.912 0-1.428-.816-1.428-2.076 0-1.272.516-2.1 1.428-2.1.912 0 1.428.828 1.428 2.1 0 1.26-.516 2.076-1.428 2.076zM67.976 288v-4.62c.504-.492.852-.756 1.404-.756.66 0 .948.372.948 1.404V288h1.764v-4.188c0-1.692-.624-2.7-2.076-2.7-.912 0-1.596.48-2.184 1.056h-.048l-.12-.888h-1.44V288h1.752zm8.4.168c.588 0 1.056-.132 1.416-.252l-.288-1.284c-.18.072-.444.144-.66.144-.6 0-.912-.36-.912-1.128v-2.976h1.656v-1.392h-1.656v-1.8h-1.476l-.204 1.8-1.032.084v1.308h.948v2.976c0 1.512.612 2.52 2.208 2.52zm4.332-.168v-4.008c.384-.972 1.02-1.32 1.548-1.32.276 0 .468.036.696.108l.312-1.524c-.204-.084-.42-.144-.792-.144-.696 0-1.416.48-1.908 1.356h-.048l-.12-1.188h-1.44V288h1.752zm5.136.168c.768 0 1.44-.384 2.028-.888h.036l.132.72h1.44v-3.924c0-1.944-.876-2.964-2.58-2.964-1.056 0-2.016.396-2.808.888l.636 1.164c.624-.36 1.224-.636 1.848-.636.828 0 1.116.504 1.14 1.164-2.7.288-3.864 1.044-3.864 2.484 0 1.14.792 1.992 1.992 1.992zm.576-1.38c-.516 0-.888-.228-.888-.756 0-.6.552-1.044 2.184-1.26v1.356c-.42.42-.792.66-1.296.66zm7.716 1.38c.744 0 1.56-.252 2.196-.816l-.696-1.164c-.372.312-.828.54-1.308.54-.972 0-1.668-.816-1.668-2.076 0-1.272.696-2.1 1.716-2.1.384 0 .696.156 1.032.444l.84-1.14c-.492-.42-1.128-.744-1.956-.744-1.824 0-3.432 1.296-3.432 3.54 0 2.22 1.416 3.516 3.276 3.516zm5.928 0c.588 0 1.056-.132 1.416-.252l-.288-1.284c-.18.072-.444.144-.66.144-.6 0-.912-.36-.912-1.128v-2.976h1.656v-1.392H99.62v-1.8h-1.476l-.204 1.8-1.032.084v1.308h.948v2.976c0 1.512.612 2.52 2.208 2.52z"/>
            <path fill="#000" fill-rule="nonzero" d="M42.343 29c2.282 0 4.018-.966 4.018-3.052 0-1.4-.826-2.184-1.946-2.45v-.07c.882-.308 1.414-1.288 1.414-2.24 0-1.932-1.624-2.548-3.752-2.548h-3.43V29h3.696zm-.42-6.146h-1.204v-2.632h1.232c1.246 0 1.862.364 1.862 1.274 0 .826-.574 1.358-1.89 1.358zm.238 4.55h-1.442v-3.01h1.442c1.428 0 2.184.42 2.184 1.428 0 1.078-.77 1.582-2.184 1.582zm6.888-7.504c.7 0 1.218-.476 1.218-1.12 0-.672-.518-1.12-1.218-1.12-.714 0-1.232.448-1.232 1.12 0 .644.518 1.12 1.232 1.12zm1.008 9.1v-7.84h-2.044V29h2.044zm7.868 0v-1.624h-3.626l3.514-5.11V21.16h-5.684v1.624h3.108l-3.5 5.11V29h6.188zm2.66.196c.742 0 1.288-.588 1.288-1.344 0-.756-.546-1.344-1.288-1.344-.728 0-1.274.588-1.274 1.344 0 .756.546 1.344 1.274 1.344zm13.664-2.478V17.31h-1.848v3.332h-2.016v1.498h2.016v4.578h1.848zm-9.926-1.414c1.512-.504 2.52-1.526 3.094-2.8.546 1.162 1.512 2.086 2.926 2.548l.896-1.442c-2.03-.686-2.912-2.268-2.912-3.794v-.168h2.506v-1.47h-6.93v1.47h2.534v.182c0 1.624-.924 3.318-3.038 4.004l.924 1.47zm10.22 4.676v-1.47h-6.944v-2.576h-1.848v4.046h8.792zm11.984-7.322v-4.802h-8.75v4.802h8.75zm-1.82-1.456h-5.11v-1.904h5.11v1.904zm-1.442 6.132v-2.198h4.746V23.68H76.335v1.456h5.082v2.198h1.848zm3.458 2.646v-1.47h-7.182v-2.268h-1.848v3.738h9.03z"/>
        </g>
        <g transform="translate(1019 395)">
            <rect width="68" height="333" fill="#F7B962" rx="8"/>
            <path fill="#000" fill-rule="nonzero" d="M32.547 112v-4.48h3.92V112h2.058v-10.36h-2.058v4.074h-3.92v-4.074h-2.072V112h2.072zm.525 20v-3.92h1.442l2.128 3.92h2.31l-2.422-4.242c1.19-.462 1.974-1.428 1.974-2.982 0-2.38-1.722-3.136-3.892-3.136H31V132h2.072zm1.344-5.558h-1.344v-3.164h1.344c1.33 0 2.058.378 2.058 1.498 0 1.106-.728 1.666-2.058 1.666zm5.026 43.388v-9.52h-1.848v3.906h-2.268v1.498h2.268v4.116h1.848zm-9.87-1.078c4.312-1.414 5.838-3.836 5.838-7.462h-5.88v1.47h3.934c-.028.364-.112.714-.21 1.05l-4.368.154.252 1.442 3.402-.266c-.714.868-1.876 1.596-3.682 2.156l.714 1.456zm10.206 4.228v-1.47h-6.902v-2.604h-1.848v4.074h8.75zm-.294 20.238V180.31h-1.848v4.676h-1.918v1.498h1.918v6.734h1.848zm-2.982-3.43l-.112-1.344c-.49.056-1.008.112-1.526.14v-5.67h1.204v-1.47h-7.112v1.47h1.064v5.88h-1.414l.196 1.498c2.198 0 5.124-.056 7.7-.504zm-4.69-1.036v-5.838h1.274v5.782c-.434.028-.854.042-1.274.056zm7.63 21.05v-9.492h-1.848v3.094h-2.002v1.554h2.002v4.844h1.848zm-3.472-1.974l-.14-1.47c-1.54.238-2.87.294-4.844.308v-1.372h3.962v-4.13h-5.81v1.47h3.99v1.274h-3.976v4.242h1.064c2.436 0 4.004-.042 5.754-.322zm3.794 5.152v-1.47h-7.042v-2.464h-1.848v3.934h8.89zm-.616 14.946l.784-1.54c-2.912-.504-4.508-2.506-4.508-4.396v-.924H33.45v.924c0 1.848-1.61 3.892-4.508 4.396l.784 1.54c2.24-.434 3.878-1.694 4.704-3.332.826 1.638 2.478 2.884 4.718 3.332zm1.19 3.71v-1.498H28.662v1.498h11.676z"/>
        </g>
        <g transform="translate(431 262)">
            <rect width="188" height="68" fill="#F6975E" rx="8"/>
            <rect width="188" height="68" y="133" fill="#F6975E" rx="8"/>
            <rect width="188" height="68" y="310" fill="#F6975E" rx="8"/>
            <rect width="68" height="245" x="208" y="133" fill="#F6975E" rx="8"/>
            <path fill="#000" fill-rule="nonzero" d="M89.271 40v-1.736h-4.438v-2.772h3.64v-1.736h-3.64v-2.394h4.284V29.64h-6.356V40h6.51zm8.372 0v-1.736h-4.2V29.64h-2.072V40h6.272zm3.878 0v-3.682h1.386c2.226 0 4.004-1.064 4.004-3.43 0-2.45-1.764-3.248-4.06-3.248h-3.402V40h2.072zm1.246-5.32h-1.246v-3.402h1.176c1.428 0 2.184.406 2.184 1.61 0 1.19-.686 1.792-2.114 1.792zM83.839 173v-4.48h3.92V173h2.058v-10.36h-2.058v4.074h-3.92v-4.074h-2.072V173h2.072zm14.798 0v-1.736h-4.2v-8.624h-2.072V173h6.272zm3.878 0v-3.682h1.386c2.226 0 4.004-1.064 4.004-3.43 0-2.45-1.764-3.248-4.06-3.248h-3.402V173h2.072zm1.246-5.32h-1.246v-3.402h1.176c1.428 0 2.184.406 2.184 1.61 0 1.19-.686 1.792-2.114 1.792zM79.664 351.232v-12.936h-1.848v2.646h-2.744c-.574-1.106-1.54-1.736-2.702-1.736-1.918 0-3.332 1.764-3.332 4.592 0 2.842 1.414 4.62 3.332 4.62 1.246.014 2.24-.714 2.814-1.974h2.632v4.788h1.848zm-7.294-4.494c-.938 0-1.582-1.022-1.582-2.94 0-1.904.644-2.926 1.582-2.926.952 0 1.596 1.022 1.596 2.926 0 1.918-.644 2.94-1.596 2.94zm5.446-1.792h-2.198c.056-.35.084-.742.084-1.148 0-.49-.042-.952-.126-1.372h2.24v2.52zm14.686.924v-7.56h-1.848v2.352h-2.352v1.498h2.352v3.71h1.848zm-9.926-.028c1.526-.518 2.548-1.554 3.122-2.87.546 1.148 1.456 2.03 2.814 2.492l.966-1.456c-2.044-.658-2.884-2.226-2.884-3.962v-1.064h-1.876v1.148c0 1.778-.91 3.528-3.108 4.228l.966 1.484zm5.572 5.362c2.73 0 4.41-.924 4.41-2.492 0-1.596-1.68-2.52-4.41-2.52-2.744 0-4.424.924-4.424 2.52 0 1.568 1.68 2.492 4.424 2.492zm0-1.414c-1.694 0-2.576-.35-2.576-1.078 0-.742.882-1.092 2.576-1.092 1.68 0 2.562.35 2.562 1.092 0 .728-.882 1.078-2.562 1.078zm17.178 1.442v-12.936h-1.848v12.936h1.848zm-8.876-2.996c2.338 0 4.228-.084 6.328-.448l-.196-1.498c-1.82.308-3.444.406-5.404.42v-2.324h4.186v-4.984h-6.09v1.47h4.2v2.058h-4.186v5.306h1.162zm21.854 3.01V338.31h-1.848v4.452h-3.15v1.484h3.15v7h1.848zm-3.542-3.5l-.182-1.498c-1.47.252-2.8.35-4.648.364v-5.684h3.99v-1.47h-5.838v8.666h1.05c2.352 0 3.892-.056 5.628-.378z"/>
            <path fill="#666" fill-rule="nonzero" d="M3.744 396.348l.528-.384-.768-1.248 1.308-.54-.204-.612-1.368.324-.12-1.44h-.648l-.12 1.452-1.368-.336-.216.612 1.308.54-.756 1.248.528.384.948-1.14.948 1.14zM11.812 402v-.948H7.72v-3.204h3.336v-.948H7.72v-2.76h3.96v-.936H6.604V402h5.208zm6.604 0v-.948h-3.84v-7.848H13.46V402h4.956zm2.464 0v-3.492h1.452c1.92 0 3.24-.864 3.24-2.724 0-1.92-1.32-2.58-3.3-2.58h-2.508V402h1.116zm1.308-4.392H20.88v-3.504h1.26c1.548 0 2.328.408 2.328 1.68 0 1.26-.732 1.824-2.28 1.824zm7.916-.288c.432 0 .792-.348.792-.828 0-.504-.36-.852-.792-.852-.432 0-.792.348-.792.852 0 .48.36.828.792.828zm0 4.836c.432 0 .792-.336.792-.828 0-.492-.36-.852-.792-.852-.432 0-.792.36-.792.852s.36.828.792.828zM40.468 402v-.948h-4.092v-3.204h3.336v-.948h-3.336v-2.76h3.96v-.936H35.26V402h5.208zm1.372 0l.876-1.524c.228-.396.444-.792.672-1.164h.06c.24.372.48.768.696 1.164l.96 1.524h1.2l-2.148-3.288 1.98-3.228h-1.14l-.804 1.44c-.192.36-.384.72-.588 1.08h-.048l-.437-.72c-.072-.12-.143-.24-.211-.36l-.876-1.44h-1.176l1.98 3.12L40.688 402h1.152zm7.948.156c.888 0 1.584-.3 2.16-.672l-.396-.72c-.48.324-.996.516-1.632.516-1.236 0-2.088-.888-2.16-2.28h4.392c.024-.156.048-.384.048-.624 0-1.86-.936-3.06-2.592-3.06-1.512 0-2.94 1.32-2.94 3.432 0 2.148 1.392 3.408 3.12 3.408zm1.452-3.936h-3.492c.132-1.284.948-2.028 1.872-2.028 1.02 0 1.62.708 1.62 2.028zm4.936 3.936c.78 0 1.524-.3 2.1-.828l-.468-.732c-.408.372-.936.648-1.536.648-1.2 0-2.016-.996-2.016-2.496s.864-2.52 2.04-2.52c.528 0 .924.24 1.308.588l.564-.732c-.468-.408-1.056-.768-1.908-.768-1.668 0-3.144 1.26-3.144 3.432 0 2.16 1.332 3.408 3.06 3.408zm5.236 0c.9 0 1.548-.468 2.16-1.176h.036l.084 1.02h.912v-6.516h-1.092v4.62c-.624.78-1.092 1.104-1.764 1.104-.864 0-1.224-.516-1.224-1.728v-3.996h-1.092v4.128c0 1.656.612 2.544 1.98 2.544zm7.24 0c.396 0 .828-.12 1.2-.24l-.216-.816c-.216.084-.516.168-.744.168-.756 0-1.008-.456-1.008-1.26v-3.636h1.764v-.888h-1.764v-1.824h-.912l-.132 1.824-1.02.06v.828h.972v3.612c0 1.308.468 2.172 1.86 2.172zm2.824-8.016c.432 0 .756-.3.756-.708 0-.444-.324-.708-.756-.708s-.756.264-.756.708c0 .408.324.708.756.708zm.54 7.86v-6.516h-1.092V402h1.092zm4.684 0l2.316-6.516h-1.08l-1.236 3.708c-.192.636-.408 1.308-.6 1.92h-.048c-.204-.612-.408-1.284-.612-1.92l-1.224-3.708h-1.14L75.428 402H76.7zm5.956.156c.888 0 1.584-.3 2.16-.672l-.396-.72c-.48.324-.996.516-1.632.516-1.236 0-2.088-.888-2.16-2.28h4.392c.024-.156.048-.384.048-.624 0-1.86-.936-3.06-2.592-3.06-1.512 0-2.94 1.32-2.94 3.432 0 2.148 1.392 3.408 3.12 3.408zm1.452-3.936h-3.492c.132-1.284.948-2.028 1.872-2.028 1.02 0 1.62.708 1.62 2.028zm9.908 3.78v-.948h-3.84v-7.848H89.06V402h4.956zm3.724.156c.888 0 1.584-.3 2.16-.672l-.396-.72c-.48.324-.996.516-1.632.516-1.236 0-2.088-.888-2.16-2.28h4.392c.024-.156.048-.384.048-.624 0-1.86-.936-3.06-2.592-3.06-1.512 0-2.94 1.32-2.94 3.432 0 2.148 1.392 3.408 3.12 3.408zm1.452-3.936H95.7c.132-1.284.948-2.028 1.872-2.028 1.02 0 1.62.708 1.62 2.028zm3.676 3.936c.804 0 1.536-.42 2.16-.936h.036l.096.78h.9v-4.008c0-1.608-.672-2.676-2.256-2.676-1.044 0-1.968.468-2.568.852l.432.756c.516-.348 1.2-.696 1.956-.696 1.068 0 1.344.804 1.344 1.644-2.772.312-4.008 1.02-4.008 2.436 0 1.176.816 1.848 1.908 1.848zm.312-.876c-.648 0-1.152-.3-1.152-1.044 0-.84.744-1.38 2.94-1.644v1.824c-.636.564-1.152.864-1.788.864zm6.976.876c.78 0 1.464-.42 1.98-.924h.024l.108.768h.888v-9.552h-1.092v2.508l.06 1.128c-.576-.48-1.068-.768-1.836-.768-1.488 0-2.82 1.32-2.82 3.432 0 2.172 1.056 3.408 2.688 3.408zm.24-.912c-1.152 0-1.8-.936-1.8-2.508 0-1.488.828-2.496 1.884-2.496.54 0 1.032.192 1.584.684v3.42c-.54.6-1.068.9-1.668.9zm7.408.912c.888 0 1.584-.3 2.16-.672l-.396-.72c-.48.324-.996.516-1.632.516-1.236 0-2.088-.888-2.16-2.28h4.392c.024-.156.048-.384.048-.624 0-1.86-.936-3.06-2.592-3.06-1.512 0-2.94 1.32-2.94 3.432 0 2.148 1.392 3.408 3.12 3.408zm1.452-3.936h-3.492c.132-1.284.948-2.028 1.872-2.028 1.02 0 1.62.708 1.62 2.028zm3.46 3.78v-4.188c.432-1.116 1.104-1.5 1.644-1.5.264 0 .42.024.636.108l.204-.96c-.204-.108-.408-.144-.696-.144-.732 0-1.392.528-1.848 1.356h-.036l-.096-1.188h-.9V402h1.092zm5.02.156c1.536 0 2.376-.876 2.376-1.932 0-1.236-1.044-1.62-1.992-1.98-.732-.276-1.44-.504-1.44-1.128 0-.504.372-.936 1.188-.936.588 0 1.044.24 1.5.576l.528-.708c-.516-.396-1.224-.732-2.028-.732-1.416 0-2.244.816-2.244 1.848 0 1.104 1.032 1.548 1.944 1.884l.27.105c.63.252 1.218.553 1.218 1.131 0 .564-.42 1.02-1.284 1.02-.78 0-1.368-.312-1.932-.768l-.54.72c.624.516 1.512.9 2.436.9zm4.804-.156v-4.728c.66-.66 1.116-.996 1.788-.996.864 0 1.236.516 1.236 1.74V402h1.092v-4.128c0-1.668-.624-2.556-1.992-2.556-.888 0-1.56.492-2.16 1.092l.036-1.344v-2.616h-1.092V402h1.092zm6.544-7.86c.432 0 .756-.3.756-.708 0-.444-.324-.708-.756-.708s-.756.264-.756.708c0 .408.324.708.756.708zm.54 7.86v-6.516h-1.092V402h1.092zm3.1 2.748v-2.208l-.024-1.14c.588.48 1.212.756 1.8.756 1.5 0 2.832-1.284 2.832-3.516 0-2.004-.912-3.324-2.592-3.324-.756 0-1.488.432-2.076.912h-.036l-.096-.744h-.9v9.264h1.092zm1.596-3.504c-.432 0-1.008-.18-1.596-.684v-3.42c.636-.588 1.2-.9 1.752-.9 1.236 0 1.716.972 1.716 2.412 0 1.62-.792 2.592-1.872 2.592zm8.252.756v-3.492h1.452c1.92 0 3.24-.864 3.24-2.724 0-1.92-1.32-2.58-3.3-2.58h-2.508V402h1.116zm1.308-4.392h-1.308v-3.504h1.26c1.548 0 2.328.408 2.328 1.68 0 1.26-.732 1.824-2.28 1.824zm5.956 4.392v-4.188c.432-1.116 1.104-1.5 1.644-1.5.264 0 .42.024.636.108l.204-.96c-.204-.108-.408-.144-.696-.144-.732 0-1.392.528-1.848 1.356h-.036l-.096-1.188h-.9V402h1.092zm5.764.156c1.596 0 3.024-1.248 3.024-3.408 0-2.172-1.428-3.432-3.024-3.432s-3.024 1.26-3.024 3.432c0 2.16 1.428 3.408 3.024 3.408zm0-.912c-1.128 0-1.884-.996-1.884-2.496s.756-2.52 1.884-2.52 1.896 1.02 1.896 2.52-.768 2.496-1.896 2.496zm6.736 3.756c2.016 0 3.288-1.044 3.288-2.256 0-1.068-.756-1.548-2.268-1.548h-1.272c-.876 0-1.14-.288-1.14-.708 0-.36.18-.576.42-.78.288.144.648.228.972.228 1.32 0 2.376-.876 2.376-2.268 0-.564-.216-1.044-.528-1.344h1.332v-.84h-2.268c-.228-.084-.552-.168-.912-.168-1.32 0-2.448.9-2.448 2.328 0 .78.42 1.404.852 1.752v.048c-.336.24-.732.672-.732 1.212 0 .516.252.864.6 1.068v.048c-.612.396-.972.924-.972 1.476 0 1.128 1.104 1.752 2.7 1.752zm0-5.808c-.756 0-1.392-.6-1.392-1.548 0-.96.624-1.524 1.392-1.524.768 0 1.38.576 1.38 1.524 0 .948-.636 1.548-1.38 1.548zm.156 5.064c-1.188 0-1.896-.456-1.896-1.152 0-.384.204-.768.672-1.104.288.072.6.108.84.108h1.128c.864 0 1.332.204 1.332.804 0 .684-.828 1.344-2.076 1.344zm5.296-2.256v-4.188c.432-1.116 1.104-1.5 1.644-1.5.264 0 .42.024.636.108l.204-.96c-.204-.108-.408-.144-.696-.144-.732 0-1.392.528-1.848 1.356h-.036l-.096-1.188h-.9V402h1.092zm4.54.156c.804 0 1.536-.42 2.16-.936h.036l.096.78h.9v-4.008c0-1.608-.672-2.676-2.256-2.676-1.044 0-1.968.468-2.568.852l.432.756c.516-.348 1.2-.696 1.956-.696 1.068 0 1.344.804 1.344 1.644-2.772.312-4.008 1.02-4.008 2.436 0 1.176.816 1.848 1.908 1.848zm.312-.876c-.648 0-1.152-.3-1.152-1.044 0-.84.744-1.38 2.94-1.644v1.824c-.636.564-1.152.864-1.788.864zm5.848.72v-4.728c.6-.672 1.152-.996 1.644-.996.828 0 1.212.516 1.212 1.74V402h1.092v-4.728c.612-.672 1.14-.996 1.644-.996.828 0 1.212.516 1.212 1.74V402h1.092v-4.128c0-1.668-.636-2.556-1.98-2.556-.792 0-1.476.516-2.148 1.248-.264-.768-.804-1.248-1.8-1.248-.78 0-1.464.492-2.028 1.116h-.036l-.096-.948h-.9V402h1.092zM3.744 414.348l.528-.384-.768-1.248 1.308-.54-.204-.612-1.368.324-.12-1.44h-.648l-.12 1.452-1.368-.336-.216.612 1.308.54-.756 1.248.528.384.948-1.14.948 1.14zM7.72 420v-4.152h4.104V420h1.104v-8.796h-1.104v3.684H7.72v-3.684H6.604V420H7.72zm12.376 0v-.948h-3.84v-7.848H15.14V420h4.956zm2.464 0v-3.492h1.452c1.92 0 3.24-.864 3.24-2.724 0-1.92-1.32-2.58-3.3-2.58h-2.508V420h1.116zm1.308-4.392H22.56v-3.504h1.26c1.548 0 2.328.408 2.328 1.68 0 1.26-.732 1.824-2.28 1.824zm7.916-.288c.432 0 .792-.348.792-.828 0-.504-.36-.852-.792-.852-.432 0-.792.348-.792.852 0 .48.36.828.792.828zm0 4.836c.432 0 .792-.336.792-.828 0-.492-.36-.852-.792-.852-.432 0-.792.36-.792.852s.36.828.792.828zm6.272-.156v-4.152h4.104V420h1.104v-8.796H42.16v3.684h-4.104v-3.684H36.94V420h1.116zm8.536 0v-8.796h-1.116V420h1.116zm3.316 0v-3.492h1.452c1.92 0 3.24-.864 3.24-2.724 0-1.92-1.32-2.58-3.3-2.58h-2.508V420h1.116zm1.308-4.392h-1.308v-3.504h1.26c1.548 0 2.328.408 2.328 1.68 0 1.26-.732 1.824-2.28 1.824zm8.212 4.548c2.208 0 3.756-1.764 3.756-4.584 0-2.82-1.548-4.536-3.756-4.536-2.208 0-3.756 1.716-3.756 4.536 0 2.82 1.548 4.584 3.756 4.584zm0-.972c-1.584 0-2.616-1.416-2.616-3.612 0-2.208 1.032-3.564 2.616-3.564 1.572 0 2.616 1.356 2.616 3.564 0 2.196-1.044 3.612-2.616 3.612zM70.32 420v-7.86h2.664v-.936H66.54v.936h2.664V420h1.116zm5.68.156c.888 0 1.584-.3 2.16-.672l-.396-.72c-.48.324-.996.516-1.632.516-1.236 0-2.088-.888-2.16-2.28h4.392c.024-.156.048-.384.048-.624 0-1.86-.936-3.06-2.592-3.06-1.512 0-2.94 1.32-2.94 3.432 0 2.148 1.392 3.408 3.12 3.408zm1.452-3.936H73.96c.132-1.284.948-2.028 1.872-2.028 1.02 0 1.62.708 1.62 2.028zm3.676 3.936c.804 0 1.536-.42 2.16-.936h.036l.096.78h.9v-4.008c0-1.608-.672-2.676-2.256-2.676-1.044 0-1.968.468-2.568.852l.432.756c.516-.348 1.2-.696 1.956-.696 1.068 0 1.344.804 1.344 1.644-2.772.312-4.008 1.02-4.008 2.436 0 1.176.816 1.848 1.908 1.848zm.312-.876c-.648 0-1.152-.3-1.152-1.044 0-.84.744-1.38 2.94-1.644v1.824c-.636.564-1.152.864-1.788.864zm5.848.72v-4.728c.6-.672 1.152-.996 1.644-.996.828 0 1.212.516 1.212 1.74V420h1.092v-4.728c.612-.672 1.14-.996 1.644-.996.828 0 1.212.516 1.212 1.74V420h1.092v-4.128c0-1.668-.636-2.556-1.98-2.556-.792 0-1.476.516-2.148 1.248-.264-.768-.804-1.248-1.8-1.248-.78 0-1.464.492-2.028 1.116h-.036l-.096-.948h-.9V420h1.092zm17.36 0v-.948h-3.84v-7.848h-1.116V420h4.956zm3.724.156c.888 0 1.584-.3 2.16-.672l-.396-.72c-.48.324-.996.516-1.632.516-1.236 0-2.088-.888-2.16-2.28h4.392c.024-.156.048-.384.048-.624 0-1.86-.936-3.06-2.592-3.06-1.512 0-2.94 1.32-2.94 3.432 0 2.148 1.392 3.408 3.12 3.408zm1.452-3.936h-3.492c.132-1.284.948-2.028 1.872-2.028 1.02 0 1.62.708 1.62 2.028zm3.676 3.936c.804 0 1.536-.42 2.16-.936h.036l.096.78h.9v-4.008c0-1.608-.672-2.676-2.256-2.676-1.044 0-1.968.468-2.568.852l.432.756c.516-.348 1.2-.696 1.956-.696 1.068 0 1.344.804 1.344 1.644-2.772.312-4.008 1.02-4.008 2.436 0 1.176.816 1.848 1.908 1.848zm.312-.876c-.648 0-1.152-.3-1.152-1.044 0-.84.744-1.38 2.94-1.644v1.824c-.636.564-1.152.864-1.788.864zm6.976.876c.78 0 1.464-.42 1.98-.924h.024l.108.768h.888v-9.552h-1.092v2.508l.06 1.128c-.576-.48-1.068-.768-1.836-.768-1.488 0-2.82 1.32-2.82 3.432 0 2.172 1.056 3.408 2.688 3.408zm.24-.912c-1.152 0-1.8-.936-1.8-2.508 0-1.488.828-2.496 1.884-2.496.54 0 1.032.192 1.584.684v3.42c-.54.6-1.068.9-1.668.9zm7.408.912c.888 0 1.584-.3 2.16-.672l-.396-.72c-.48.324-.996.516-1.632.516-1.236 0-2.088-.888-2.16-2.28h4.392c.024-.156.048-.384.048-.624 0-1.86-.936-3.06-2.592-3.06-1.512 0-2.94 1.32-2.94 3.432 0 2.148 1.392 3.408 3.12 3.408zm1.452-3.936h-3.492c.132-1.284.948-2.028 1.872-2.028 1.02 0 1.62.708 1.62 2.028zm3.46 3.78v-4.188c.432-1.116 1.104-1.5 1.644-1.5.264 0 .42.024.636.108l.204-.96c-.204-.108-.408-.144-.696-.144-.732 0-1.392.528-1.848 1.356h-.036l-.096-1.188h-.9V420h1.092zm7.064 0v-3.492h1.452c1.92 0 3.24-.864 3.24-2.724 0-1.92-1.32-2.58-3.3-2.58h-2.508V420h1.116zm1.308-4.392h-1.308v-3.504h1.26c1.548 0 2.328.408 2.328 1.68 0 1.26-.732 1.824-2.28 1.824zm5.956 4.392v-4.188c.432-1.116 1.104-1.5 1.644-1.5.264 0 .42.024.636.108l.204-.96c-.204-.108-.408-.144-.696-.144-.732 0-1.392.528-1.848 1.356h-.036l-.096-1.188h-.9V420h1.092zm5.764.156c1.596 0 3.024-1.248 3.024-3.408 0-2.172-1.428-3.432-3.024-3.432s-3.024 1.26-3.024 3.432c0 2.16 1.428 3.408 3.024 3.408zm0-.912c-1.128 0-1.884-.996-1.884-2.496s.756-2.52 1.884-2.52 1.896 1.02 1.896 2.52-.768 2.496-1.896 2.496zm6.736 3.756c2.016 0 3.288-1.044 3.288-2.256 0-1.068-.756-1.548-2.268-1.548h-1.272c-.876 0-1.14-.288-1.14-.708 0-.36.18-.576.42-.78.288.144.648.228.972.228 1.32 0 2.376-.876 2.376-2.268 0-.564-.216-1.044-.528-1.344h1.332v-.84h-2.268c-.228-.084-.552-.168-.912-.168-1.32 0-2.448.9-2.448 2.328 0 .78.42 1.404.852 1.752v.048c-.336.24-.732.672-.732 1.212 0 .516.252.864.6 1.068v.048c-.612.396-.972.924-.972 1.476 0 1.128 1.104 1.752 2.7 1.752zm0-5.808c-.756 0-1.392-.6-1.392-1.548 0-.96.624-1.524 1.392-1.524.768 0 1.38.576 1.38 1.524 0 .948-.636 1.548-1.38 1.548zm.156 5.064c-1.188 0-1.896-.456-1.896-1.152 0-.384.204-.768.672-1.104.288.072.6.108.84.108h1.128c.864 0 1.332.204 1.332.804 0 .684-.828 1.344-2.076 1.344zm5.296-2.256v-4.188c.432-1.116 1.104-1.5 1.644-1.5.264 0 .42.024.636.108l.204-.96c-.204-.108-.408-.144-.696-.144-.732 0-1.392.528-1.848 1.356h-.036l-.096-1.188h-.9V420h1.092zm4.54.156c.804 0 1.536-.42 2.16-.936h.036l.096.78h.9v-4.008c0-1.608-.672-2.676-2.256-2.676-1.044 0-1.968.468-2.568.852l.432.756c.516-.348 1.2-.696 1.956-.696 1.068 0 1.344.804 1.344 1.644-2.772.312-4.008 1.02-4.008 2.436 0 1.176.816 1.848 1.908 1.848zm.312-.876c-.648 0-1.152-.3-1.152-1.044 0-.84.744-1.38 2.94-1.644v1.824c-.636.564-1.152.864-1.788.864zm5.848.72v-4.728c.6-.672 1.152-.996 1.644-.996.828 0 1.212.516 1.212 1.74V420h1.092v-4.728c.612-.672 1.14-.996 1.644-.996.828 0 1.212.516 1.212 1.74V420h1.092v-4.128c0-1.668-.636-2.556-1.98-2.556-.792 0-1.476.516-2.148 1.248-.264-.768-.804-1.248-1.8-1.248-.78 0-1.464.492-2.028 1.116h-.036l-.096-.948h-.9V420h1.092zM3.744 432.348l.528-.384-.768-1.248 1.308-.54-.204-.612-1.368.324-.12-1.44h-.648l-.12 1.452-1.368-.336-.216.612 1.308.54-.756 1.248.528.384.948-1.14.948 1.14zM7.72 438v-3.948h3.36v-.936H7.72v-2.976h3.96v-.936H6.604V438H7.72zm10.264 0v-.948h-3.84v-7.848h-1.116V438h4.956zm2.464 0v-3.492H21.9c1.92 0 3.24-.864 3.24-2.724 0-1.92-1.32-2.58-3.3-2.58h-2.508V438h1.116zm1.308-4.392h-1.308v-3.504h1.26c1.548 0 2.328.408 2.328 1.68 0 1.26-.732 1.824-2.28 1.824zm7.916-.288c.432 0 .792-.348.792-.828 0-.504-.36-.852-.792-.852-.432 0-.792.348-.792.852 0 .48.36.828.792.828zm0 4.836c.432 0 .792-.336.792-.828 0-.492-.36-.852-.792-.852-.432 0-.792.36-.792.852s.36.828.792.828zm6.272-.156v-3.948h3.36v-.936h-3.36v-2.976h3.96v-.936h-5.076V438h1.116zm6.892.156c.9 0 1.548-.468 2.16-1.176h.036l.084 1.02h.912v-6.516h-1.092v4.62c-.624.78-1.092 1.104-1.764 1.104-.864 0-1.224-.516-1.224-1.728v-3.996h-1.092v4.128c0 1.656.612 2.544 1.98 2.544zm7.24 0c.396 0 .828-.12 1.2-.24l-.216-.816c-.216.084-.516.168-.744.168-.756 0-1.008-.456-1.008-1.26v-3.636h1.764v-.888h-1.764v-1.824h-.912l-.132 1.824-1.02.06v.828h.972v3.612c0 1.308.468 2.172 1.86 2.172zm4.168 0c.9 0 1.548-.468 2.16-1.176h.036l.084 1.02h.912v-6.516h-1.092v4.62c-.624.78-1.092 1.104-1.764 1.104-.864 0-1.224-.516-1.224-1.728v-3.996h-1.092v4.128c0 1.656.612 2.544 1.98 2.544zm6.28-.156v-4.188c.432-1.116 1.104-1.5 1.644-1.5.264 0 .42.024.636.108l.204-.96c-.204-.108-.408-.144-.696-.144-.732 0-1.392.528-1.848 1.356h-.036l-.096-1.188h-.9V438h1.092zm5.86.156c.888 0 1.584-.3 2.16-.672l-.396-.72c-.48.324-.996.516-1.632.516-1.236 0-2.088-.888-2.16-2.28h4.392c.024-.156.048-.384.048-.624 0-1.86-.936-3.06-2.592-3.06-1.512 0-2.94 1.32-2.94 3.432 0 2.148 1.392 3.408 3.12 3.408zm1.452-3.936h-3.492c.132-1.284.948-2.028 1.872-2.028 1.02 0 1.62.708 1.62 2.028zm9.908 3.78v-.948h-3.84v-7.848h-1.116V438h4.956zm3.724.156c.888 0 1.584-.3 2.16-.672l-.396-.72c-.48.324-.996.516-1.632.516-1.236 0-2.088-.888-2.16-2.28h4.392c.024-.156.048-.384.048-.624 0-1.86-.936-3.06-2.592-3.06-1.512 0-2.94 1.32-2.94 3.432 0 2.148 1.392 3.408 3.12 3.408zm1.452-3.936h-3.492c.132-1.284.948-2.028 1.872-2.028 1.02 0 1.62.708 1.62 2.028zm3.676 3.936c.804 0 1.536-.42 2.16-.936h.036l.096.78h.9v-4.008c0-1.608-.672-2.676-2.256-2.676-1.044 0-1.968.468-2.568.852l.432.756c.516-.348 1.2-.696 1.956-.696 1.068 0 1.344.804 1.344 1.644-2.772.312-4.008 1.02-4.008 2.436 0 1.176.816 1.848 1.908 1.848zm.312-.876c-.648 0-1.152-.3-1.152-1.044 0-.84.744-1.38 2.94-1.644v1.824c-.636.564-1.152.864-1.788.864zm6.976.876c.78 0 1.464-.42 1.98-.924h.024l.108.768h.888v-9.552h-1.092v2.508l.06 1.128c-.576-.48-1.068-.768-1.836-.768-1.488 0-2.82 1.32-2.82 3.432 0 2.172 1.056 3.408 2.688 3.408zm.24-.912c-1.152 0-1.8-.936-1.8-2.508 0-1.488.828-2.496 1.884-2.496.54 0 1.032.192 1.584.684v3.42c-.54.6-1.068.9-1.668.9zm7.408.912c.888 0 1.584-.3 2.16-.672l-.396-.72c-.48.324-.996.516-1.632.516-1.236 0-2.088-.888-2.16-2.28h4.392c.024-.156.048-.384.048-.624 0-1.86-.936-3.06-2.592-3.06-1.512 0-2.94 1.32-2.94 3.432 0 2.148 1.392 3.408 3.12 3.408zm1.452-3.936h-3.492c.132-1.284.948-2.028 1.872-2.028 1.02 0 1.62.708 1.62 2.028zm3.46 3.78v-4.188c.432-1.116 1.104-1.5 1.644-1.5.264 0 .42.024.636.108l.204-.96c-.204-.108-.408-.144-.696-.144-.732 0-1.392.528-1.848 1.356h-.036l-.096-1.188h-.9V438h1.092zm5.02.156c1.536 0 2.376-.876 2.376-1.932 0-1.236-1.044-1.62-1.992-1.98-.732-.276-1.44-.504-1.44-1.128 0-.504.372-.936 1.188-.936.588 0 1.044.24 1.5.576l.528-.708c-.516-.396-1.224-.732-2.028-.732-1.416 0-2.244.816-2.244 1.848 0 1.104 1.032 1.548 1.944 1.884.72.276 1.488.576 1.488 1.236 0 .564-.42 1.02-1.284 1.02-.78 0-1.368-.312-1.932-.768l-.54.72c.624.516 1.512.9 2.436.9zm4.804-.156v-4.728c.66-.66 1.116-.996 1.788-.996.864 0 1.236.516 1.236 1.74V438h1.092v-4.128c0-1.668-.624-2.556-1.992-2.556-.888 0-1.56.492-2.16 1.092l.036-1.344v-2.616h-1.092V438h1.092zm6.544-7.86c.432 0 .756-.3.756-.708 0-.444-.324-.708-.756-.708s-.756.264-.756.708c0 .408.324.708.756.708zm.54 7.86v-6.516h-1.092V438h1.092zm3.1 2.748v-2.208l-.024-1.14c.588.48 1.212.756 1.8.756 1.5 0 2.832-1.284 2.832-3.516 0-2.004-.912-3.324-2.592-3.324-.756 0-1.488.432-2.076.912h-.036l-.096-.744h-.9v9.264h1.092zm1.596-3.504c-.432 0-1.008-.18-1.596-.684v-3.42c.636-.588 1.2-.9 1.752-.9 1.236 0 1.716.972 1.716 2.412 0 1.62-.792 2.592-1.872 2.592zm8.252.756v-3.492h1.452c1.92 0 3.24-.864 3.24-2.724 0-1.92-1.32-2.58-3.3-2.58h-2.508V438h1.116zm1.308-4.392H136.3v-3.504h1.26c1.548 0 2.328.408 2.328 1.68 0 1.26-.732 1.824-2.28 1.824zm5.956 4.392v-4.188c.432-1.116 1.104-1.5 1.644-1.5.264 0 .42.024.636.108l.204-.96c-.204-.108-.408-.144-.696-.144-.732 0-1.392.528-1.848 1.356h-.036l-.096-1.188h-.9V438h1.092zm5.764.156c1.596 0 3.024-1.248 3.024-3.408 0-2.172-1.428-3.432-3.024-3.432s-3.024 1.26-3.024 3.432c0 2.16 1.428 3.408 3.024 3.408zm0-.912c-1.128 0-1.884-.996-1.884-2.496s.756-2.52 1.884-2.52 1.896 1.02 1.896 2.52-.768 2.496-1.896 2.496zm6.736 3.756c2.016 0 3.288-1.044 3.288-2.256 0-1.068-.756-1.548-2.268-1.548h-1.272c-.876 0-1.14-.288-1.14-.708 0-.36.18-.576.42-.78.288.144.648.228.972.228 1.32 0 2.376-.876 2.376-2.268 0-.564-.216-1.044-.528-1.344h1.332v-.84h-2.268c-.228-.084-.552-.168-.912-.168-1.32 0-2.448.9-2.448 2.328 0 .78.42 1.404.852 1.752v.048c-.336.24-.732.672-.732 1.212 0 .516.252.864.6 1.068v.048c-.612.396-.972.924-.972 1.476 0 1.128 1.104 1.752 2.7 1.752zm0-5.808c-.756 0-1.392-.6-1.392-1.548 0-.96.624-1.524 1.392-1.524.768 0 1.38.576 1.38 1.524 0 .948-.636 1.548-1.38 1.548zm.156 5.064c-1.188 0-1.896-.456-1.896-1.152 0-.384.204-.768.672-1.104.288.072.6.108.84.108h1.128c.864 0 1.332.204 1.332.804 0 .684-.828 1.344-2.076 1.344zm5.296-2.256v-4.188c.432-1.116 1.104-1.5 1.644-1.5.264 0 .42.024.636.108l.204-.96c-.204-.108-.408-.144-.696-.144-.732 0-1.392.528-1.848 1.356h-.036l-.096-1.188h-.9V438h1.092zm4.54.156c.804 0 1.536-.42 2.16-.936h.036l.096.78h.9v-4.008c0-1.608-.672-2.676-2.256-2.676-1.044 0-1.968.468-2.568.852l.432.756c.516-.348 1.2-.696 1.956-.696 1.068 0 1.344.804 1.344 1.644-2.772.312-4.008 1.02-4.008 2.436 0 1.176.816 1.848 1.908 1.848zm.312-.876c-.648 0-1.152-.3-1.152-1.044 0-.84.744-1.38 2.94-1.644v1.824c-.636.564-1.152.864-1.788.864zm5.848.72v-4.728c.6-.672 1.152-.996 1.644-.996.828 0 1.212.516 1.212 1.74V438h1.092v-4.728c.612-.672 1.14-.996 1.644-.996.828 0 1.212.516 1.212 1.74V438h1.092v-4.128c0-1.668-.636-2.556-1.98-2.556-.792 0-1.476.516-2.148 1.248-.264-.768-.804-1.248-1.8-1.248-.78 0-1.464.492-2.028 1.116h-.036l-.096-.948h-.9V438h1.092z"/>
            <path fill="#000" fill-rule="nonzero" d="M241.251 242v-4.2h3.682v-1.736h-3.682v-2.702h4.312v-1.722h-6.384V242h2.072zm4.256 20v-1.736h-4.2v-8.624h-2.072V262h6.272zm-4.83 20v-3.682h1.386c2.226 0 4.004-1.064 4.004-3.43 0-2.45-1.764-3.248-4.06-3.248h-3.402V282h2.072zm1.246-5.32h-1.246v-3.402h1.176c1.428 0 2.184.406 2.184 1.61 0 1.19-.686 1.792-2.114 1.792z"/>
        </g>
        <g transform="translate(135 218)">
            <rect width="188" height="68" y="88" fill="#EA6957" rx="8"/>
            <rect width="68" height="156" x="208" fill="#EA6957" rx="8"/>
            <rect width="68" height="333" x="208" y="177" fill="#EA6957" rx="8"/>
            <rect width="188" height="68" y="265" fill="#EA6957" rx="8"/>
            <rect width="188" height="68" y="354" fill="#EA6957" rx="8"/>
            <rect width="188" height="68" y="442" fill="#EA6957" rx="8"/>
            <path fill="#FFF" fill-rule="nonzero" d="M76.552 125.718v-9.394H74.69v9.394h1.862zm-9.814-1.722c1.498-.518 2.506-1.568 3.094-2.87.56 1.204 1.54 2.156 2.968 2.646l.938-1.47c-2.1-.672-2.996-2.324-2.996-4.018v-1.26h-1.876v1.26c0 1.708-.924 3.514-3.066 4.242l.938 1.47zm10.136 4.984v-1.47h-7.056v-2.688H67.97v4.158h8.904zm12.558-5.362v-7.308H87.57v7.308h1.862zm-7.014-.518c2.002 0 3.5-1.288 3.5-3.094 0-1.82-1.498-3.108-3.5-3.108s-3.514 1.288-3.514 3.108c0 1.806 1.512 3.094 3.514 3.094zm0-1.54c-.98 0-1.708-.588-1.708-1.554 0-.98.728-1.568 1.708-1.568.966 0 1.694.588 1.694 1.568 0 .966-.728 1.554-1.694 1.554zm7.014 7.49v-4.858H80.85v4.858h8.582zm-1.806-1.442H82.67v-1.974h4.956v1.974zm14.686-3.99v-7.308h-1.862v7.308h1.862zm-7.014-.518c2.002 0 3.5-1.288 3.5-3.094 0-1.82-1.498-3.108-3.5-3.108s-3.514 1.288-3.514 3.108c0 1.806 1.512 3.094 3.514 3.094zm0-1.54c-.98 0-1.708-.588-1.708-1.554 0-.98.728-1.568 1.708-1.568.966 0 1.694.588 1.694 1.568 0 .966-.728 1.554-1.694 1.554zm7.014 7.49v-4.858H93.73v4.858h8.582zm-1.806-1.442H95.55v-1.974h4.956v1.974zm14.826-1.526v-9.772h-1.848v7.49h-2.422v1.26h2.422v1.022h1.848zm-6.748-4.732c1.876 0 3.206-.924 3.206-2.296 0-1.372-1.33-2.31-3.206-2.31-1.89 0-3.22.938-3.22 2.31s1.33 2.296 3.22 2.296zm0-1.344c-.868 0-1.47-.322-1.47-.952 0-.63.602-.966 1.47-.966.854 0 1.456.336 1.456.966 0 .63-.602.952-1.456.952zm7.028 8.974v-1.47h-7.714v-1.764h1.778v-2.436c1.036-.07 2.072-.182 3.08-.364l-.126-1.316c-2.716.35-5.852.378-8.204.392l.238 1.47c.966 0 2.044-.014 3.178-.07v1.722h-1.792v3.836h9.562zM247.442 49.87v-7.56h-1.848v1.68h-2.842c-.616-.616-1.498-.994-2.534-.994-1.904 0-3.388 1.33-3.388 3.164 0 1.82 1.484 3.15 3.388 3.15 1.008 0 1.89-.364 2.506-.98h2.87v1.54h1.848zm-7.224-2.114c-.952 0-1.638-.602-1.638-1.596 0-1.008.686-1.596 1.638-1.596.952 0 1.652.588 1.652 1.596 0 .994-.7 1.596-1.652 1.596zm5.376-.896h-2.058c.056-.238.084-.462.084-.7 0-.252-.028-.476-.07-.7h2.044v1.4zm-2.52 8.358c2.73 0 4.424-.952 4.424-2.548 0-1.61-1.694-2.548-4.424-2.548-2.716 0-4.41.938-4.41 2.548 0 1.596 1.694 2.548 4.41 2.548zm0-1.428c-1.694 0-2.59-.364-2.59-1.12 0-.756.896-1.12 2.59-1.12s2.604.364 2.604 1.12c0 .756-.91 1.12-2.604 1.12zm4.298 15.45v-6.93h-1.862v6.93h1.862zm-7.014-.308c2.002 0 3.5-1.274 3.5-3.052 0-1.764-1.498-3.038-3.5-3.038s-3.514 1.274-3.514 3.038c0 1.778 1.512 3.052 3.514 3.052zm0-1.526c-.98 0-1.708-.56-1.708-1.526 0-.938.728-1.512 1.708-1.512s1.694.574 1.694 1.512c0 .966-.714 1.526-1.694 1.526zm7.014 7.644V69.8h-1.834v1.204h-4.9V69.8h-1.834v5.25h8.568zm-1.834-1.456h-4.9v-1.176h4.9v1.176zm1.834 16.024V82.31h-1.862v7.308h1.862zm-7.014-.518c2.002 0 3.5-1.288 3.5-3.094 0-1.82-1.498-3.108-3.5-3.108s-3.514 1.288-3.514 3.108c0 1.806 1.512 3.094 3.514 3.094zm0-1.54c-.98 0-1.708-.588-1.708-1.554 0-.98.728-1.568 1.708-1.568.966 0 1.694.588 1.694 1.568 0 .966-.728 1.554-1.694 1.554zm7.014 7.49v-4.858h-8.582v4.858h8.582zm-1.806-1.442h-4.956v-1.974h4.956v1.974zm1.946 18.474v-9.772h-1.848v7.49h-2.422v1.26h2.422v1.022h1.848zm-6.748-4.732c1.876 0 3.206-.924 3.206-2.296 0-1.372-1.33-2.31-3.206-2.31-1.89 0-3.22.938-3.22 2.31s1.33 2.296 3.22 2.296zm0-1.344c-.868 0-1.47-.322-1.47-.952 0-.63.602-.966 1.47-.966.854 0 1.456.336 1.456.966 0 .63-.602.952-1.456.952zm7.028 8.974v-1.47h-7.714v-1.764h1.778v-2.436c1.036-.07 2.072-.182 3.08-.364l-.126-1.316c-2.716.35-5.852.378-8.204.392l.238 1.47c.966 0 2.044-.014 3.178-.07v1.722h-1.792v3.836h9.562zM247.442 295.87v-7.56h-1.848v1.68h-2.842c-.616-.616-1.498-.994-2.534-.994-1.904 0-3.388 1.33-3.388 3.164 0 1.82 1.484 3.15 3.388 3.15 1.008 0 1.89-.364 2.506-.98h2.87v1.54h1.848zm-7.224-2.114c-.952 0-1.638-.602-1.638-1.596 0-1.008.686-1.596 1.638-1.596.952 0 1.652.588 1.652 1.596 0 .994-.7 1.596-1.652 1.596zm5.376-.896h-2.058c.056-.238.084-.462.084-.7 0-.252-.028-.476-.07-.7h2.044v1.4zm-2.52 8.358c2.73 0 4.424-.952 4.424-2.548 0-1.61-1.694-2.548-4.424-2.548-2.716 0-4.41.938-4.41 2.548 0 1.596 1.694 2.548 4.41 2.548zm0-1.428c-1.694 0-2.59-.364-2.59-1.12 0-.756.896-1.12 2.59-1.12s2.604.364 2.604 1.12c0 .756-.91 1.12-2.604 1.12zm4.298 15.45v-6.93h-1.862v6.93h1.862zm-7.014-.308c2.002 0 3.5-1.274 3.5-3.052 0-1.764-1.498-3.038-3.5-3.038s-3.514 1.274-3.514 3.038c0 1.778 1.512 3.052 3.514 3.052zm0-1.526c-.98 0-1.708-.56-1.708-1.526 0-.938.728-1.512 1.708-1.512s1.694.574 1.694 1.512c0 .966-.714 1.526-1.694 1.526zm7.014 7.644v-5.25h-1.834v1.204h-4.9V315.8h-1.834v5.25h8.568zm-1.834-1.456h-4.9v-1.176h4.9v1.176zm-2.17 41.61v-5.18h4.956v-1.484h-1.694c.297-1.667.32-2.917.322-4.046v-1.442h-8.946v1.484h7.14c0 1.106-.028 2.366-.35 4.004h-8.12v1.484h4.816v5.18h1.876zm4.074 14.666v-7.56h-1.848v2.352h-2.352v1.498h2.352v3.71h1.848zm-9.926-.028c1.526-.518 2.548-1.554 3.122-2.87.546 1.148 1.456 2.03 2.814 2.492l.966-1.456c-2.044-.658-2.884-2.226-2.884-3.962v-1.064h-1.876v1.148c0 1.778-.91 3.528-3.108 4.228l.966 1.484zm5.572 5.362c2.73 0 4.41-.924 4.41-2.492 0-1.596-1.68-2.52-4.41-2.52-2.744 0-4.424.924-4.424 2.52 0 1.568 1.68 2.492 4.424 2.492zm0-1.414c-1.694 0-2.576-.35-2.576-1.078 0-.742.882-1.092 2.576-1.092 1.68 0 2.562.35 2.562 1.092 0 .728-.882 1.078-2.562 1.078zm4.424 18.292v-9.772h-1.848v7.49h-2.422v1.26h2.422v1.022h1.848zm-6.748-4.732c1.876 0 3.206-.924 3.206-2.296 0-1.372-1.33-2.31-3.206-2.31-1.89 0-3.22.938-3.22 2.31s1.33 2.296 3.22 2.296zm0-1.344c-.868 0-1.47-.322-1.47-.952 0-.63.602-.966 1.47-.966.854 0 1.456.336 1.456.966 0 .63-.602.952-1.456.952zm7.028 8.974v-1.47h-7.714v-1.764h1.778v-2.436c1.036-.07 2.072-.182 3.08-.364l-.126-1.316c-2.716.35-5.852.378-8.204.392l.238 1.47c.966 0 2.044-.014 3.178-.07v1.722h-1.792v3.836h9.562zM76.552 302.718v-9.394H74.69v9.394h1.862zm-9.814-1.722c1.498-.518 2.506-1.568 3.094-2.87.56 1.204 1.54 2.156 2.968 2.646l.938-1.47c-2.1-.672-2.996-2.324-2.996-4.018v-1.26h-1.876v1.26c0 1.708-.924 3.514-3.066 4.242l.938 1.47zm10.136 4.984v-1.47h-7.056v-2.688H67.97v4.158h8.904zm12.558-5.362v-7.308H87.57v7.308h1.862zm-7.014-.518c2.002 0 3.5-1.288 3.5-3.094 0-1.82-1.498-3.108-3.5-3.108s-3.514 1.288-3.514 3.108c0 1.806 1.512 3.094 3.514 3.094zm0-1.54c-.98 0-1.708-.588-1.708-1.554 0-.98.728-1.568 1.708-1.568.966 0 1.694.588 1.694 1.568 0 .966-.728 1.554-1.694 1.554zm7.014 7.49v-4.858H80.85v4.858h8.582zm-1.806-1.442H82.67v-1.974h4.956v1.974zm14.686-3.64v-7.644h-1.862v7.644h1.862zm-2.758-.91l-.168-1.428c-1.61.238-3.024.294-5.25.308v-1.022h3.99v-1.428h-3.99v-.98h4.368v-1.456h-6.202v6.342h1.106c2.716 0 4.326-.042 6.146-.336zm2.758 6.006V301.5H93.73v4.564h8.582zm-1.806-1.456H95.55v-1.666h4.956v1.666zm14.126-3.64v-3.178h1.708v-1.512h-1.708v-2.968h-1.848v7.658h1.848zm-9.408.07c1.512-.49 2.534-1.512 3.108-2.786.56 1.064 1.54 1.918 2.954 2.338l.882-1.428c-2.03-.602-2.912-2.044-2.94-3.514h2.52v-1.484h-6.972v1.484h2.562c-.028 1.61-.952 3.248-3.038 3.948l.924 1.442zm5.194 5.166c2.674 0 4.354-.924 4.354-2.492 0-1.582-1.68-2.52-4.354-2.52-2.688 0-4.368.938-4.368 2.52 0 1.568 1.68 2.492 4.368 2.492zm0-1.414c-1.652 0-2.534-.35-2.534-1.078 0-.742.882-1.092 2.534-1.092 1.638 0 2.52.35 2.52 1.092 0 .728-.882 1.078-2.52 1.078zM48.503 394.196c2.394 0 3.808-1.442 3.808-3.136 0-1.498-.826-2.296-2.086-2.814l-1.358-.574c-.882-.35-1.624-.616-1.624-1.358 0-.686.588-1.092 1.498-1.092.854 0 1.54.308 2.198.854l1.05-1.302c-.84-.854-2.044-1.33-3.248-1.33-2.1 0-3.584 1.302-3.584 2.996 0 1.512 1.05 2.352 2.1 2.786l1.386.588c.924.392 1.554.63 1.554 1.4 0 .728-.574 1.19-1.652 1.19-.91 0-1.89-.462-2.632-1.148l-1.19 1.428c1.008.966 2.394 1.512 3.78 1.512zm7.714-.196v-2.912l1.358-1.736L60.249 394h2.282l-3.724-6.286 3.164-4.074h-2.282l-3.43 4.494h-.042v-4.494h-2.072V394h2.072zm9.394 0v-4.326c0-.98-.168-2.422-.266-3.402h.056l.826 2.436 1.61 4.354h1.19l1.596-4.354.84-2.436h.056c-.098.98-.252 2.422-.252 3.402V394h1.89v-10.36h-2.296l-1.722 4.844c-.224.644-.406 1.33-.63 2.002h-.07c-.21-.672-.406-1.358-.63-2.002l-1.764-4.844h-2.296V394h1.862zm13.188.196c2.394 0 3.808-1.442 3.808-3.136 0-1.498-.826-2.296-2.086-2.814l-1.358-.574c-.882-.35-1.624-.616-1.624-1.358 0-.686.588-1.092 1.498-1.092.854 0 1.54.308 2.198.854l1.05-1.302c-.84-.854-2.044-1.33-3.248-1.33-2.1 0-3.584 1.302-3.584 2.996 0 1.512 1.05 2.352 2.1 2.786l1.386.588c.924.392 1.554.63 1.554 1.4 0 .728-.574 1.19-1.652 1.19-.91 0-1.89-.462-2.632-1.148l-1.19 1.428c1.008.966 2.394 1.512 3.78 1.512zm18.298-4.438v-2.912h1.708v-1.526h-1.708v-3.024h-1.848v7.462h1.848zm-9.506.322c3.808-1.064 5.964-3.458 5.964-6.93h-6.104v1.47h4.074c-.28 1.764-1.862 3.22-4.676 3.976l.742 1.484zm5.32 5.138c2.604 0 4.326-1.022 4.326-2.646 0-1.61-1.722-2.646-4.326-2.646-2.604 0-4.326 1.036-4.326 2.646 0 1.624 1.722 2.646 4.326 2.646zm0-1.442c-1.568 0-2.506-.406-2.506-1.204 0-.798.938-1.204 2.506-1.204 1.568 0 2.506.406 2.506 1.204 0 .798-.938 1.204-2.506 1.204zm17.01 1.428v-6.398h1.876v-1.54h-1.876v-4.956h-1.848v12.894h1.848zm-9.254-2.646c1.456-.714 2.422-2.072 2.982-3.71.532 1.54 1.442 2.786 2.786 3.472l1.12-1.456c-2.072-1.022-2.982-3.36-2.982-5.684v-1.876h-1.862v1.876c0 2.394-.98 4.858-3.15 5.88l1.106 1.498zm22.19-2.73v-1.624h1.652v-1.512h-1.652v-1.288h1.652v-1.512h-1.652v-1.582h-1.848v7.518h1.848zm-6.552-.56c1.974 0 3.486-1.316 3.486-3.122 0-1.834-1.512-3.136-3.486-3.136-1.988 0-3.5 1.302-3.5 3.136 0 1.806 1.512 3.122 3.5 3.122zm0-1.554c-.98 0-1.694-.588-1.694-1.568 0-.994.714-1.582 1.694-1.582.966 0 1.694.588 1.694 1.582 0 .98-.728 1.568-1.694 1.568zm2.338 7.504c2.66 0 4.354-.952 4.354-2.562 0-1.596-1.694-2.548-4.354-2.548-2.674 0-4.368.952-4.368 2.548 0 1.61 1.694 2.562 4.368 2.562zm0-1.456c-1.652 0-2.534-.35-2.534-1.106 0-.742.882-1.106 2.534-1.106 1.638 0 2.52.364 2.52 1.106 0 .756-.882 1.106-2.52 1.106zm17.724-3.892v-7.56h-1.848v2.352h-2.352v1.498h2.352v3.71h1.848zm-9.926-.028c1.526-.518 2.548-1.554 3.122-2.87.546 1.148 1.456 2.03 2.814 2.492l.966-1.456c-2.044-.658-2.884-2.226-2.884-3.962v-1.064h-1.876v1.148c0 1.778-.91 3.528-3.108 4.228l.966 1.484zm5.572 5.362c2.73 0 4.41-.924 4.41-2.492 0-1.596-1.68-2.52-4.41-2.52-2.744 0-4.424.924-4.424 2.52 0 1.568 1.68 2.492 4.424 2.492zm0-1.414c-1.694 0-2.576-.35-2.576-1.078 0-.742.882-1.092 2.576-1.092 1.68 0 2.562.35 2.562 1.092 0 .728-.882 1.078-2.562 1.078zM76.552 479.718v-9.394H74.69v9.394h1.862zm-9.814-1.722c1.498-.518 2.506-1.568 3.094-2.87.56 1.204 1.54 2.156 2.968 2.646l.938-1.47c-2.1-.672-2.996-2.324-2.996-4.018v-1.26h-1.876v1.26c0 1.708-.924 3.514-3.066 4.242l.938 1.47zm10.136 4.984v-1.47h-7.056v-2.688H67.97v4.158h8.904zm12.558-5.74v-6.93H87.57v6.93h1.862zm-7.014-.308c2.002 0 3.5-1.274 3.5-3.052 0-1.764-1.498-3.038-3.5-3.038s-3.514 1.274-3.514 3.038c0 1.778 1.512 3.052 3.514 3.052zm0-1.526c-.98 0-1.708-.56-1.708-1.526 0-.938.728-1.512 1.708-1.512s1.694.574 1.694 1.512c0 .966-.714 1.526-1.694 1.526zm7.014 7.644v-5.25h-1.834v1.204h-4.9V477.8h-1.834v5.25h8.568zm-1.834-1.456h-4.9v-1.176h4.9v1.176zm14.098 1.61v-6.398h1.876v-1.54h-1.876v-4.956h-1.848v12.894h1.848zm-9.254-2.646c1.456-.714 2.422-2.072 2.982-3.71.532 1.54 1.442 2.786 2.786 3.472l1.12-1.456c-2.072-1.022-2.982-3.36-2.982-5.684v-1.876h-1.862v1.876c0 2.394-.98 4.858-3.15 5.88l1.106 1.498zm22.89-.476v-9.772h-1.848v7.49h-2.422v1.26h2.422v1.022h1.848zm-6.748-4.732c1.876 0 3.206-.924 3.206-2.296 0-1.372-1.33-2.31-3.206-2.31-1.89 0-3.22.938-3.22 2.31s1.33 2.296 3.22 2.296zm0-1.344c-.868 0-1.47-.322-1.47-.952 0-.63.602-.966 1.47-.966.854 0 1.456.336 1.456.966 0 .63-.602.952-1.456.952zm7.028 8.974v-1.47h-7.714v-1.764h1.778v-2.436c1.036-.07 2.072-.182 3.08-.364l-.126-1.316c-2.716.35-5.852.378-8.204.392l.238 1.47c.966 0 2.044-.014 3.178-.07v1.722h-1.792v3.836h9.562z"/>
        </g>
        <rect width="113" height="154" x="1" y="219" stroke="#4C4C4C" stroke-width="2" rx="8"/>
        <rect width="113" height="154" x="1" y="396" stroke="#4C4C4C" stroke-width="2" rx="8"/>
        <rect width="113" height="154" x="1" y="573" stroke="#4C4C4C" stroke-width="2" rx="8"/>
        <path fill="#000" fill-rule="nonzero" d="M56.108 297.992v-8.352H53.98v8.352h2.128zm-8.016-.592c2.288 0 4-1.472 4-3.536 0-2.08-1.712-3.552-4-3.552-2.288 0-4.016 1.472-4.016 3.552 0 2.064 1.728 3.536 4.016 3.536zm0-1.76c-1.12 0-1.952-.672-1.952-1.776 0-1.12.832-1.792 1.952-1.792 1.104 0 1.936.672 1.936 1.792 0 1.104-.832 1.776-1.936 1.776zm8.016 8.56v-5.552H46.3v5.552h9.808zm-2.064-1.648H48.38v-2.256h5.664v2.256zm16.544-1.744V289.64h-2.112v8.56h-2.768v1.44h2.768v1.168h2.112zm-7.712-5.408c2.144 0 3.664-1.056 3.664-2.624s-1.52-2.64-3.664-2.64c-2.16 0-3.68 1.072-3.68 2.64s1.52 2.624 3.68 2.624zm0-1.536c-.992 0-1.68-.368-1.68-1.088 0-.72.688-1.104 1.68-1.104.976 0 1.664.384 1.664 1.104 0 .72-.688 1.088-1.664 1.088zm8.032 10.256v-1.68h-8.816v-2.016h2.032v-2.784c1.184-.08 2.368-.208 3.52-.416l-.144-1.504c-3.104.4-6.688.432-9.376.448l.272 1.68c1.104 0 2.336-.016 3.632-.08v1.968H59.98v4.384h10.928zM56.108 475.392v-8.736H53.98v8.736h2.128zm-3.152-1.04l-.192-1.632c-1.84.272-3.456.336-6 .352v-1.168h4.56v-1.632h-4.56v-1.12h4.992v-1.664h-7.088v7.248h1.264c3.104 0 4.944-.048 7.024-.384zm3.152 6.864V476H46.3v5.216h9.808zm-2.064-1.664H48.38v-1.904h5.664v1.904zm15.744-4.16v-3.632h1.952v-1.728h-1.952v-3.392h-2.112v8.752h2.112zm-10.752.08c1.728-.56 2.896-1.728 3.552-3.184.64 1.216 1.76 2.192 3.376 2.672l1.008-1.632c-2.32-.688-3.328-2.336-3.36-4.016h2.88v-1.696h-7.968v1.696h2.928c-.032 1.84-1.088 3.712-3.472 4.512l1.056 1.648zm5.936 5.904c3.056 0 4.976-1.056 4.976-2.848 0-1.808-1.92-2.88-4.976-2.88-3.072 0-4.992 1.072-4.992 2.88 0 1.792 1.92 2.848 4.992 2.848zm0-1.616c-1.888 0-2.896-.4-2.896-1.232 0-.848 1.008-1.248 2.896-1.248 1.872 0 2.88.4 2.88 1.248 0 .832-1.008 1.232-2.88 1.232zM56.108 652.392v-8.736H53.98v8.736h2.128zm-3.152-1.04l-.192-1.632c-1.84.272-3.456.336-6 .352v-1.168h4.56v-1.632h-4.56v-1.12h4.992v-1.664h-7.088v7.248h1.264c3.104 0 4.944-.048 7.024-.384zm3.152 6.864V653H46.3v5.216h9.808zm-2.064-1.664H48.38v-1.904h5.664v1.904zm16.544-1.744V643.64h-2.112v8.56h-2.768v1.44h2.768v1.168h2.112zm-7.712-5.408c2.144 0 3.664-1.056 3.664-2.624s-1.52-2.64-3.664-2.64c-2.16 0-3.68 1.072-3.68 2.64s1.52 2.624 3.68 2.624zm0-1.536c-.992 0-1.68-.368-1.68-1.088 0-.72.688-1.104 1.68-1.104.976 0 1.664.384 1.664 1.104 0 .72-.688 1.088-1.664 1.088zm8.032 10.256v-1.68h-8.816v-2.016h2.032v-2.784c1.184-.08 2.368-.208 3.52-.416l-.144-1.504c-3.104.4-6.688.432-9.376.448l.272 1.68c1.104 0 2.336-.016 3.632-.08v1.968H59.98v4.384h10.928z"/>
        <g>
            <g>
                <g transform="translate(135) translate(590) translate(176)">
                    <circle cx="50" cy="50" r="50" fill="#F7B962"/>
                    <path stroke="#050101" stroke-dasharray="4" stroke-width="4" d="M46.028 90.792c20.872 2.194 39.57-12.948 41.764-33.82 2.194-20.872-12.948-39.57-33.82-41.764-20.872-2.194-39.57 12.948-41.764 33.82-2.194 20.872 12.948 39.57 33.82 41.764z"/>
                    <path fill="#F7B962" d="M47 9H70V41H47zM50 100c16.2 0 30.867-10.667 44-32H6c13.133 21.333 27.8 32 44 32z"/>
                    <path fill="#DF9835" d="M17 78H83V82H17z"/>
                    <g transform="translate(23 15)">
                        <path stroke="#FFF" stroke-linecap="round" stroke-width="4" d="M6 37H48V65H6zM28.5 0H41.5V9H28.5zM6.171 26L47.829 26 54 37 0 37z"/>
                        <path fill="#FFC97E" stroke="#FFF" stroke-linecap="round" stroke-width="4" d="M16 40.32L27.798 20 39 40.32 39 65 16 65z"/>
                        <circle cx="27" cy="43" r="5" fill="#DF9835"/>
                        <path fill="#DF9835" d="M22 53H32V63H22z"/>
                        <path stroke="#FFF" stroke-width="4" d="M28.5 2L28.5 21"/>
                    </g>
                </g>
                <path fill="#222" fill-rule="nonzero" d="M189.26 132.2v-10.9h-2.64v2.48h-3.98c-.88-.94-2.2-1.52-3.7-1.52-2.72 0-4.84 1.92-4.84 4.56 0 2.66 2.12 4.58 4.84 4.58 1.48 0 2.8-.58 3.68-1.52h4v2.32h2.64zm-10.32-3.06c-1.34 0-2.34-.86-2.34-2.32 0-1.44 1-2.3 2.34-2.3 1.36 0 2.36.86 2.36 2.3 0 1.46-1 2.32-2.36 2.32zm7.68-1.36h-2.92c.06-.32.1-.64.1-.96 0-.34-.04-.64-.1-.94h2.92v1.9zm2.64 11.96v-6.7h-12.54v2.08h9.9v4.62h2.64zm17-7.34v-2.6h2.44v-2.14h-2.44v-1.74h2.44v-2.14h-2.44v-2.48h-2.64v11.1h2.64zm-3.68-1.32l-.22-2.12c-2.3.42-4.32.54-7.32.56v-1.6h5.76v-5.54h-8.4v2.12h5.8v1.46h-5.78v5.68H194c3.68 0 6.02-.08 8.58-.56zm-2.38 8.66c3.84 0 6.24-1.3 6.24-3.5 0-2.22-2.4-3.5-6.24-3.5-3.84 0-6.24 1.28-6.24 3.5 0 2.2 2.4 3.5 6.24 3.5zm0-2.02c-2.4 0-3.64-.46-3.64-1.48s1.24-1.48 3.64-1.48c2.4 0 3.64.46 3.64 1.48s-1.24 1.48-3.64 1.48zm18.88.56c3.42 0 5.44-2.06 5.44-4.48 0-2.14-1.18-3.28-2.98-4.02l-1.94-.82c-1.26-.5-2.32-.88-2.32-1.94 0-.98.84-1.56 2.14-1.56 1.22 0 2.2.44 3.14 1.22l1.5-1.86c-1.2-1.22-2.92-1.9-4.64-1.9-3 0-5.12 1.86-5.12 4.28 0 2.16 1.5 3.36 3 3.98l1.98.84c1.32.56 2.22.9 2.22 2 0 1.04-.82 1.7-2.36 1.7-1.3 0-2.7-.66-3.76-1.64l-1.7 2.04c1.44 1.38 3.42 2.16 5.4 2.16zm12.08 0c1.24 0 2.6-.42 3.66-1.36l-1.16-1.94c-.62.52-1.38.9-2.18.9-1.62 0-2.78-1.36-2.78-3.46 0-2.12 1.16-3.5 2.86-3.5.64 0 1.16.26 1.72.74l1.4-1.9c-.82-.7-1.88-1.24-3.26-1.24-3.04 0-5.72 2.16-5.72 5.9 0 3.7 2.36 5.86 5.46 5.86zm8.2-.28v-7.7c.84-.82 1.42-1.26 2.34-1.26 1.1 0 1.58.62 1.58 2.34V138h2.94v-6.98c0-2.82-1.04-4.5-3.46-4.5-1.52 0-2.62.8-3.52 1.64l.12-2.1v-4.02h-2.92V138h2.92zm14.06.28c2.8 0 5.38-2.16 5.38-5.86 0-3.74-2.58-5.9-5.38-5.9s-5.38 2.16-5.38 5.9c0 3.7 2.58 5.86 5.38 5.86zm0-2.4c-1.52 0-2.38-1.36-2.38-3.46 0-2.12.86-3.5 2.38-3.5s2.38 1.38 2.38 3.5c0 2.1-.86 3.46-2.38 3.46zm12.02 2.4c2.8 0 5.38-2.16 5.38-5.86 0-3.74-2.58-5.9-5.38-5.9s-5.38 2.16-5.38 5.9c0 3.7 2.58 5.86 5.38 5.86zm0-2.4c-1.52 0-2.38-1.36-2.38-3.46 0-2.12.86-3.5 2.38-3.5s2.38 1.38 2.38 3.5c0 2.1-.86 3.46-2.38 3.46zm10.1 2.4c.68 0 1.18-.12 1.52-.26l-.36-2.18c-.2.04-.28.04-.4.04-.28 0-.6-.22-.6-.88v-12.96h-2.92v12.82c0 2.08.72 3.42 2.76 3.42z" transform="translate(135) translate(590)"/>
                <path fill="#F7B962" fill-rule="nonzero" d="M225.703 181.97l.015 1 .032 1.999.015 1-2 .031-.015-1-.031-2-.016-1 2-.03zm-.094-6l.016 1 .03 2 .017 1-2 .03-.016-1-.031-1.999-.016-1 2-.031zm-.094-6l.016 1 .031 2 .016 1-2 .031-.016-1-.03-2-.016-.999 2-.031zm-.093-5.999l.015 1 .031 2 .016 1-2 .031-.015-1-.032-2-.015-1 2-.03zm-1.281-17.97c3.865-.06 7.048 3.024 7.108 6.89.055 3.526-2.506 6.483-5.89 7.022l.016 1.059.015 1-2 .03-.015-.999-.017-1.06c-3.4-.431-6.052-3.308-6.107-6.834-.06-3.865 3.024-7.048 6.89-7.108z" transform="translate(135) translate(590)"/>
                <path fill="#000" fill-rule="nonzero" d="M449.5 186.063v5h-1l-.001-4.001h-.5l.001-1h.5v-4h1v4zM1 186h4v1H.999v4H0l.002-9h1L1 186zm439.5.062h4.5v1h-5v-1h.5zm-8-.002l4 .001h.5v1h-5v-1h.5zm-3.5 0v1h-5v-1h5zm-8-.001v1h-5v-1h5zm-8-.001v1h-5v-1h5zm-13-.002h5v1h-5v-1zm-7.5-.001h4.5v1h-5v-1h.5zm-8-.001h4.5v1h-5v-1h.5zm-8-.001h4.5v1h-5v-1h.5zm-8-.001h4.5v1h-5v-1h.5zm-8-.002l4 .001h.5v1h-5v-1h.5zm-3.5 0v1h-5v-1h5zm-8-.001v1h-5v-1h5zm-8-.001v1l-5-.001v-1h5zm-12.5-.002h4.5v1h-5v-1h.5zm-8-.001h4.5v1h-5v-1h.5zm-8-.001h4.5v1h-5v-1h.5zm-8-.001h4.5v1h-5v-1h.5zm-8-.001h4.5v1h-5v-1h.5zm-4-.001h.5v1h-5v-1h4.5zm-7.5-.001v1h-5v-1h5zm-8-.001v1h-5v-1h5zm-13-.002h5v1h-5v-1zm-7.5-.001h4.5v1h-5v-1h.5zm-8-.001h4.5v1h-5v-1h.5zm-8-.001h4.5v1h-5v-1h.5zm-8-.001h4.5v1h-5v-1h.5zm-8-.002l4 .001h.5v1h-5v-1h.5zm-3.5 0v1h-5v-1h5zm-8-.001v1h-5v-1h5zm-8-.001v1h-5v-1h5zm-13-.002h5v1h-5v-1zm-7.5-.001h4.5v1h-5v-1h.5zm-8-.001h4.5v1h-5v-1h.5zm-8-.001h4.5v1h-5v-1h.5zm-8-.001h4.5v1h-5v-1h.5zm-8-.002l4 .001h.5v1h-5v-1h.5zm-3.5 0v1h-5v-1h5zm-8-.001v1h-5v-1h5zm-8-.001v1l-5-.001v-1h5zm-12.5-.002h4.5v1h-5v-1h.5zm-8-.001h4.5v1h-5v-1h.5zm-8-.001h4.5v1h-5v-1h.5zm-8-.001h4.5v1h-5v-1h.5zm-8-.001H93v1h-5v-1h.5zm-4-.001h.5v1h-5v-1h4.5zm-7.5-.001v1h-5v-1h5zm-8-.001v1h-5v-1h5zm-13-.002h5v1h-5v-1zm-7.5-.001H53v1h-5v-1h.5zm-8-.001H45v1h-5v-1h.5zm-8-.001H37v1h-5v-1h.5zm-8-.001H29v1h-5v-1h.5zm-8-.002l4 .001h.5v1h-5v-1h.5zm-3.5 0v1H8v-1h5z" transform="translate(135) translate(590)"/>
            </g>
            <g>
                <g transform="translate(135) translate(295) translate(90)">
                    <circle cx="50" cy="50" r="50" fill="#F68743"/>
                    <g opacity=".601">
                        <g transform="translate(42 22) translate(11)">
                            <mask id="prefix__b" fill="#fff">
                                <use xlink:href="#prefix__a"/>
                            </mask>
                            <path fill="#FFF" d="M13 4.504c-4.963 0-9 3.918-9 8.734 0 4.966 4.238 11.266 9 11.266s9-6.3 9-11.266c0-4.816-4.037-8.734-9-8.734m0 23.5c-7.201 0-13-8.125-13-14.852C0 6.453 5.833 1.004 13 1.004s13 5.45 13 12.148c0 6.727-5.799 14.852-13 14.852" mask="url(#prefix__b)"/>
                        </g>
                        <g transform="translate(42 22) translate(0 29)">
                            <mask id="prefix__d" fill="#fff">
                                <use xlink:href="#prefix__c"/>
                            </mask>
                            <path fill="#FFF" d="M6 15.2h35v-1.822c0-2.184-1.264-4.178-3.223-5.09L28.086 4h-8.832L9.194 8.273C7.253 9.19 6 11.18 6 13.35V15.2zm39 3.304H2v-4.829c0-3.508 1.966-6.722 5.01-8.188l.062-.029L18.921.504l9.159.103 11.866 4.89C43.016 6.954 45 10.177 45 13.705v4.799z" mask="url(#prefix__d)"/>
                        </g>
                    </g>
                    <g opacity=".601">
                        <g transform="translate(11 22) translate(11)">
                            <mask id="prefix__f" fill="#fff">
                                <use xlink:href="#prefix__e"/>
                            </mask>
                            <path fill="#FFF" d="M13 4.504c-4.963 0-9 3.918-9 8.734 0 4.966 4.238 11.266 9 11.266s9-6.3 9-11.266c0-4.816-4.037-8.734-9-8.734m0 23.5c-7.201 0-13-8.125-13-14.852C0 6.453 5.833 1.004 13 1.004s13 5.45 13 12.148c0 6.727-5.799 14.852-13 14.852" mask="url(#prefix__f)"/>
                        </g>
                        <g transform="translate(11 22) translate(0 29)">
                            <mask id="prefix__h" fill="#fff">
                                <use xlink:href="#prefix__g"/>
                            </mask>
                            <path fill="#FFF" d="M6 15.2h35v-1.822c0-2.184-1.264-4.178-3.223-5.09L28.086 4h-8.832L9.194 8.273C7.253 9.19 6 11.18 6 13.35V15.2zm39 3.304H2v-4.829c0-3.508 1.966-6.722 5.01-8.188l.062-.029L18.921.504l9.159.103 11.866 4.89C43.016 6.954 45 10.177 45 13.705v4.799z" mask="url(#prefix__h)"/>
                        </g>
                    </g>
                    <ellipse cx="50.5" cy="44" fill="#F68743" rx="17.5" ry="19"/>
                    <path fill="#F68743" d="M25.04 64L33.36 61 33.36 48.004 66.64 48.004 66.12 60.004 73.92 61.504 76 83 24 83z"/>
                    <g transform="translate(36 27)">
                        <mask id="prefix__j" fill="#fff">
                            <use xlink:href="#prefix__i"/>
                        </mask>
                        <path fill="#FFF" d="M14.5 5.125c-5.535 0-10.038 4.458-10.038 9.939 0 5.65 4.727 12.82 10.038 12.82 5.312 0 10.038-7.17 10.038-12.82 0-5.48-4.503-9.939-10.038-9.939m0 26.742c-8.032 0-14.5-9.246-14.5-16.9C0 7.343 6.506 1.141 14.5 1.141S29 7.344 29 14.966c0 7.655-6.468 16.9-14.5 16.9" mask="url(#prefix__j)"/>
                    </g>
                    <g transform="translate(23 49)">
                        <mask id="prefix__l" fill="#fff">
                            <use xlink:href="#prefix__k"/>
                        </mask>
                        <path fill="#FFF" d="M6.766 27.537h39.468v-2.072c0-2.485-1.426-4.755-3.634-5.793l-8.54-3.43v5.661l-7.776-3.434-7.343 3.504v-5.815l-8.574 3.497c-2.188 1.045-3.601 3.308-3.601 5.78v2.102zm43.979 3.76H2.255v-5.494c0-3.992 2.217-7.65 5.65-9.318l.07-.033 13.361-5.637v6.182l4.884-2.41 5.445 2.487v-6.141l13.38 5.563c3.463 1.658 5.7 5.326 5.7 9.341v5.46z" mask="url(#prefix__l)"/>
                    </g>
                    <g fill="#050101">
                        <path d="M3 0H6V9H3z" transform="translate(82 34)"/>
                        <path d="M3 0L6 0 6 9 3 9z" transform="translate(82 34) rotate(90 4.5 4.5)"/>
                    </g>
                    <g fill="#050101">
                        <path d="M4 0H7V11H4z" transform="translate(9 43)"/>
                        <path d="M4 0H7V11H4z" transform="translate(9 43) rotate(90 5.5 5.5)"/>
                    </g>
                </g>
                <path fill="#F68743" fill-rule="nonzero" d="M140.703 181.97l.015 1 .032 1.999.015 1-2 .031-.015-1-.031-2-.016-1 2-.03zm-.094-6l.016 1 .03 2 .017 1-2 .03-.016-1-.031-1.999-.016-1 2-.031zm-.094-6l.016 1 .031 2 .016 1-2 .031-.016-1-.03-2-.016-.999 2-.031zm-.093-5.999l.015 1 .031 2 .016 1-2 .031-.015-1-.032-2-.015-1 2-.03zm-1.281-17.97c3.865-.06 7.048 3.024 7.108 6.89.055 3.526-2.506 6.483-5.89 7.022l.016 1.059.015 1-2 .03-.015-.999-.017-1.06c-3.4-.431-6.052-3.308-6.107-6.834-.06-3.865 3.024-7.048 6.89-7.108z" transform="translate(135) translate(295)"/>
                <path fill="#222" fill-rule="nonzero" d="M88.43 139.76V121.3h-2.64v18.46h2.64zm-5.5-4.42v-12.38h-8.86v12.38h8.86zm-2.6-2.08h-3.66v-8.22h3.66v8.22zm26.54 6.44v-18.42h-2.5v6.96h-1.66v-6.62h-2.46v17.22h2.46v-8.48h1.66v9.34h2.5zm-14-4.06c2.22 0 4.22-.06 6.58-.44l-.2-2.14c-1.84.28-3.44.38-5.12.42v-3.26h4.38v-7.14h-6.96v2.12h4.42v2.94h-4.4v7.5h1.3zm21.3-3.3c4.06-1.14 6.64-3.12 7.78-6.02h3.82v1.7h-4.06v2.12h4.06v1.76h2.64v-10.6h-2.64v2.92h-3.3c.08-.54.12-1.1.12-1.68h-8.44v2.12h5.56c-.34 2.5-2.36 4.48-6.56 5.6l1.02 2.08zm8.16 7.28c3.74 0 6.2-1.44 6.2-3.74 0-2.3-2.46-3.74-6.2-3.74-3.76 0-6.22 1.44-6.22 3.74 0 2.3 2.46 3.74 6.22 3.74zm0-2.04c-2.28 0-3.62-.58-3.62-1.7s1.34-1.7 3.62-1.7c2.26 0 3.6.58 3.6 1.7s-1.34 1.7-3.6 1.7zm23.98-5.48v-10.8h-2.64v2.4h-4.06c-.88-.88-2.14-1.42-3.62-1.42-2.72 0-4.84 1.9-4.84 4.52 0 2.6 2.12 4.5 4.84 4.5 1.44 0 2.7-.52 3.58-1.4h4.1v2.2h2.64zm-10.32-3.02c-1.36 0-2.34-.86-2.34-2.28 0-1.44.98-2.28 2.34-2.28 1.36 0 2.36.84 2.36 2.28 0 1.42-1 2.28-2.36 2.28zm7.68-1.28h-2.94c.08-.34.12-.66.12-1 0-.36-.04-.68-.1-1h2.92v2zm-3.6 11.94c3.9 0 6.32-1.36 6.32-3.64 0-2.3-2.42-3.64-6.32-3.64-3.88 0-6.3 1.34-6.3 3.64 0 2.28 2.42 3.64 6.3 3.64zm0-2.04c-2.42 0-3.7-.52-3.7-1.6s1.28-1.6 3.7-1.6 3.72.52 3.72 1.6-1.3 1.6-3.72 1.6zm23.16 2.02v-9.22h2.68v-2.18h-2.68v-7.02h-2.64v18.42h2.64zm-13.34-3.46c2.1-1 3.58-3.02 4.4-5.42.82 2.18 2.26 4.02 4.3 4.96l1.46-2.08c-3.02-1.4-4.48-4.66-4.48-7.46v-1.02h3.66v-2.18h-10.12v2.18h3.82v1.02c0 3.04-1.5 6.5-4.52 7.9l1.48 2.1zm29.18-7.34c4.06 0 6.68-1.38 6.68-3.64 0-2.22-2.62-3.6-6.68-3.6-4.04 0-6.66 1.38-6.66 3.6 0 2.26 2.62 3.64 6.66 3.64zm0-2.04c-2.5 0-3.94-.52-3.94-1.6 0-1.04 1.44-1.58 3.94-1.58 2.52 0 3.96.54 3.96 1.58 0 1.08-1.44 1.6-3.96 1.6zm6.32 12.86v-6.06h-1.96v-1.7h3.96v-2.1h-16.64v2.1h3.92v1.7h-2.08v2.06h10.16v4h2.64zm-4.58-6.06h-3.5v-1.7h3.5v1.7zm23.24-1.58v-10.8h-2.64v3.36h-3.36v2.14h3.36v5.3h2.64zm-14.18-.04c2.18-.74 3.64-2.22 4.46-4.1.78 1.64 2.08 2.9 4.02 3.56l1.38-2.08c-2.92-.94-4.12-3.18-4.12-5.66v-1.52h-2.68v1.64c0 2.54-1.3 5.04-4.44 6.04l1.38 2.12zm7.96 7.66c3.9 0 6.3-1.32 6.3-3.56 0-2.28-2.4-3.6-6.3-3.6-3.92 0-6.32 1.32-6.32 3.6 0 2.24 2.4 3.56 6.32 3.56zm0-2.02c-2.42 0-3.68-.5-3.68-1.54 0-1.06 1.26-1.56 3.68-1.56 2.4 0 3.66.5 3.66 1.56 0 1.04-1.26 1.54-3.66 1.54z" transform="translate(135) translate(295)"/>
                <path fill="#000" fill-rule="nonzero" d="M1 182v4h4v1H1v4H0v-9h1zm277 0v9h-1v-4h-5v-1h5v-4h1zm-265 4v1H8v-1h5zm8 0v1h-5v-1h5zm8 0v1h-5v-1h5zm8 0v1h-5v-1h5zm8 0v1h-5v-1h5zm8 0v1h-5v-1h5zm8 0v1h-5v-1h5zm8 0v1h-5v-1h5zm8 0v1h-5v-1h5zm8 0v1h-5v-1h5zm8 0v1h-5v-1h5zm8 0v1h-5v-1h5zm8 0v1h-5v-1h5zm8 0v1h-5v-1h5zm8 0v1h-5v-1h5zm8 0v1h-5v-1h5zm8 0v1h-5v-1h5zm8 0v1h-5v-1h5zm8 0v1h-5v-1h5zm8 0v1h-5v-1h5zm8 0v1h-5v-1h5zm8 0v1h-5v-1h5zm8 0v1h-5v-1h5zm8 0v1h-5v-1h5zm8 0v1h-5v-1h5zm8 0v1h-5v-1h5zm8 0v1h-5v-1h5zm8 0v1h-5v-1h5zm8 0v1h-5v-1h5zm8 0v1h-5v-1h5zm8 0v1h-5v-1h5zm8 0v1h-5v-1h5zm8 0v1h-5v-1h5z" transform="translate(135) translate(295)"/>
            </g>
            <g>
                <g transform="translate(135) translate(.5) translate(89)">
                    <circle cx="50" cy="50" r="50" fill="#EA6957"/>
                    <g>
                        <path fill="#000" d="M43.546 56.6c-.341 0-.684-.13-.953-.393l-7.5-7.07c-.565-.55-.596-1.475-.068-2.065.526-.59 1.41-.624 1.975-.072l7.5 7.07c.565.55.596 1.474.069 2.064-.276.31-.195.073-.569.073M47.639 51.61l-9.443-9.149c-.577-.556-.62-1.505-.096-2.119.524-.613 1.418-.658 1.995-.1l9.443 9.148c.577.557.62 1.506.095 2.119-.279.325-.662.491-1.046.491-.338 0-.678-.129-.948-.39zM52.639 46.61l-8.763-7.89c-.577-.557-.62-1.506-.096-2.12.524-.613 1.418-.658 1.994-.1l8.764 7.89c.577.557.62 1.506.095 2.119-.279.325-.662.491-1.046.491-.338 0-.678-.129-.948-.39zM11.071 34.995c-1.089-2.607-1.965-5.984-1.998-6.088-.258-.77.192-1.593 1.004-1.838.81-.245 1.68.181 1.939.953.009.025.88 3.386 1.927 5.894.315.752-.074 1.603-.867 1.901-.186.07-.38.104-.568.104-.615 0-1.197-.352-1.437-.926z" transform="translate(14.5 25)"/>
                        <path fill="#000" d="M35.806 58.55c-.472-.15-.497.34-3.728-2.722-.565-.536-.604-1.444-.086-2.028.518-.584 1.395-.626 1.96-.09 2.435 2.308 2.543 1.99 2.745 2.118 1.781.526 5.574.386 6.704-.783 1.553-1.606 8.696-9.684 11.044-12.337l.477-.54c.7-.792.056-3.324-.715-4.998L37.92 22c-.576-.523-.634-1.43-.129-2.026.505-.597 1.381-.657 1.958-.135l16.492 15.358c.133.12.241.264.322.425.474.957 2.724 5.864.405 8.485l-.477.54c-4.093 4.626-9.698 10.948-11.128 12.429C43.984 58.505 41.485 59 39.258 59c-1.355 0-2.608-.183-3.452-.45zM29.43 19c-.117 0-.238-.015-.358-.046-3.407-.884-6.715-1.474-6.748-1.48-.858-.152-1.44-1.048-1.304-2 .136-.954.946-1.604 1.798-1.452.14.025 3.448.615 6.968 1.528.845.22 1.37 1.159 1.172 2.099-.168.806-.815 1.351-1.528 1.351" transform="translate(14.5 25)"/>
                        <path fill="#FFF" d="M55 33.916l-1.907-1.908 3.58-3.589c.671-.672 2.212-7.114 2.483-8.465.146-.73.852-1.205 1.588-1.058.73.146 1.204.857 1.058 1.588-.139.693-1.734 8.355-3.221 9.842L55 33.916zM31.238 48.916c-.451 0-.871.179-1.182.503l-1.67 1.746c-.301.313-.46.724-.45 1.157.011.431.192.835.507 1.132l.195.185c.631.596 1.705.57 2.306-.058l1.67-1.745c.3-.314.46-.725.45-1.157-.012-.432-.192-.834-.507-1.132l-.194-.183c-.306-.29-.705-.448-1.125-.448M29.762 57c-1.177 0-2.294-.444-3.148-1.249l-.194-.184c-.884-.835-1.388-1.961-1.419-3.172-.03-1.211.416-2.362 1.257-3.24l1.67-1.744c.858-.896 2.065-1.411 3.31-1.411 1.177 0 2.294.444 3.146 1.25l.194.181c.886.837 1.39 1.964 1.42 3.175.031 1.21-.415 2.362-1.256 3.239l-1.671 1.745c-.858.896-2.064 1.41-3.31 1.41" transform="translate(14.5 25)"/>
                        <path fill="#FFF" d="M26.237 43.916c-.451 0-.871.178-1.182.503l-1.672 1.746c-.619.646-.593 1.673.059 2.29l.193.182c.636.599 1.707.57 2.308-.057l1.67-1.744c.301-.314.46-.725.45-1.157-.011-.432-.191-.835-.507-1.133l-.195-.185c-.305-.287-.703-.445-1.124-.445M24.76 52c-1.176 0-2.295-.444-3.147-1.25l-.194-.182c-1.826-1.725-1.9-4.602-.163-6.413l1.67-1.745c.86-.897 2.066-1.41 3.311-1.41 1.177 0 2.295.443 3.147 1.249l.196.184c.884.835 1.389 1.961 1.419 3.173.03 1.211-.416 2.361-1.257 3.239l-1.67 1.745c-.859.896-2.066 1.41-3.312 1.41" transform="translate(14.5 25)"/>
                        <path fill="#FFF" d="M21.238 38.916c-.45 0-.87.179-1.18.503l-1.673 1.746c-.62.647-.595 1.674.058 2.29l.194.184c.633.596 1.707.57 2.307-.058l1.672-1.745c.62-.647.594-1.674-.058-2.29l-.194-.183c-.306-.289-.706-.447-1.126-.447M19.761 47c-1.177 0-2.295-.443-3.148-1.249l-.195-.184c-1.826-1.724-1.898-4.6-.161-6.412l1.67-1.745c.859-.896 2.066-1.41 3.311-1.41 1.177 0 2.295.444 3.148 1.25l.195.182c1.826 1.724 1.9 4.6.164 6.413l-1.673 1.745c-.858.897-2.065 1.41-3.311 1.41" transform="translate(14.5 25)"/>
                        <path fill="#FFF" d="M16.24 33.916c-.452 0-.872.178-1.182.502l-1.672 1.747c-.3.313-.459.724-.448 1.157.01.432.191.834.506 1.132l.194.183c.635.599 1.707.572 2.307-.056l1.671-1.745c.62-.648.594-1.674-.058-2.29l-.195-.184c-.304-.288-.703-.446-1.123-.446M14.762 42c-1.176 0-2.294-.443-3.146-1.249l-.194-.182c-.886-.837-1.39-1.964-1.42-3.174-.031-1.212.415-2.362 1.257-3.24l1.67-1.746c.859-.896 2.065-1.409 3.31-1.409 1.178 0 2.295.443 3.148 1.248l.196.185c1.824 1.724 1.897 4.6.162 6.412l-1.672 1.745c-.858.897-2.065 1.41-3.31 1.41M27.895 30c-1.686 0-3.146-.75-4.013-1.982-.711-1.009-1.358-2.838-.398-5.704.885-2.644 9.762-10.44 13.493-11.308.47-.109 1.175-.178 2.069-.259 1.308-.117 4.784-.432 5.368-1.097.43-.672 1.3-.85 1.953-.407.653.442.828 1.355.397 2.026-1.072 1.677-3.894 2.055-7.473 2.376-.692.062-1.409.126-1.69.19-2.826.658-10.874 7.813-11.443 9.405-.438 1.31-.434 2.382.014 3.017.46.653 1.318.742 1.781.729 1.25-.021 2.714-1.251 4.006-2.336.471-.396.96-.805 1.435-1.158.26-.193.788-.651 1.347-1.136 3.127-2.716 4.447-3.678 5.547-3.63.782.029 1.392.705 1.363 1.51-.027.747-.595 1.342-1.302 1.4-.705.274-2.855 2.14-3.784 2.948-.653.567-1.17 1.016-1.52 1.275-.406.3-.839.714-1.297 1.1C32.1 28.342 30.233 30 28 30h-.106z" transform="translate(14.5 25)"/>
                        <path stroke="#000" stroke-width="3" d="M18.064 5.788L24.836 12.793 6.805 31.793 0 25z" transform="translate(14.5 25)"/>
                        <path stroke="#FFF" stroke-width="3" d="M50.396 0L44 6.426 64.759 24 71 17.5z" transform="translate(14.5 25)"/>
                    </g>
                    <circle cx="56.5" cy="14" r="5" fill="#F69284"/>
                    <circle cx="86" cy="68.5" r="6.5" fill="#F69284"/>
                    <circle cx="49" cy="31.5" r="3.5" fill="#F69284"/>
                    <circle cx="25.5" cy="27" r="2" fill="#F69284"/>
                    <circle cx="86.5" cy="41" r="5" fill="#F69284"/>
                    <circle cx="17" cy="61.5" r="6.5" fill="#F69284"/>
                </g>
                <path fill="#222" fill-rule="nonzero" d="M65.56 138.28c3.42 0 5.44-2.06 5.44-4.48 0-2.14-1.18-3.28-2.98-4.02l-1.94-.82c-1.26-.5-2.32-.88-2.32-1.94 0-.98.84-1.56 2.14-1.56 1.22 0 2.2.44 3.14 1.22l1.5-1.86c-1.2-1.22-2.92-1.9-4.64-1.9-3 0-5.12 1.86-5.12 4.28 0 2.16 1.5 3.36 3 3.98l1.98.84c1.32.56 2.22.9 2.22 2 0 1.04-.82 1.7-2.36 1.7-1.3 0-2.7-.66-3.76-1.64l-1.7 2.04c1.44 1.38 3.42 2.16 5.4 2.16zm10.52-.28v-4.16l1.94-2.48 3.82 6.64h3.26l-5.32-8.98 4.52-5.82h-3.26l-4.9 6.42h-.06v-6.42h-2.96V138h2.96zM89 138v-6.18c0-1.4-.24-3.46-.38-4.86h.08l1.18 3.48 2.3 6.22h1.7l2.28-6.22 1.2-3.48h.08c-.14 1.4-.36 3.46-.36 4.86V138h2.7v-14.8H96.5l-2.46 6.92c-.32.92-.58 1.9-.9 2.86h-.1c-.3-.96-.58-1.94-.9-2.86l-2.52-6.92h-3.28V138H89zm18.34.28c3.42 0 5.44-2.06 5.44-4.48 0-2.14-1.18-3.28-2.98-4.02l-1.94-.82c-1.26-.5-2.32-.88-2.32-1.94 0-.98.84-1.56 2.14-1.56 1.22 0 2.2.44 3.14 1.22l1.5-1.86c-1.2-1.22-2.92-1.9-4.64-1.9-3 0-5.12 1.86-5.12 4.28 0 2.16 1.5 3.36 3 3.98l1.98.84c1.32.56 2.22.9 2.22 2 0 1.04-.82 1.7-2.36 1.7-1.3 0-2.7-.66-3.76-1.64l-1.7 2.04c1.44 1.38 3.42 2.16 5.4 2.16zm12.02 3.36l4.96-19.74h-1.96l-4.96 19.74h1.96zm15.3-3.36c3.42 0 5.44-2.06 5.44-4.48 0-2.14-1.18-3.28-2.98-4.02l-1.94-.82c-1.26-.5-2.32-.88-2.32-1.94 0-.98.84-1.56 2.14-1.56 1.22 0 2.2.44 3.14 1.22l1.5-1.86c-1.2-1.22-2.92-1.9-4.64-1.9-3 0-5.12 1.86-5.12 4.28 0 2.16 1.5 3.36 3 3.98l1.98.84c1.32.56 2.22.9 2.22 2 0 1.04-.82 1.7-2.36 1.7-1.3 0-2.7-.66-3.76-1.64l-1.7 2.04c1.44 1.38 3.42 2.16 5.4 2.16zm10.52-.28v-4.16l1.94-2.48 3.82 6.64h3.26l-5.32-8.98 4.52-5.82h-3.26l-4.9 6.42h-.06v-6.42h-2.96V138h2.96zm20.42 0l4.54-14.8h-3l-1.92 7.2c-.46 1.64-.8 3.12-1.26 4.78h-.1c-.48-1.66-.78-3.14-1.24-4.78l-1.96-7.2h-3.1l4.52 14.8h3.52zm7.54.28c1.28 0 2.4-.64 3.38-1.48h.06l.22 1.2h2.4v-6.54c0-3.24-1.46-4.94-4.3-4.94-1.76 0-3.36.66-4.68 1.48l1.06 1.94c1.04-.6 2.04-1.06 3.08-1.06 1.38 0 1.86.84 1.9 1.94-4.5.48-6.44 1.74-6.44 4.14 0 1.9 1.32 3.32 3.32 3.32zm.96-2.3c-.86 0-1.48-.38-1.48-1.26 0-1 .92-1.74 3.64-2.1v2.26c-.7.7-1.32 1.1-2.16 1.1zm10.36 2.3c.68 0 1.18-.12 1.52-.26l-.36-2.18c-.2.04-.28.04-.4.04-.28 0-.6-.22-.6-.88v-12.96h-2.92v12.82c0 2.08.72 3.42 2.76 3.42zm6.36 0c1.54 0 2.62-.74 3.58-1.88h.08l.22 1.6h2.4v-11.2h-2.94v7.56c-.76 1-1.36 1.4-2.28 1.4-1.08 0-1.56-.6-1.56-2.34v-6.62h-2.94v7c0 2.8 1.04 4.48 3.44 4.48zm13.78 0c1.4 0 2.82-.48 3.92-1.24l-1-1.8c-.8.5-1.6.78-2.52.78-1.66 0-2.86-.96-3.1-2.8h6.9c.08-.26.14-.8.14-1.34 0-3.1-1.6-5.36-4.68-5.36-2.68 0-5.22 2.26-5.22 5.9 0 3.68 2.44 5.86 5.56 5.86zm1.82-7h-4.56c.22-1.64 1.26-2.48 2.44-2.48 1.44 0 2.12.96 2.12 2.48zm7.64 7c2.92 0 4.46-1.58 4.46-3.54 0-2.08-1.64-2.82-3.12-3.38-1.18-.44-2.28-.74-2.28-1.56 0-.64.48-1.08 1.48-1.08.84 0 1.62.4 2.42.96l1.32-1.78c-.94-.7-2.18-1.38-3.82-1.38-2.52 0-4.16 1.42-4.16 3.44 0 1.86 1.64 2.72 3.06 3.26 1.18.46 2.34.84 2.34 1.68 0 .7-.5 1.18-1.62 1.18-1.04 0-2-.44-3-1.22l-1.34 1.84c1.1.92 2.76 1.58 4.26 1.58z" transform="translate(135) translate(.5)"/>
                <path fill="#EA6957" fill-rule="nonzero" d="M139.5 182v4h-2v-4h2zm0-6v4h-2v-4h2zm0-6v4h-2v-4h2zm0-6v4h-2v-4h2zm-1-18c3.866 0 7 3.134 7 7 0 3.526-2.607 6.443-5.999 6.929L139.5 162h-2v-2.07c-3.392-.486-6-3.404-6-6.93 0-3.866 3.134-7 7-7z" transform="translate(135) translate(.5)"/>
                <path fill="#000" fill-rule="nonzero" d="M276.001 182h1v.5l-.002 8v.5h-1v-4l-4-.001h-.5l.001-1h4.5v-3.5l.001-.5zm-275.5-.063v.5l-.001 3.5 3.5.001h.5v1H4l-3.501-.001v4h-1v-4l.001-1v-3.5l.001-.5h1zm263.5 4.06l4 .001h.5l-.001 1h-5v-1h.5zm-8-.002l4 .001h.5l-.001 1h-5v-1h.5zm-8-.001h4.5l-.001 1h-5v-1h.5zm-8-.002h4.5l-.001 1h-5v-1h.5zm-8-.002h4.5l-.001 1h-5v-1h.5zm-8.5-.002h.5l4 .001h.5l-.001 1H224l-.5-.001v-1zm-7.5-.002l4 .001h.5l-.001 1h-5v-1h.5zm-8-.002l4 .001h.5l-.001 1h-5v-1h.5zm-8-.001h4.5l-.001 1h-5v-1h.5zm-8-.002h4.5l-.001 1h-5v-1h.5zm-8.5-.002h.5l4 .001h.5l-.001 1h-.5l-4-.001h-.5v-1zm-7.5-.002l4 .001h.5l-.001 1h-5v-1h.5zm-8-.002l4 .001h.5l-.001 1h-5v-1h.5zm-8-.001h4.5l-.001 1h-5v-1h.5zm-8-.002h4.5l-.001 1h-5v-1h.5zm-8-.002h4l.5.001-.001 1h-.5l-4-.001h-.5v-1h.5zm-8-.002l4 .001h.5l-.001 1h-5v-1h.5zm-8-.002l4 .001h.5l-.001 1h-5v-1h.5zm-8-.001h4.5l-.001 1h-5v-1h.5zm-8-.002h4.5l-.001 1h-5v-1h.5zm-8-.002h4.5l-.001 1h-5v-1h.5zm-8-.002l4 .001h.5l-.001 1H96l-.5-.001v-1h.5zm-8-.002l4 .001h.5l-.001 1h-5v-1h.5zm-8-.002l4 .001h.5l-.001 1h-5v-1h.5zm-8-.001h4.5l-.001 1h-5v-1h.5zm-8-.002h4.5l-.001 1h-5v-1h.5zm-8.5-.002h.5l4 .001h.5l-.001 1H56l-.5-.001v-1zm-7.5-.002l4 .001h.5l-.001 1h-5v-1h.5zm-8-.002l4 .001h.5l-.001 1h-5v-1h.5zm-8-.001h4.5l-.001 1h-5v-1h.5zm-8-.002h4.5l-.001 1h-5v-1h.5zm-8-.002h4l.5.001-.001 1H20l-4-.001h-.5v-1h.5zm-8-.002l4 .001h.5l-.001 1h-5v-1H8z" transform="translate(135) translate(.5)"/>
            </g>
        </g>
    </g>
</svg>
