<svg xmlns="http://www.w3.org/2000/svg" xmlns:xlink="http://www.w3.org/1999/xlink" width="1200" height="789" viewBox="0 0 1200 789">
    <defs>
        <path id="evd8lljf9d" d="M0 0h79c43.63 0 79 35.37 79 79s-35.37 79-79 79S0 122.63 0 79V0z"/>
        <path id="bsqtt3cave" d="M0.185 0.113L8.187 0.113 8.187 12.071 0.185 12.071z"/>
        <path id="rtnjmg4vkh" d="M0 0h79c43.63 0 79 35.37 79 79s-35.37 79-79 79S0 122.63 0 79V0z"/>
        <path id="17vipvm39i" d="M0.185 0.113L8.187 0.113 8.187 12.071 0.185 12.071z"/>
        <path id="7hauurgmll" d="M0 0h79c43.63 0 79 35.37 79 79s-35.37 79-79 79S0 122.63 0 79V0z"/>
        <path id="eonirtq16m" d="M0.185 0.113L8.187 0.113 8.187 12.071 0.185 12.071z"/>
        <path id="b55buej71p" d="M0.415 0.271L55.451 0.271 55.451 54.324 0.415 54.324z"/>
        <filter id="i509quomrc" width="112.7%" height="112.7%" x="-6.3%" y="-5.1%" filterUnits="objectBoundingBox">
            <feOffset dy="2" in="SourceAlpha" result="shadowOffsetOuter1"/>
            <feGaussianBlur in="shadowOffsetOuter1" result="shadowBlurOuter1" stdDeviation="3"/>
            <feColorMatrix in="shadowBlurOuter1" values="0 0 0 0 0.8 0 0 0 0 0.831372549 0 0 0 0 0.905882353 0 0 0 1 0"/>
        </filter>
        <filter id="4nk6bhvxpg" width="112.7%" height="112.7%" x="-6.3%" y="-5.1%" filterUnits="objectBoundingBox">
            <feOffset dy="2" in="SourceAlpha" result="shadowOffsetOuter1"/>
            <feGaussianBlur in="shadowOffsetOuter1" result="shadowBlurOuter1" stdDeviation="3"/>
            <feColorMatrix in="shadowBlurOuter1" values="0 0 0 0 0.8 0 0 0 0 0.831372549 0 0 0 0 0.905882353 0 0 0 1 0"/>
        </filter>
        <filter id="hkvfj4jghk" width="112.7%" height="112.7%" x="-6.3%" y="-5.1%" filterUnits="objectBoundingBox">
            <feOffset dy="2" in="SourceAlpha" result="shadowOffsetOuter1"/>
            <feGaussianBlur in="shadowOffsetOuter1" result="shadowBlurOuter1" stdDeviation="3"/>
            <feColorMatrix in="shadowBlurOuter1" values="0 0 0 0 0.8 0 0 0 0 0.831372549 0 0 0 0 0.905882353 0 0 0 1 0"/>
        </filter>
        <circle id="gvzqvjo8na" cx="90" cy="90" r="90"/>
        <circle id="ul0c5yv4jb" cx="90" cy="90" r="90"/>
        <mask id="3h6mfv494o" width="180" height="180" x="0" y="0" fill="#fff" maskContentUnits="userSpaceOnUse" maskUnits="objectBoundingBox">
            <use xlink:href="#gvzqvjo8na"/>
        </mask>
        <mask id="97tzwxibtr" width="180" height="180" x="0" y="0" fill="#fff" maskContentUnits="userSpaceOnUse" maskUnits="objectBoundingBox">
            <use xlink:href="#ul0c5yv4jb"/>
        </mask>
    </defs>
    <g fill="none" fill-rule="evenodd">
        <g transform="translate(0 240)">
            <g>
                <text fill="#666" font-family="NotoSansCJKkr-Regular, Noto Sans CJK KR" font-size="20" letter-spacing="-.6" transform="translate(20 280)">
                    <tspan x="0" y="201">- 해당 분야를 이해하는 수준</tspan>
                </text>
                <text fill="#666" font-family="NotoSansCJKkr-Regular, Noto Sans CJK KR" font-size="20" letter-spacing="-.6" transform="translate(20 280)">
                    <tspan x="0" y="234">- 업무수행과 역량 향상에 간접적으로</tspan> <tspan x="0" y="263"> 도움이 되는 Badge</tspan>
                </text>
                <text fill="#6C788F" font-family="NotoSansCJKkr-Regular, Noto Sans CJK KR" font-size="20" transform="translate(20 280)">
                    <tspan x="208" y="69">Lv.1</tspan>
                </text>
                <path fill="#1F497D" fill-rule="nonzero" d="M12 18L4.947 21.708 6.294 13.854 0.587 8.292 8.473 7.146 12 0 15.527 7.146 23.413 8.292 17.706 13.854 19.053 21.708z" transform="translate(20 280) translate(178 49)"/>
                <text fill="#222" font-family="NotoSansCJKkr-Bold, Noto Sans CJK KR" font-size="20" font-weight="bold" letter-spacing="-.6" transform="translate(20 280)">
                    <tspan x="178" y="107">이해</tspan>
                </text>
                <g fill-rule="nonzero" transform="translate(20 280)">
                    <use fill="#000" filter="url(#i509quomrc)" xlink:href="#evd8lljf9d"/>
                    <use fill="#1F497D" xlink:href="#evd8lljf9d"/>
                    <circle cx="79" cy="79" r="67.509" fill="#FFF"/>
                    <path fill="#1F497D" d="M147.084 71.1c.253 2.33.383 4.696.383 7.09 0 10.703-2.592 20.816-7.198 29.777H17.73c-4.606-8.961-7.198-19.074-7.198-29.776 0-2.395.13-4.761.383-7.091z"/>
                </g>
                <text fill="#FFF" font-family="NotoSansCJKkr-Bold, Noto Sans CJK KR" font-size="14" font-weight="bold" transform="translate(20 280)">
                    <tspan x="57.342" y="94">Badge</tspan>
                </text>
                <g>
                    <g transform="translate(20 280) translate(52.305 40) translate(18.544)">
                        <mask id="j3rqa56hkf" fill="#fff">
                            <use xlink:href="#bsqtt3cave"/>
                        </mask>
                        <path fill="#E1002A" d="M7.084 2.69c-.184-.11-.38-.21-.59-.302-.21-.092-.426-.17-.647-.235-.22-.066-.441-.116-.663-.153-.222-.037-.435-.055-.64-.055-.27 0-.52.023-.75.07-.229.046-.426.117-.593.212-.166.094-.297.213-.39.356-.093.143-.14.308-.14.498 0 .141.021.268.063.38.043.112.1.212.173.301.073.089.158.168.252.24.095.07.195.135.3.195.254.141.52.283.797.426l.83.428c.275.143.542.287.801.43.258.144.496.288.715.429.292.19.539.387.74.596.202.208.365.426.49.656.126.231.217.472.272.726.055.253.083.516.083.79 0 .397-.058.755-.172 1.076-.116.321-.277.608-.483.858-.205.252-.448.47-.73.654-.283.183-.589.335-.92.454-.331.119-.68.207-1.046.265-.366.058-.738.086-1.114.086-.362 0-.722-.019-1.08-.058-.357-.04-.713-.11-1.07-.208-.177-.051-.349-.106-.514-.166-.165-.059-.311-.133-.438-.223-.126-.09-.228-.199-.304-.33-.076-.131-.114-.295-.114-.49 0-.152.03-.287.086-.403.056-.116.135-.214.236-.293.1-.08.219-.139.355-.178.135-.04.28-.06.435-.06.149 0 .296.02.44.058.145.039.287.081.427.13.3.098.597.168.889.21.292.04.555.062.792.062.227 0 .454-.02.679-.054.224-.035.426-.1.604-.19.177-.093.322-.218.433-.379.11-.159.166-.365.166-.617 0-.126-.02-.243-.058-.347-.04-.105-.093-.2-.159-.287-.065-.086-.141-.163-.226-.233-.087-.07-.179-.134-.275-.193-.12-.073-.264-.157-.436-.25-.17-.093-.35-.19-.542-.29-.191-.1-.386-.202-.584-.303-.198-.103-.386-.198-.562-.289-.178-.091-.336-.173-.476-.248-.14-.075-.248-.135-.324-.18-.292-.178-.556-.363-.792-.556-.236-.192-.438-.404-.604-.638C.54 4.835.411 4.573.321 4.28c-.09-.29-.136-.623-.136-.996 0-.402.058-.76.175-1.071.117-.313.278-.586.483-.82.206-.235.448-.434.725-.598.277-.165.577-.296.9-.397.322-.1.658-.172 1.009-.219.35-.045.7-.067 1.05-.067.353 0 .697.018 1.03.057.332.038.65.092.952.161.301.069.584.152.848.249.265.095.506.2.725.313L7.084 2.69z" mask="url(#j3rqa56hkf)"/>
                    </g>
                    <path fill="#E1002A" d="M31.293.14v7.018c0 .363.008.685.023.964.017.28.048.529.095.743.046.214.11.402.188.56.079.157.182.296.31.415.122.116.255.21.395.28.14.073.282.126.425.164.144.037.288.064.43.076.144.013.28.02.408.02.117 0 .244-.013.382-.037.139-.024.279-.063.419-.113.139-.05.276-.116.41-.196.134-.08.257-.175.367-.285.117-.116.21-.251.278-.405.07-.155.122-.337.158-.551.037-.213.06-.46.07-.742.01-.282.015-.608.015-.98V1.127c0-.182.03-.343.09-.484.06-.14.144-.26.252-.356.107-.094.234-.167.38-.215.146-.048.305-.072.477-.072.18 0 .344.027.492.08.147.05.273.125.378.223.105.098.186.216.243.355.057.14.085.296.085.47v5.89c0 .131 0 .266-.003.406 0 .14-.003.25-.006.334-.008.373-.042.733-.1 1.08-.059.35-.155.685-.29 1.01-.192.469-.438.857-.736 1.167-.299.312-.63.56-.995.747-.365.188-.753.32-1.163.399-.412.078-.824.117-1.238.117-.323 0-.656-.025-.995-.072-.34-.047-.673-.128-.997-.239-.326-.112-.636-.258-.932-.438-.296-.18-.562-.403-.798-.666-.207-.229-.375-.464-.505-.707-.13-.242-.232-.494-.306-.756-.075-.26-.126-.533-.155-.815-.03-.284-.046-.579-.049-.887-.003-.114-.004-.225-.004-.335V.139h2.502zM43.979.472l2.404 4.412.313.581c.116.218.239.45.368.7.13.248.265.509.403.783s.277.552.415.833c.139.28.274.563.407.847.133.284.257.56.375.83h.07c-.046-.417-.088-.826-.125-1.229-.037-.402-.069-.808-.095-1.22-.027-.411-.046-.835-.059-1.271-.014-.436-.02-.896-.02-1.382V.472h2.316v10.161c0 .336-.049.601-.146.797-.07.142-.16.264-.272.368-.11.104-.235.19-.371.257-.137.07-.285.12-.442.154-.158.034-.32.05-.485.05-.335 0-.649-.083-.939-.248-.29-.166-.543-.44-.758-.82l-1.998-3.53c-.17-.301-.344-.614-.521-.94-.177-.324-.359-.672-.546-1.045-.187-.372-.38-.773-.579-1.205-.2-.431-.404-.903-.617-1.417h-.083c.05.439.094.882.134 1.328.04.446.073.884.1 1.318.026.432.047.856.06 1.269.013.413.02.809.02 1.186v2.858c0 .204-.024.376-.069.517-.046.14-.118.268-.215.38-.094.111-.212.2-.355.266-.143.068-.317.102-.52.102s-.377-.034-.521-.102c-.145-.066-.264-.155-.358-.265-.097-.113-.168-.24-.212-.38-.044-.142-.067-.314-.067-.518V.473h2.988zM56.119.472V10.93c0 .217-.025.4-.072.55-.05.15-.124.286-.223.405-.1.12-.226.215-.38.287-.153.07-.335.106-.545.106-.21 0-.393-.035-.547-.106-.154-.072-.28-.167-.38-.287-.1-.119-.172-.254-.221-.404-.049-.151-.072-.334-.072-.551V.472h2.44z" transform="translate(20 280) translate(52.305 40)"/>
                    <path fill="#000" d="M4.54 11.955l-.85.323.017-.149.045-.39.04-.37.288-2.373.04-.27c.016-.14.023-.277.023-.412 0-.341-.112-.512-.337-.512-.351 0-.76.332-1.228.993-.466.663-.736 1.293-.809 1.892l-.146 1.268-.855.323.016-.149.046-.39.046-.37.293-2.452.034-.28c.027-.218.04-.395.04-.528 0-.226-.06-.338-.183-.338-.287 0-.596.299-.928.898C.043 8.602 0 8.543 0 8.495c0-.212.209-.5.626-.865.419-.364.75-.547.995-.547.327 0 .491.194.491.581 0 .1-.009.231-.028.397l-.046.428-.047.36-.047.374.16-.232c.855-1.272 1.65-1.908 2.385-1.908.355 0 .532.237.532.709 0 .08-.015.252-.045.512l-.058.486-.079.66c.355-.68.774-1.244 1.26-1.693.486-.45.92-.674 1.301-.674.377 0 .566.226.566.677 0 .193-.022.424-.066.692l-.304 1.96c-.068.405-.101.72-.101.941 0 .186.056.28.167.28.13 0 .294-.1.492-.3.197-.202.355-.43.474-.683.104.064.156.121.156.175 0 .221-.214.519-.64.893-.427.373-.767.56-1.02.56-.325 0-.487-.201-.487-.603 0-.253.042-.646.126-1.178l.204-1.274.04-.3c.006-.064.02-.172.04-.323.018-.151.028-.268.028-.349 0-.3-.107-.449-.32-.449-.357 0-.772.332-1.246.993-.473.663-.745 1.293-.817 1.892l-.153 1.268zM13.534 10.172c-.393.676-.804 1.236-1.232 1.677-.43.44-.78.662-1.053.662-.373 0-.58-.371-.618-1.113l-.04-.766-.076-1.56-.018-.445c-.035-.591-.15-.888-.344-.888-.303 0-.597.271-.885.811-.101-.066-.151-.137-.151-.215 0-.199.189-.456.565-.772.378-.316.684-.474.922-.474.245 0 .418.104.52.312.1.208.166.591.198 1.15l.107 1.93c.038.735.162 1.103.372 1.103.313 0 .703-.341 1.168-1.024.465-.682.764-1.352.895-2.01l.226-1.124 1.038-.343c-.132.324-.268.813-.408 1.467l-.78 3.699c-.307 1.447-.781 2.517-1.422 3.208C11.56 16.486 10.448 17 9.187 17c-.265 0-.562-.056-.891-.167l.717-.748c.364.154.746.231 1.142.231.808 0 1.414-.248 1.818-.743.405-.495.742-1.404 1.015-2.726l.546-2.675z" transform="translate(20 280) translate(52.305 40)"/>
                </g>
                <path fill="#1F497D" fill-rule="nonzero" d="M6.5 9.75L2.733 11.759 3.452 7.504 0.405 4.491 4.616 3.871 6.5 0 8.384 3.871 12.595 4.491 9.548 7.504 10.267 11.759z" transform="translate(20 280) translate(73 119)"/>
                <g>
                    <g fill-rule="nonzero" transform="translate(20 280) translate(389)">
                        <use fill="#000" filter="url(#4nk6bhvxpg)" xlink:href="#rtnjmg4vkh"/>
                        <use fill="#1F497D" xlink:href="#rtnjmg4vkh"/>
                        <circle cx="79" cy="79" r="67.509" fill="#FFF"/>
                        <path fill="#1F497D" d="M147.084 71.1c.253 2.33.383 4.696.383 7.09 0 10.703-2.592 20.816-7.198 29.777H17.73c-4.606-8.961-7.198-19.074-7.198-29.776 0-2.395.13-4.761.383-7.091z"/>
                    </g>
                    <text fill="#FFF" font-family="NotoSansCJKkr-Bold, Noto Sans CJK KR" font-size="14" font-weight="bold" transform="translate(20 280) translate(389)">
                        <tspan x="57.342" y="94">Badge</tspan>
                    </text>
                    <g>
                        <g transform="translate(20 280) translate(389) translate(52.305 40) translate(18.544)">
                            <mask id="9f9jfa7zvj" fill="#fff">
                                <use xlink:href="#17vipvm39i"/>
                            </mask>
                            <path fill="#E1002A" d="M7.084 2.69c-.184-.11-.38-.21-.59-.302-.21-.092-.426-.17-.647-.235-.22-.066-.441-.116-.663-.153-.222-.037-.435-.055-.64-.055-.27 0-.52.023-.75.07-.229.046-.426.117-.593.212-.166.094-.297.213-.39.356-.093.143-.14.308-.14.498 0 .141.021.268.063.38.043.112.1.212.173.301.073.089.158.168.252.24.095.07.195.135.3.195.254.141.52.283.797.426l.83.428c.275.143.542.287.801.43.258.144.496.288.715.429.292.19.539.387.74.596.202.208.365.426.49.656.126.231.217.472.272.726.055.253.083.516.083.79 0 .397-.058.755-.172 1.076-.116.321-.277.608-.483.858-.205.252-.448.47-.73.654-.283.183-.589.335-.92.454-.331.119-.68.207-1.046.265-.366.058-.738.086-1.114.086-.362 0-.722-.019-1.08-.058-.357-.04-.713-.11-1.07-.208-.177-.051-.349-.106-.514-.166-.165-.059-.311-.133-.438-.223-.126-.09-.228-.199-.304-.33-.076-.131-.114-.295-.114-.49 0-.152.03-.287.086-.403.056-.116.135-.214.236-.293.1-.08.219-.139.355-.178.135-.04.28-.06.435-.06.149 0 .296.02.44.058.145.039.287.081.427.13.3.098.597.168.889.21.292.04.555.062.792.062.227 0 .454-.02.679-.054.224-.035.426-.1.604-.19.177-.093.322-.218.433-.379.11-.159.166-.365.166-.617 0-.126-.02-.243-.058-.347-.04-.105-.093-.2-.159-.287-.065-.086-.141-.163-.226-.233-.087-.07-.179-.134-.275-.193-.12-.073-.264-.157-.436-.25-.17-.093-.35-.19-.542-.29-.191-.1-.386-.202-.584-.303-.198-.103-.386-.198-.562-.289-.178-.091-.336-.173-.476-.248-.14-.075-.248-.135-.324-.18-.292-.178-.556-.363-.792-.556-.236-.192-.438-.404-.604-.638C.54 4.835.411 4.573.321 4.28c-.09-.29-.136-.623-.136-.996 0-.402.058-.76.175-1.071.117-.313.278-.586.483-.82.206-.235.448-.434.725-.598.277-.165.577-.296.9-.397.322-.1.658-.172 1.009-.219.35-.045.7-.067 1.05-.067.353 0 .697.018 1.03.057.332.038.65.092.952.161.301.069.584.152.848.249.265.095.506.2.725.313L7.084 2.69z" mask="url(#9f9jfa7zvj)"/>
                        </g>
                        <path fill="#E1002A" d="M31.293.14v7.018c0 .363.008.685.023.964.017.28.048.529.095.743.046.214.11.402.188.56.079.157.182.296.31.415.122.116.255.21.395.28.14.073.282.126.425.164.144.037.288.064.43.076.144.013.28.02.408.02.117 0 .244-.013.382-.037.139-.024.279-.063.419-.113.139-.05.276-.116.41-.196.134-.08.257-.175.367-.285.117-.116.21-.251.278-.405.07-.155.122-.337.158-.551.037-.213.06-.46.07-.742.01-.282.015-.608.015-.98V1.127c0-.182.03-.343.09-.484.06-.14.144-.26.252-.356.107-.094.234-.167.38-.215.146-.048.305-.072.477-.072.18 0 .344.027.492.08.147.05.273.125.378.223.105.098.186.216.243.355.057.14.085.296.085.47v5.89c0 .131 0 .266-.003.406 0 .14-.003.25-.006.334-.008.373-.042.733-.1 1.08-.059.35-.155.685-.29 1.01-.192.469-.438.857-.736 1.167-.299.312-.63.56-.995.747-.365.188-.753.32-1.163.399-.412.078-.824.117-1.238.117-.323 0-.656-.025-.995-.072-.34-.047-.673-.128-.997-.239-.326-.112-.636-.258-.932-.438-.296-.18-.562-.403-.798-.666-.207-.229-.375-.464-.505-.707-.13-.242-.232-.494-.306-.756-.075-.26-.126-.533-.155-.815-.03-.284-.046-.579-.049-.887-.003-.114-.004-.225-.004-.335V.139h2.502zM43.979.472l2.404 4.412.313.581c.116.218.239.45.368.7.13.248.265.509.403.783s.277.552.415.833c.139.28.274.563.407.847.133.284.257.56.375.83h.07c-.046-.417-.088-.826-.125-1.229-.037-.402-.069-.808-.095-1.22-.027-.411-.046-.835-.059-1.271-.014-.436-.02-.896-.02-1.382V.472h2.316v10.161c0 .336-.049.601-.146.797-.07.142-.16.264-.272.368-.11.104-.235.19-.371.257-.137.07-.285.12-.442.154-.158.034-.32.05-.485.05-.335 0-.649-.083-.939-.248-.29-.166-.543-.44-.758-.82l-1.998-3.53c-.17-.301-.344-.614-.521-.94-.177-.324-.359-.672-.546-1.045-.187-.372-.38-.773-.579-1.205-.2-.431-.404-.903-.617-1.417h-.083c.05.439.094.882.134 1.328.04.446.073.884.1 1.318.026.432.047.856.06 1.269.013.413.02.809.02 1.186v2.858c0 .204-.024.376-.069.517-.046.14-.118.268-.215.38-.094.111-.212.2-.355.266-.143.068-.317.102-.52.102s-.377-.034-.521-.102c-.145-.066-.264-.155-.358-.265-.097-.113-.168-.24-.212-.38-.044-.142-.067-.314-.067-.518V.473h2.988zM56.119.472V10.93c0 .217-.025.4-.072.55-.05.15-.124.286-.223.405-.1.12-.226.215-.38.287-.153.07-.335.106-.545.106-.21 0-.393-.035-.547-.106-.154-.072-.28-.167-.38-.287-.1-.119-.172-.254-.221-.404-.049-.151-.072-.334-.072-.551V.472h2.44z" transform="translate(20 280) translate(389) translate(52.305 40)"/>
                        <path fill="#000" d="M4.54 11.955l-.85.323.017-.149.045-.39.04-.37.288-2.373.04-.27c.016-.14.023-.277.023-.412 0-.341-.112-.512-.337-.512-.351 0-.76.332-1.228.993-.466.663-.736 1.293-.809 1.892l-.146 1.268-.855.323.016-.149.046-.39.046-.37.293-2.452.034-.28c.027-.218.04-.395.04-.528 0-.226-.06-.338-.183-.338-.287 0-.596.299-.928.898C.043 8.602 0 8.543 0 8.495c0-.212.209-.5.626-.865.419-.364.75-.547.995-.547.327 0 .491.194.491.581 0 .1-.009.231-.028.397l-.046.428-.047.36-.047.374.16-.232c.855-1.272 1.65-1.908 2.385-1.908.355 0 .532.237.532.709 0 .08-.015.252-.045.512l-.058.486-.079.66c.355-.68.774-1.244 1.26-1.693.486-.45.92-.674 1.301-.674.377 0 .566.226.566.677 0 .193-.022.424-.066.692l-.304 1.96c-.068.405-.101.72-.101.941 0 .186.056.28.167.28.13 0 .294-.1.492-.3.197-.202.355-.43.474-.683.104.064.156.121.156.175 0 .221-.214.519-.64.893-.427.373-.767.56-1.02.56-.325 0-.487-.201-.487-.603 0-.253.042-.646.126-1.178l.204-1.274.04-.3c.006-.064.02-.172.04-.323.018-.151.028-.268.028-.349 0-.3-.107-.449-.32-.449-.357 0-.772.332-1.246.993-.473.663-.745 1.293-.817 1.892l-.153 1.268zM13.534 10.172c-.393.676-.804 1.236-1.232 1.677-.43.44-.78.662-1.053.662-.373 0-.58-.371-.618-1.113l-.04-.766-.076-1.56-.018-.445c-.035-.591-.15-.888-.344-.888-.303 0-.597.271-.885.811-.101-.066-.151-.137-.151-.215 0-.199.189-.456.565-.772.378-.316.684-.474.922-.474.245 0 .418.104.52.312.1.208.166.591.198 1.15l.107 1.93c.038.735.162 1.103.372 1.103.313 0 .703-.341 1.168-1.024.465-.682.764-1.352.895-2.01l.226-1.124 1.038-.343c-.132.324-.268.813-.408 1.467l-.78 3.699c-.307 1.447-.781 2.517-1.422 3.208C11.56 16.486 10.448 17 9.187 17c-.265 0-.562-.056-.891-.167l.717-.748c.364.154.746.231 1.142.231.808 0 1.414-.248 1.818-.743.405-.495.742-1.404 1.015-2.726l.546-2.675z" transform="translate(20 280) translate(389) translate(52.305 40)"/>
                    </g>
                    <g fill="#1F497D" fill-rule="nonzero">
                        <path d="M6.429 9.75L2.65 11.759 3.372 7.504.315 4.491 4.539 3.871 6.429 0 8.318 3.871 12.543 4.491 9.486 7.504 10.207 11.759zM23.571 9.75L19.793 11.759 20.514 7.504 17.457 4.491 21.682 3.871 23.571 0 25.461 3.871 29.685 4.491 26.628 7.504 27.35 11.759z" transform="translate(20 280) translate(389) translate(65 119)"/>
                    </g>
                </g>
                <g>
                    <g fill-rule="nonzero" transform="translate(20 280) translate(826)">
                        <use fill="#000" filter="url(#hkvfj4jghk)" xlink:href="#7hauurgmll"/>
                        <use fill="#1F497D" xlink:href="#7hauurgmll"/>
                        <circle cx="79" cy="79" r="67.509" fill="#FFF"/>
                        <path fill="#1F497D" d="M147.084 71.1c.253 2.33.383 4.696.383 7.09 0 10.703-2.592 20.816-7.198 29.777H17.73c-4.606-8.961-7.198-19.074-7.198-29.776 0-2.395.13-4.761.383-7.091z"/>
                    </g>
                    <text fill="#FFF" font-family="NotoSansCJKkr-Bold, Noto Sans CJK KR" font-size="14" font-weight="bold" transform="translate(20 280) translate(826)">
                        <tspan x="57.342" y="94">Badge</tspan>
                    </text>
                    <g>
                        <g transform="translate(20 280) translate(826) translate(52.305 40) translate(18.544)">
                            <mask id="7tiw72cvkn" fill="#fff">
                                <use xlink:href="#eonirtq16m"/>
                            </mask>
                            <path fill="#E1002A" d="M7.084 2.69c-.184-.11-.38-.21-.59-.302-.21-.092-.426-.17-.647-.235-.22-.066-.441-.116-.663-.153-.222-.037-.435-.055-.64-.055-.27 0-.52.023-.75.07-.229.046-.426.117-.593.212-.166.094-.297.213-.39.356-.093.143-.14.308-.14.498 0 .141.021.268.063.38.043.112.1.212.173.301.073.089.158.168.252.24.095.07.195.135.3.195.254.141.52.283.797.426l.83.428c.275.143.542.287.801.43.258.144.496.288.715.429.292.19.539.387.74.596.202.208.365.426.49.656.126.231.217.472.272.726.055.253.083.516.083.79 0 .397-.058.755-.172 1.076-.116.321-.277.608-.483.858-.205.252-.448.47-.73.654-.283.183-.589.335-.92.454-.331.119-.68.207-1.046.265-.366.058-.738.086-1.114.086-.362 0-.722-.019-1.08-.058-.357-.04-.713-.11-1.07-.208-.177-.051-.349-.106-.514-.166-.165-.059-.311-.133-.438-.223-.126-.09-.228-.199-.304-.33-.076-.131-.114-.295-.114-.49 0-.152.03-.287.086-.403.056-.116.135-.214.236-.293.1-.08.219-.139.355-.178.135-.04.28-.06.435-.06.149 0 .296.02.44.058.145.039.287.081.427.13.3.098.597.168.889.21.292.04.555.062.792.062.227 0 .454-.02.679-.054.224-.035.426-.1.604-.19.177-.093.322-.218.433-.379.11-.159.166-.365.166-.617 0-.126-.02-.243-.058-.347-.04-.105-.093-.2-.159-.287-.065-.086-.141-.163-.226-.233-.087-.07-.179-.134-.275-.193-.12-.073-.264-.157-.436-.25-.17-.093-.35-.19-.542-.29-.191-.1-.386-.202-.584-.303-.198-.103-.386-.198-.562-.289-.178-.091-.336-.173-.476-.248-.14-.075-.248-.135-.324-.18-.292-.178-.556-.363-.792-.556-.236-.192-.438-.404-.604-.638C.54 4.835.411 4.573.321 4.28c-.09-.29-.136-.623-.136-.996 0-.402.058-.76.175-1.071.117-.313.278-.586.483-.82.206-.235.448-.434.725-.598.277-.165.577-.296.9-.397.322-.1.658-.172 1.009-.219.35-.045.7-.067 1.05-.067.353 0 .697.018 1.03.057.332.038.65.092.952.161.301.069.584.152.848.249.265.095.506.2.725.313L7.084 2.69z" mask="url(#7tiw72cvkn)"/>
                        </g>
                        <path fill="#E1002A" d="M31.293.14v7.018c0 .363.008.685.023.964.017.28.048.529.095.743.046.214.11.402.188.56.079.157.182.296.31.415.122.116.255.21.395.28.14.073.282.126.425.164.144.037.288.064.43.076.144.013.28.02.408.02.117 0 .244-.013.382-.037.139-.024.279-.063.419-.113.139-.05.276-.116.41-.196.134-.08.257-.175.367-.285.117-.116.21-.251.278-.405.07-.155.122-.337.158-.551.037-.213.06-.46.07-.742.01-.282.015-.608.015-.98V1.127c0-.182.03-.343.09-.484.06-.14.144-.26.252-.356.107-.094.234-.167.38-.215.146-.048.305-.072.477-.072.18 0 .344.027.492.08.147.05.273.125.378.223.105.098.186.216.243.355.057.14.085.296.085.47v5.89c0 .131 0 .266-.003.406 0 .14-.003.25-.006.334-.008.373-.042.733-.1 1.08-.059.35-.155.685-.29 1.01-.192.469-.438.857-.736 1.167-.299.312-.63.56-.995.747-.365.188-.753.32-1.163.399-.412.078-.824.117-1.238.117-.323 0-.656-.025-.995-.072-.34-.047-.673-.128-.997-.239-.326-.112-.636-.258-.932-.438-.296-.18-.562-.403-.798-.666-.207-.229-.375-.464-.505-.707-.13-.242-.232-.494-.306-.756-.075-.26-.126-.533-.155-.815-.03-.284-.046-.579-.049-.887-.003-.114-.004-.225-.004-.335V.139h2.502zM43.979.472l2.404 4.412.313.581c.116.218.239.45.368.7.13.248.265.509.403.783s.277.552.415.833c.139.28.274.563.407.847.133.284.257.56.375.83h.07c-.046-.417-.088-.826-.125-1.229-.037-.402-.069-.808-.095-1.22-.027-.411-.046-.835-.059-1.271-.014-.436-.02-.896-.02-1.382V.472h2.316v10.161c0 .336-.049.601-.146.797-.07.142-.16.264-.272.368-.11.104-.235.19-.371.257-.137.07-.285.12-.442.154-.158.034-.32.05-.485.05-.335 0-.649-.083-.939-.248-.29-.166-.543-.44-.758-.82l-1.998-3.53c-.17-.301-.344-.614-.521-.94-.177-.324-.359-.672-.546-1.045-.187-.372-.38-.773-.579-1.205-.2-.431-.404-.903-.617-1.417h-.083c.05.439.094.882.134 1.328.04.446.073.884.1 1.318.026.432.047.856.06 1.269.013.413.02.809.02 1.186v2.858c0 .204-.024.376-.069.517-.046.14-.118.268-.215.38-.094.111-.212.2-.355.266-.143.068-.317.102-.52.102s-.377-.034-.521-.102c-.145-.066-.264-.155-.358-.265-.097-.113-.168-.24-.212-.38-.044-.142-.067-.314-.067-.518V.473h2.988zM56.119.472V10.93c0 .217-.025.4-.072.55-.05.15-.124.286-.223.405-.1.12-.226.215-.38.287-.153.07-.335.106-.545.106-.21 0-.393-.035-.547-.106-.154-.072-.28-.167-.38-.287-.1-.119-.172-.254-.221-.404-.049-.151-.072-.334-.072-.551V.472h2.44z" transform="translate(20 280) translate(826) translate(52.305 40)"/>
                        <path fill="#000" d="M4.54 11.955l-.85.323.017-.149.045-.39.04-.37.288-2.373.04-.27c.016-.14.023-.277.023-.412 0-.341-.112-.512-.337-.512-.351 0-.76.332-1.228.993-.466.663-.736 1.293-.809 1.892l-.146 1.268-.855.323.016-.149.046-.39.046-.37.293-2.452.034-.28c.027-.218.04-.395.04-.528 0-.226-.06-.338-.183-.338-.287 0-.596.299-.928.898C.043 8.602 0 8.543 0 8.495c0-.212.209-.5.626-.865.419-.364.75-.547.995-.547.327 0 .491.194.491.581 0 .1-.009.231-.028.397l-.046.428-.047.36-.047.374.16-.232c.855-1.272 1.65-1.908 2.385-1.908.355 0 .532.237.532.709 0 .08-.015.252-.045.512l-.058.486-.079.66c.355-.68.774-1.244 1.26-1.693.486-.45.92-.674 1.301-.674.377 0 .566.226.566.677 0 .193-.022.424-.066.692l-.304 1.96c-.068.405-.101.72-.101.941 0 .186.056.28.167.28.13 0 .294-.1.492-.3.197-.202.355-.43.474-.683.104.064.156.121.156.175 0 .221-.214.519-.64.893-.427.373-.767.56-1.02.56-.325 0-.487-.201-.487-.603 0-.253.042-.646.126-1.178l.204-1.274.04-.3c.006-.064.02-.172.04-.323.018-.151.028-.268.028-.349 0-.3-.107-.449-.32-.449-.357 0-.772.332-1.246.993-.473.663-.745 1.293-.817 1.892l-.153 1.268zM13.534 10.172c-.393.676-.804 1.236-1.232 1.677-.43.44-.78.662-1.053.662-.373 0-.58-.371-.618-1.113l-.04-.766-.076-1.56-.018-.445c-.035-.591-.15-.888-.344-.888-.303 0-.597.271-.885.811-.101-.066-.151-.137-.151-.215 0-.199.189-.456.565-.772.378-.316.684-.474.922-.474.245 0 .418.104.52.312.1.208.166.591.198 1.15l.107 1.93c.038.735.162 1.103.372 1.103.313 0 .703-.341 1.168-1.024.465-.682.764-1.352.895-2.01l.226-1.124 1.038-.343c-.132.324-.268.813-.408 1.467l-.78 3.699c-.307 1.447-.781 2.517-1.422 3.208C11.56 16.486 10.448 17 9.187 17c-.265 0-.562-.056-.891-.167l.717-.748c.364.154.746.231 1.142.231.808 0 1.414-.248 1.818-.743.405-.495.742-1.404 1.015-2.726l.546-2.675z" transform="translate(20 280) translate(826) translate(52.305 40)"/>
                    </g>
                    <g fill="#1F497D" fill-rule="nonzero">
                        <path d="M6.409 9.75L2.642 11.759 3.361 7.504.314 4.491 4.526 3.871 6.409 0 8.293 3.871 12.504 4.491 9.457 7.504 10.176 11.759zM23.5 9.75L19.733 11.759 20.452 7.504 17.405 4.491 21.616 3.871 23.5 0 25.384 3.871 29.595 4.491 26.548 7.504 27.267 11.759zM40.591 9.75L36.824 11.759 37.543 7.504 34.496 4.491 38.707 3.871 40.591 0 42.474 3.871 46.686 4.491 43.639 7.504 44.358 11.759z" transform="translate(20 280) translate(826) translate(56 119)"/>
                    </g>
                </g>
                <text fill="#666" font-family="NotoSansCJKkr-Regular, Noto Sans CJK KR" font-size="20" letter-spacing="-.6" transform="translate(20 280)">
                    <tspan x="389" y="201">- 해당 분야를 관련 업무에 적용 가능한 수준</tspan>
                </text>
                <text fill="#666" font-family="NotoSansCJKkr-Regular, Noto Sans CJK KR" font-size="20" letter-spacing="-.6" transform="translate(20 280)">
                    <tspan x="389" y="234">- 유관 업무를 담당하는 Junior 수준 Badge</tspan>
                </text>
                <text fill="#6C788F" font-family="NotoSansCJKkr-Regular, Noto Sans CJK KR" font-size="20" transform="translate(20 280)">
                    <tspan x="625" y="69">Lv.2</tspan>
                </text>
                <path fill="#1F497D" fill-rule="nonzero" d="M12 18L4.947 21.708 6.294 13.854 0.587 8.292 8.473 7.146 12 0 15.527 7.146 23.413 8.292 17.706 13.854 19.053 21.708z" transform="translate(20 280) translate(567 49)"/>
                <path fill="#1F497D" fill-rule="nonzero" d="M12 18L4.947 21.708 6.294 13.854 0.587 8.292 8.473 7.146 12 0 15.527 7.146 23.413 8.292 17.706 13.854 19.053 21.708z" transform="translate(20 280) translate(595 49)"/>
                <text fill="#222" font-family="NotoSansCJKkr-Bold, Noto Sans CJK KR" font-size="20" font-weight="bold" letter-spacing="-.6" transform="translate(20 280)">
                    <tspan x="567" y="107">적용</tspan>
                </text>
                <text fill="#666" font-family="NotoSansCJKkr-Regular, Noto Sans CJK KR" font-size="20" letter-spacing="-.6" transform="translate(20 280)">
                    <tspan x="828" y="201">- 해당 분야 업무를 L/H/C 할 수 있는 수준</tspan>
                </text>
                <text fill="#666" font-family="NotoSansCJKkr-Regular, Noto Sans CJK KR" font-size="20" letter-spacing="-.6" transform="translate(20 280)">
                    <tspan x="828" y="234">- 유관 업무를 담당하는 관리자 수준 Badge</tspan>
                </text>
                <text fill="#6C788F" font-family="NotoSansCJKkr-Regular, Noto Sans CJK KR" font-size="20" transform="translate(20 280)">
                    <tspan x="1091" y="69">Lv.3</tspan>
                </text>
                <path fill="#1F497D" fill-rule="nonzero" d="M12 18L4.947 21.708 6.294 13.854 0.587 8.292 8.473 7.146 12 0 15.527 7.146 23.413 8.292 17.706 13.854 19.053 21.708z" transform="translate(20 280) translate(1006 48)"/>
                <g fill="#1F497D" fill-rule="nonzero">
                    <path d="M12 18L4.947 21.708 6.294 13.854 0.587 8.292 8.473 7.146 12 0 15.527 7.146 23.413 8.292 17.706 13.854 19.053 21.708z" transform="translate(20 280) translate(1033 48)"/>
                </g>
                <g fill="#1F497D" fill-rule="nonzero">
                    <path d="M12 18L4.947 21.708 6.294 13.854 0.587 8.292 8.473 7.146 12 0 15.527 7.146 23.413 8.292 17.706 13.854 19.053 21.708z" transform="translate(20 280) translate(1061 48)"/>
                </g>
                <text fill="#222" font-family="NotoSansCJKkr-Bold, Noto Sans CJK KR" font-size="20" font-weight="bold" letter-spacing="-.6" transform="translate(20 280)">
                    <tspan x="1006" y="107">응용</tspan>
                </text>
            </g>
            <g stroke="#222" stroke-dasharray="4" stroke-linecap="square">
                <path d="M0.5 91.538L0.5 0.5" transform="translate(89 177) matrix(1 0 0 -1 0 92)"/>
                <path d="M838.5 47.003L0.5 47.003" transform="translate(89 177) matrix(1 0 0 -1 0 93.503)"/>
                <path d="M399 91.511L398.5 46.489" transform="translate(89 177) matrix(1 0 0 -1 0 138)"/>
                <path d="M838 91.511L837.5 46.489" transform="translate(89 177) matrix(1 0 0 -1 0 138)"/>
            </g>
            <text fill="#666" font-family="NotoSansCJKkr-Regular, Noto Sans CJK KR" font-size="20" letter-spacing="-.6">
                <tspan x="220" y="82">- 해당 교육과정에서 제공하는 全 과정을 이수하고, 특정요건(Test, 과제 등)을 충족하면 발급</tspan> <tspan x="220" y="118">- 학습난이도/수준에 따라 3가지로 구분</tspan> <tspan x="220" y="154">- 20년까지는 베타 Test기간으로 운영하고, 21년부터 정식 Open 예정 (단, 20년 중 취득한 Badge는 향후 그대로 인정)</tspan>
            </text>
            <text fill="#FF664D" font-family="NotoSansCJKkr-Bold, Noto Sans CJK KR" font-size="20" font-weight="bold">
                <tspan x="220" y="37">교육과정 이수를 인증하는 Badge 발급</tspan>
            </text>
            <use fill="#FFF" stroke="#222" stroke-dasharray="4" stroke-width="2" mask="url(#3h6mfv494o)" xlink:href="#gvzqvjo8na"/>
            <text fill="#222" font-family="NotoSansCJKkr-Bold, Noto Sans CJK KR" font-size="24" font-weight="bold">
                <tspan x="52.372" y="149">Badge</tspan>
            </text>
            <g>
                <path fill="#368279" d="M17 35.066L35.718 81 58 73.934 39.283 28z" transform="translate(62 26)"/>
                <path fill="#419A8F" d="M0 73.382L23.047 80 41 33.618 17.952 27z" transform="translate(62 26)"/>
                <g transform="translate(62 26) translate(1)">
                    <mask id="cxyn4anciq" fill="#fff">
                        <use xlink:href="#b55buej71p"/>
                    </mask>
                    <path fill="#F4AA4C" d="M.415 27.185C.478 12.259 12.849.209 28.047.27c15.198.061 27.467 12.212 27.404 27.14-.062 14.924-12.435 26.975-27.632 26.914C12.622 54.262.352 42.11.415 27.184" mask="url(#cxyn4anciq)"/>
                    <path fill="#F9DEBC" d="M8 27.49C8.046 16.682 17.004 7.957 28.01 8c11.004.045 19.89 8.843 19.844 19.653-.046 10.807-9.004 19.533-20.01 19.49C16.84 47.096 7.956 38.298 8 27.49"/>
                    <path fill="#E99B38" fill-rule="nonzero" d="M28 34L20.947 37.708 22.294 29.854 16.587 24.292 24.473 23.146 28 16 31.527 23.146 39.413 24.292 33.706 29.854 35.053 37.708z"/>
                </g>
            </g>
        </g>
        <text fill="#666" font-family="NotoSansCJKkr-Regular, Noto Sans CJK KR" font-size="20" letter-spacing="-.6">
            <tspan x="220" y="82">- 학습/성장 노력에 대한 인증</tspan> <tspan x="220" y="118">- Stamp가 발급되는 Course 이수 시 자동 획득</tspan>
        </text>
        <text fill="#FF664D" font-family="NotoSansCJKkr-Bold, Noto Sans CJK KR" font-size="20" font-weight="bold">
            <tspan x="220.07" y="37">Stamp</tspan>
        </text>
        <use fill="#FFF" stroke="#222" stroke-dasharray="4" stroke-width="2" mask="url(#97tzwxibtr)" xlink:href="#ul0c5yv4jb"/>
        <text fill="#222" font-family="NotoSansCJKkr-Bold, Noto Sans CJK KR" font-size="24" font-weight="bold">
            <tspan x="51.084" y="149">Stamp</tspan>
        </text>
        <g>
            <text fill="#222" font-family="NotoSansCJKkr-Bold, Noto Sans CJK KR" font-size="24" font-weight="bold" letter-spacing="-.6" transform="translate(55 28)">
                <tspan x="29" y="28">s</tspan>
            </text>
            <path fill="#4C4848" d="M10 74H60V79H10z" transform="translate(55 28)"/>
            <path fill="#B97A4C" d="M47.668 47v-4.69c.088-4.27 1.356-8.433 3.669-12.04 4.808-7.972 2.956-18.218-4.35-24.056C41.797 2.04 34.763.87 28.474 3.14c-6.289 2.27-10.901 7.64-12.139 14.134-.872 4.486-.028 9.132 2.368 13.04 2.273 3.489 3.532 7.525 3.64 11.671V47h25.325z" transform="translate(55 28)"/>
            <path fill="#DAAC71" d="M2 57h66c1.105 0 2 .895 2 2v16H0V59c0-1.105.895-2 2-2z" transform="translate(55 28)"/>
            <path fill="#000" d="M48 57H62V75H48zM40 57H44V75H40z" opacity=".065" transform="translate(55 28)"/>
            <path fill="#AE5F26" d="M15 45H55V57H15z" transform="translate(55 28)"/>
            <path fill="#A46D45" d="M22 39H48V42H22z" transform="translate(55 28)"/>
        </g>
    </g>
</svg>
