<svg xmlns="http://www.w3.org/2000/svg" width="20" height="20" viewBox="0 0 20 20">
    <path fill="#A7ABBE" fill-rule="nonzero" d="M14.4 9H8.6c-.552 0-.6.447-.6 1 0 .553.048 1 .6 1h5.8c.552 0 .6-.447.6-1 0-.553-.048-1-.6-1zm2 5H8.6c-.552 0-.6.447-.6 1 0 .553.048 1 .6 1h7.8c.552 0 .6-.447.6-1 0-.553-.048-1-.6-1zM8.6 6h7.8c.552 0 .6-.447.6-1 0-.553-.048-1-.6-1H8.6c-.552 0-.6.447-.6 1 0 .553.048 1 .6 1zM5.4 9H3.6c-.552 0-.6.447-.6 1 0 .553.048 1 .6 1h1.8c.552 0 .6-.447.6-1 0-.553-.048-1-.6-1zm0 5H3.6c-.552 0-.6.447-.6 1 0 .553.048 1 .6 1h1.8c.552 0 .6-.447.6-1 0-.553-.048-1-.6-1zm0-10H3.6c-.552 0-.6.447-.6 1 0 .553.048 1 .6 1h1.8c.552 0 .6-.447.6-1 0-.553-.048-1-.6-1z"/>
</svg>
