<svg xmlns="http://www.w3.org/2000/svg" width="82" height="25" viewBox="0 0 82 25">
    <g fill="none">
        <path d="M0 0H82V25H0z"/>
        <path fill="#E1002A" d="M37.087 13.456h-5.81c-1.052 0-1.728-.736-1.728-1.645 0-.908.676-1.644 1.728-1.644h7.985c.554.015 1.073-.28 1.354-.77.282-.49.282-1.099 0-1.59-.281-.49-.8-.785-1.354-.77H30.74C28.004 7.038 26 9.175 26 11.812c0 2.638 2.008 4.775 4.74 4.775h5.664c1.053 0 1.73.734 1.732 1.641.002.908-.68 1.646-1.732 1.65h-8.429c-.826.022-1.483.716-1.483 1.564 0 .848.657 1.542 1.483 1.565h9.153c2.726-.02 4.719-2.15 4.712-4.783-.006-2.633-2.017-4.776-4.753-4.767zm18.969-4.43c-1.035 0-1.874.86-1.874 1.923v9.14c0 1.034-.817 1.873-1.825 1.873H48.92c-1.008 0-1.825-.839-1.826-1.874v-9.143c0-1.063-.839-1.924-1.873-1.924-1.035 0-1.874.861-1.874 1.924v9.36c0 1.243.48 2.435 1.337 3.314.856.879 2.017 1.372 3.227 1.372h5.447c1.21 0 2.371-.493 3.227-1.372.856-.879 1.337-2.07 1.337-3.314v-9.36c-.001-1.06-.836-1.918-1.867-1.922v.002zm13.759-5.024h-5.448c-2.52 0-4.563 2.099-4.563 4.687v9.36c0 1.062.839 1.924 1.874 1.924 1.035 0 1.873-.862 1.873-1.924v-9.14c0-.498.192-.975.535-1.326.342-.352.806-.549 1.29-.549h3.438c.484 0 .949.197 1.291.549.343.351.535.828.534 1.326v9.137c0 1.063.84 1.924 1.874 1.924 1.035 0 1.874-.861 1.874-1.924v-9.36c0-1.244-.482-2.437-1.34-3.316-.857-.88-2.02-1.372-3.232-1.37v.002zm8.311 5.023c-1.034 0-1.873.861-1.873 1.924v12.127c0 1.063.839 1.924 1.873 1.924C79.161 25 80 24.139 80 23.076V10.945c-.001-1.062-.84-1.922-1.874-1.922v.002z"/>
        <path fill="#61C1BE" d="M12.706 9.589c-.204-.364-.58-.588-.988-.588-.407 0-.784.224-.987.588l-3.04 5.427-3.04-5.428C4.448 9.224 4.071 9 3.664 9c-.407 0-.783.224-.987.588L.153 14.105c-.204.363-.204.811 0 1.175.203.364.58.588.987.588h13.113c.407 0 .783-.224.987-.588.204-.364.204-.812 0-1.175l-2.534-4.516zM21.854 9H16.8c-.407 0-.784.224-.987.588-.204.364-.204.812 0 1.175l2.859 5.105c.134.244.385.395.658.395.272 0 .524-.151.658-.395l2.86-5.105c.203-.364.203-.813-.002-1.177-.205-.364-.584-.588-.992-.586zm-2.53 8.013c-.585 0-1.113.364-1.338.922-.224.558-.1 1.2.314 1.628.415.427 1.038.554 1.579.323.541-.23.894-.775.894-1.38 0-.824-.649-1.492-1.448-1.493zm0 2.296c-.43 0-.778-.36-.778-.802 0-.444.349-.803.779-.803.43 0 .778.36.778.803 0 .213-.081.418-.227.569-.146.151-.345.236-.551.236v-.003zM78.504 7c-1.417.001-2.694-.85-3.237-2.158-.542-1.308-.244-2.814.757-3.816C77.025.024 78.531-.275 79.84.266 81.148.809 82 2.087 82 3.502c-.003 1.93-1.566 3.495-3.496 3.499zm0-5.654c-1.19 0-2.154.965-2.154 2.155s.965 2.154 2.155 2.154 2.154-.965 2.154-2.155c-.002-1.19-.966-2.153-2.155-2.153v-.001z"/>
    </g>
</svg>
