<svg xmlns="http://www.w3.org/2000/svg" width="34" height="12" viewBox="0 0 34 12">
    <g fill="#FFF" fill-rule="evenodd">
        <path d="M6.302 2.801a4.813 4.813 0 0 0-1.736-.651 3.466 3.466 0 0 0-1.268.013c-.21.045-.39.111-.542.201-.152.089-.271.2-.357.336a.856.856 0 0 0-.128.47c0 .132.02.251.058.357.04.106.092.2.158.285.067.083.144.158.23.225.087.067.178.128.274.184.232.134.475.267.728.402l.758.404c.252.135.496.27.732.406s.454.27.653.404c.267.179.493.365.677.562.184.196.333.402.448.619.114.218.197.445.248.684.05.238.075.487.075.746 0 .373-.052.71-.157 1.014a2.73 2.73 0 0 1-.44.81c-.188.237-.41.442-.668.616a4.013 4.013 0 0 1-.84.428 5.1 5.1 0 0 1-.956.25 6.246 6.246 0 0 1-1.018.081c-.33 0-.66-.018-.985-.055a6.105 6.105 0 0 1-1.448-.353 1.607 1.607 0 0 1-.4-.21.964.964 0 0 1-.278-.311.932.932 0 0 1-.104-.462c0-.144.026-.27.078-.38A.776.776 0 0 1 .31 9.6a.93.93 0 0 1 .324-.168c.124-.038.256-.056.398-.056.136 0 .27.018.401.054.133.036.262.076.39.123.275.092.546.158.813.197.266.038.507.058.723.058.208 0 .415-.017.62-.05.206-.033.39-.093.552-.18a1.09 1.09 0 0 0 .396-.356c.101-.15.152-.345.152-.582a.965.965 0 0 0-.199-.598 1.272 1.272 0 0 0-.207-.22 2.439 2.439 0 0 0-.25-.182 8.164 8.164 0 0 0-.398-.235 43.251 43.251 0 0 0-1.03-.56c-.18-.097-.352-.187-.513-.272a29.481 29.481 0 0 1-.435-.235 7.194 7.194 0 0 1-.296-.17 6.451 6.451 0 0 1-.723-.523 3.013 3.013 0 0 1-.552-.603A2.61 2.61 0 0 1 .124 4.3 3.254 3.254 0 0 1 0 3.361c0-.379.053-.715.16-1.01.106-.295.254-.552.441-.774.189-.22.41-.408.663-.563.253-.155.527-.279.822-.374.294-.094.601-.163.921-.206a7.903 7.903 0 0 1 2.77.142 6.148 6.148 0 0 1 1.437.53L6.302 2.8zM11.47.546v6.446c0 .334.006.63.02.886.016.258.044.485.088.683.041.196.1.368.171.513.072.145.166.272.284.382.112.106.232.192.36.257.128.067.258.116.39.15.131.035.263.06.393.07.131.012.255.018.373.018.106 0 .223-.011.349-.033a2.294 2.294 0 0 0 .758-.284 1.71 1.71 0 0 0 .336-.262c.107-.107.192-.23.254-.371.063-.143.111-.31.144-.507.034-.195.055-.423.064-.682.01-.258.014-.558.014-.9V1.453c0-.167.028-.316.082-.444a.894.894 0 0 1 .23-.327.978.978 0 0 1 .348-.198c.134-.044.279-.066.436-.066.165 0 .315.025.45.073.135.047.25.115.345.205.096.09.171.198.223.326.052.128.078.272.078.431v5.411a26.864 26.864 0 0 1-.008.68 7.005 7.005 0 0 1-.092.992 4.33 4.33 0 0 1-.265.928c-.176.43-.4.786-.673 1.071a3.427 3.427 0 0 1-.91.686 3.897 3.897 0 0 1-1.064.367 6 6 0 0 1-1.131.107c-.296 0-.6-.022-.91-.066a4.886 4.886 0 0 1-.912-.22 4.391 4.391 0 0 1-.852-.402 3.251 3.251 0 0 1-.73-.611 3.256 3.256 0 0 1-.461-.65 3.439 3.439 0 0 1-.28-.694 4.346 4.346 0 0 1-.142-.749 8.806 8.806 0 0 1-.045-.815 11.962 11.962 0 0 1-.003-.307V.546h2.287zM22.922.546l2.176 4.143.282.545a83.002 83.002 0 0 1 1.074 2.175 42.962 42.962 0 0 1 .707 1.575h.064a53.185 53.185 0 0 1-.2-2.3 42.758 42.758 0 0 1-.072-2.492V.547h2.096v9.541c0 .316-.044.565-.132.749a1.203 1.203 0 0 1-.246.345c-.1.098-.212.178-.336.242a1.623 1.623 0 0 1-.4.144 2 2 0 0 1-.438.048c-.304 0-.587-.078-.85-.234-.262-.155-.49-.412-.685-.77l-1.808-3.314a62.315 62.315 0 0 1-.472-.882A34.579 34.579 0 0 1 22.665 4.3c-.18-.405-.367-.848-.558-1.331h-.076a47.983 47.983 0 0 1 .266 3.676c.012.389.017.76.017 1.114v2.684c0 .192-.02.354-.06.486a1.053 1.053 0 0 1-.195.357.929.929 0 0 1-.322.25 1.063 1.063 0 0 1-.47.095c-.184 0-.342-.032-.472-.095a.927.927 0 0 1-.324-.25 1.017 1.017 0 0 1-.192-.357 1.698 1.698 0 0 1-.06-.486V.546h2.703zM33.912.546v9.805c0 .204-.022.375-.066.517a1.15 1.15 0 0 1-.202.38.983.983 0 0 1-.346.268c-.14.066-.306.1-.498.1s-.358-.034-.498-.1a.983.983 0 0 1-.346-.269 1.147 1.147 0 0 1-.202-.38 1.737 1.737 0 0 1-.066-.516V.546h2.224z"/>
    </g>
</svg>
