<svg xmlns="http://www.w3.org/2000/svg" xmlns:xlink="http://www.w3.org/1999/xlink" width="32" height="32" viewBox="0 0 32 32">
    <defs>
        <path id="a" d="M6.336 0c3.499 0 6.335 2.904 6.335 6.486a6.56 6.56 0 0 1-1.164 3.747L14 12.784 12.813 14l-2.45-2.507a6.221 6.221 0 0 1-4.027 1.478C2.836 12.971 0 10.067 0 6.486 0 2.904 2.837 0 6.336 0zm0 1.72c-2.572 0-4.657 2.133-4.657 4.766 0 2.632 2.085 4.766 4.657 4.766 2.571 0 4.656-2.134 4.656-4.766 0-2.633-2.085-4.767-4.656-4.767z"/>
    </defs>
    <use fill="#2B2B2B" fill-rule="nonzero" transform="translate(9 9)" xlink:href="#a"/>
</svg>
