<svg xmlns="http://www.w3.org/2000/svg" xmlns:xlink="http://www.w3.org/1999/xlink" width="34" height="14" viewBox="0 0 34 14">
    <defs>
        <path id="9rr2ziykia" d="M0 0.211L5.404 0.211 5.404 7.2 0 7.2z"/>
        <path id="7qwcjfg3hc" d="M0.028 0.368L4.934 0.368 4.934 5.6 0.028 5.6z"/>
    </defs>
    <g fill="none" fill-rule="evenodd">
        <g transform="translate(7 3.59)">
            <mask id="5dva175gtb" fill="#fff">
                <use xlink:href="#9rr2ziykia"/>
            </mask>
            <path fill="#FF664D" d="M3.148 2.832c-.275 0-.516.07-.72.211-.204.141-.376.322-.513.543-.138.22-.24.464-.307.73-.068.266-.101.522-.101.772 0 .384.092.688.278.912.186.224.48.336.883.336.276 0 .516-.07.72-.211.205-.141.376-.32.514-.538.138-.217.24-.459.307-.725.067-.265.101-.523.101-.772 0-.384-.093-.69-.278-.917-.186-.227-.48-.341-.884-.341zM1.42.212h1.095l-.509 2.457.02.019c.37-.48.873-.72 1.506-.72.295 0 .559.051.792.154.234.102.43.244.59.427.16.182.282.398.366.648.083.25.124.521.124.816 0 .39-.054.776-.163 1.157-.11.38-.272.721-.49 1.022-.217.3-.489.544-.815.73-.327.185-.704.278-1.133.278-.384 0-.712-.07-.984-.211-.272-.14-.491-.394-.658-.759h-.019l-.144.836H0L1.42.21z" mask="url(#5dva175gtb)"/>
        </g>
        <path fill="#FF664D" d="M16.84 7.736c.006-.031.01-.058.01-.082V7.43c0-.294-.093-.536-.279-.725-.186-.188-.442-.283-.768-.283-.41 0-.736.124-.98.37-.242.247-.418.562-.528.945h2.545zm.797 1.383c-.174.582-.464 1.006-.875 1.271-.409.266-.914.399-1.516.399-.314 0-.603-.05-.869-.148-.265-.1-.494-.244-.687-.432-.191-.19-.341-.417-.45-.683-.11-.265-.163-.568-.163-.907 0-.384.06-.758.181-1.123.123-.365.3-.69.533-.978.234-.29.522-.521.865-.697.341-.175.734-.264 1.176-.264.441 0 .799.073 1.075.221.275.147.489.333.643.556.154.224.258.472.311.74.056.27.083.524.083.768 0 .121-.007.234-.02.336-.012.103-.026.196-.038.278H14.19l-.013.087c-.003.025-.005.05-.005.076v.155c0 .345.09.623.274.835.181.21.484.316.907.316.294 0 .547-.067.758-.202.211-.134.355-.336.432-.604h1.095zM19.845 4.203h1.065l-.307 1.488h.989l-.173.817h-.99l-.508 2.428c-.026.11-.048.212-.067.308-.019.096-.029.173-.029.23 0 .11.024.196.072.264.048.068.156.101.322.101.082 0 .174-.001.274-.005.099-.004.202-.017.312-.044l-.183.807c-.14.032-.292.057-.451.077-.16.019-.31.028-.451.028-.199 0-.362-.024-.49-.076-.129-.05-.23-.12-.302-.206-.074-.087-.125-.186-.154-.298-.029-.112-.044-.226-.044-.34 0-.096.009-.202.025-.318.015-.114.03-.195.042-.24l.567-2.716H18.5l.173-.817h.864l.308-1.488z"/>
        <g transform="translate(21.4 5.19)">
            <mask id="zvzt4qjwvd" fill="#fff">
                <use xlink:href="#7qwcjfg3hc"/>
            </mask>
            <path fill="#FF664D" d="M1.123 4.102c0 .122.027.223.082.303.054.08.122.144.206.192.083.048.176.083.278.105.102.023.205.034.307.034.27 0 .495-.045.677-.134.182-.09.333-.212.451-.365.119-.153.212-.335.28-.543.067-.208.119-.43.157-.667l-.02-.02c-.075.079-.178.132-.306.164s-.253.055-.375.067c-.153.014-.331.026-.533.039-.201.013-.39.046-.566.1-.176.055-.326.139-.451.25-.125.112-.187.27-.187.475zm3.292-.076c-.019.09-.04.176-.062.26-.022.082-.034.159-.034.23 0 .07.016.124.05.162.03.04.091.058.18.058.065 0 .129-.008.193-.024s.129-.026.193-.034l-.174.788c-.14.032-.282.062-.422.09-.141.03-.285.044-.432.044-.186 0-.34-.058-.461-.173-.122-.115-.189-.269-.202-.46-.217.218-.473.377-.768.48-.294.102-.595.153-.902.153-.204 0-.4-.029-.586-.086-.185-.058-.35-.141-.494-.25-.144-.109-.257-.246-.341-.412-.082-.166-.125-.36-.125-.577 0-.307.058-.565.174-.773.114-.208.269-.379.46-.513.192-.135.413-.234.662-.298.25-.064.513-.105.787-.125.372-.025.736-.053 1.095-.086.199-.013.344-.078.437-.196.092-.12.139-.27.139-.457 0-.237-.083-.395-.249-.475-.167-.08-.362-.12-.586-.12-.308 0-.572.054-.792.158-.22.106-.37.312-.447.62H.672c.057-.308.156-.565.298-.773.14-.208.313-.378.517-.51.205-.13.437-.223.696-.277.26-.055.536-.082.83-.082.449 0 .8.043 1.053.13.252.087.438.19.556.312.118.121.19.248.217.379.024.13.037.241.037.33 0 .219-.032.468-.096.75l-.365 1.757z" mask="url(#zvzt4qjwvd)"/>
        </g>
        <rect width="33" height="13" x=".5" y=".5" stroke="#FF664D" rx="6.5"/>
    </g>
</svg>
