<svg xmlns="http://www.w3.org/2000/svg" width="50" height="50" viewBox="0 0 50 50">
    <path fill="#4C4C4C" fill-rule="nonzero" d="M33.375 17.625h-3.188l-.759-2.128A.752.752 0 0 0 28.72 15h-7.19c-.317 0-.6.2-.706.497l-.762 2.128h-3.187c-1.036 0-1.875.84-1.875 1.875v10.688c0 1.035.84 1.875 1.875 1.875h16.5c1.036 0 1.875-.84 1.875-1.875V19.5c0-1.036-.84-1.875-1.875-1.875zm-8.25 10.688a3.749 3.749 0 0 1-3.75-3.75 3.749 3.749 0 0 1 3.75-3.75 3.749 3.749 0 0 1 3.75 3.75 3.749 3.749 0 0 1-3.75 3.75zm-2.25-3.75a2.25 2.25 0 1 0 4.5 0 2.25 2.25 0 0 0-4.5 0z"/>
</svg>
