<svg xmlns="http://www.w3.org/2000/svg" width="20" height="20" viewBox="0 0 20 20">
    <g fill="#FFF" fill-rule="evenodd">
        <path d="M7.349 11.8l-.212 1.063 1.06-.212 4.627-4.627a.6.6 0 0 0-.848-.848L7.349 11.8zm-.85 2.2a.5.5 0 0 1-.49-.598l.39-1.945a.504.504 0 0 1 .136-.256l4.734-4.732a1.59 1.59 0 0 1 1.13-.47 1.602 1.602 0 0 1 1.133 2.733l-4.735 4.733a.506.506 0 0 1-.255.137l-1.944.388A.46.46 0 0 1 6.5 14z"/>
        <path d="M12.333 9.722a.502.502 0 0 1-.354-.146L10.424 8.02a.5.5 0 0 1 .707-.707l1.556 1.555a.502.502 0 0 1-.354.854"/>
    </g>
</svg>
