<svg xmlns="http://www.w3.org/2000/svg" width="18" height="18" viewBox="0 0 18 18">
    <g fill="#A7ABBE" fill-rule="evenodd">
        <path d="M12.73 6.352a.396.396 0 0 0-.542 0L4.91 13.63a.385.385 0 0 0 .1.613l.597.299v1.006l-1.831.523-1.847-1.848.523-1.832h1.006l.299.599a.383.383 0 0 0 .613.099l7.277-7.28a.382.382 0 0 0 0-.54L10.24 3.863a.38.38 0 0 0-.27-.113c-.102 0-.2.041-.271.114L1.89 11.74c-.003.004-.003.009-.007.013a.391.391 0 0 0-.089.151l-.664 2.325-.866 3.033a.382.382 0 0 0 .473.473l3.032-.867 2.325-.664c.007-.002.012-.007.019-.01.024-.008.045-.021.067-.035.022-.012.044-.024.062-.041l.017-.01 7.876-7.807a.385.385 0 0 0 .001-.543L12.73 6.352zM16.831 3.306l-2.144-2.15c-.541-.541-1.481-.542-2.024.001l-1.31 1.325a.36.36 0 0 0 .001.506l3.65 3.657a.355.355 0 0 0 .505.001l1.322-1.314c.271-.27.419-.63.419-1.012 0-.383-.148-.743-.419-1.014"/>
    </g>
</svg>
