<svg xmlns="http://www.w3.org/2000/svg" width="49" height="16" viewBox="0 0 49 16">
    <g fill="#FFF" fill-rule="evenodd">
        <path d="M22.079 2.702c-.162-.1-.335-.192-.52-.275-.186-.084-.375-.156-.57-.215-.194-.06-.389-.105-.584-.139-.196-.033-.383-.05-.563-.05-.24 0-.46.021-.661.063-.203.043-.377.107-.523.194-.147.086-.262.194-.344.324-.082.13-.123.28-.123.453 0 .128.019.243.055.345.038.102.089.193.153.274.064.08.139.153.222.218.083.064.171.123.264.177.224.13.458.258.702.388l.731.39c.243.13.478.26.706.39.228.132.438.262.63.39.258.173.475.353.653.542.177.19.321.389.432.598.11.21.19.43.239.66.048.23.073.47.073.72 0 .36-.05.685-.152.977-.102.292-.243.553-.425.78-.181.23-.395.428-.644.596-.248.166-.518.304-.81.412-.292.108-.599.189-.922.24-.322.054-.65.08-.982.08-.318 0-.636-.017-.95-.053-.316-.036-.63-.1-.943-.19-.157-.046-.308-.096-.453-.15-.146-.054-.275-.122-.386-.203-.112-.081-.202-.18-.268-.3-.067-.12-.1-.268-.1-.446 0-.139.025-.261.075-.367.05-.105.119-.194.208-.266.088-.072.193-.126.313-.162.119-.036.247-.054.383-.054.131 0 .26.018.387.052.128.035.253.074.377.118.265.09.526.153.783.19.257.038.49.057.698.057.2 0 .4-.017.598-.049.198-.031.376-.09.532-.173.156-.084.284-.198.382-.343.098-.145.146-.333.146-.562 0-.115-.017-.22-.051-.316-.035-.095-.081-.182-.14-.26-.057-.079-.124-.149-.2-.212-.076-.064-.156-.122-.241-.176-.106-.067-.233-.143-.384-.227-.15-.085-.31-.173-.478-.265-.168-.09-.34-.183-.515-.275l-.495-.263c-.156-.083-.296-.157-.42-.226-.123-.068-.218-.122-.285-.164-.257-.16-.49-.33-.697-.504-.209-.175-.386-.368-.533-.582-.146-.211-.26-.45-.34-.715-.079-.264-.12-.567-.12-.906 0-.365.052-.69.155-.974.103-.285.245-.533.426-.747.182-.213.394-.394.639-.543.244-.15.508-.27.793-.36.283-.092.58-.158.888-.2.309-.04.618-.06.926-.06.311 0 .614.016.907.05.293.035.573.085.84.147.265.063.514.138.747.227.233.086.445.182.638.284l-.88 1.636zM27.062.526v6.218c0 .322.007.607.02.855.015.248.043.468.085.658.04.19.096.356.165.495.07.14.16.263.274.368.108.103.224.186.348.249.123.064.248.111.375.144.127.034.254.057.38.068.126.011.246.017.359.017.103 0 .215-.01.337-.032.122-.022.246-.056.37-.1.122-.045.243-.103.36-.174.12-.07.227-.155.325-.253.103-.102.185-.222.245-.358.06-.137.107-.299.139-.488.032-.189.053-.408.062-.658.009-.25.013-.538.013-.868V1.4c0-.16.027-.304.08-.428.051-.125.126-.23.221-.316.095-.084.207-.148.335-.19.13-.043.27-.064.421-.064.16 0 .304.024.434.07.13.046.242.112.333.198.093.087.165.191.215.315.05.123.075.262.075.415v5.22c0 .115 0 .235-.003.359 0 .123-.002.222-.005.296-.007.33-.037.65-.088.957-.052.31-.137.607-.255.895-.17.415-.387.758-.65 1.033-.263.276-.556.496-.878.662-.321.166-.663.284-1.026.353-.362.07-.726.104-1.091.104-.285 0-.579-.021-.878-.063-.299-.042-.593-.114-.88-.212-.286-.1-.56-.229-.821-.388-.26-.16-.496-.357-.704-.59-.182-.203-.33-.412-.445-.627-.115-.214-.205-.438-.27-.67-.066-.23-.111-.471-.137-.722-.026-.25-.04-.512-.043-.786l-.003-.296v-6.4h2.206zM38.109.526l2.098 3.996.273.527.321.633c.113.225.23.461.351.71.121.247.242.5.363.754.12.255.24.51.355.767.116.257.224.508.327.752h.062c-.041-.377-.078-.748-.11-1.113-.032-.364-.06-.732-.083-1.105-.023-.372-.04-.756-.051-1.152-.012-.394-.018-.811-.018-1.251V.526h2.02V9.73c0 .305-.041.545-.126.722-.062.129-.14.24-.237.334-.097.094-.205.171-.324.233-.12.062-.249.108-.386.139-.138.03-.279.046-.423.046-.293 0-.566-.076-.82-.226-.253-.15-.473-.397-.66-.742l-1.744-3.197c-.15-.273-.301-.557-.455-.851-.155-.294-.313-.61-.477-.947-.163-.337-.33-.7-.505-1.091-.174-.391-.353-.819-.538-1.284h-.073c.044.397.082.798.117 1.203.035.404.064.8.087 1.193.023.392.041.776.052 1.15.012.374.017.732.017 1.074v2.588c0 .185-.02.341-.059.469-.04.127-.103.243-.187.345-.083.1-.186.18-.31.24-.125.061-.277.092-.454.092-.178 0-.33-.03-.455-.092-.126-.06-.23-.14-.312-.24-.085-.102-.147-.218-.185-.345-.039-.128-.059-.284-.059-.469V.526h2.608zM48.708.526v9.458c0 .196-.021.362-.063.498-.043.135-.108.258-.196.366-.087.108-.198.195-.333.259s-.295.096-.48.096-.345-.032-.48-.096-.247-.151-.334-.259c-.088-.108-.152-.23-.195-.366-.043-.136-.063-.302-.063-.498V.526h2.144zM3.876 11.007l-.725.298.014-.137.039-.361.034-.342.246-2.193.034-.249c.014-.13.02-.257.02-.38 0-.316-.096-.474-.288-.474-.3 0-.65.306-1.049.918-.398.612-.629 1.195-.69 1.748l-.125 1.172-.73.298.014-.137.039-.361.039-.342.25-2.266.03-.259c.022-.201.034-.364.034-.488 0-.208-.052-.312-.157-.312-.245 0-.509.276-.792.83C.037 7.908 0 7.854 0 7.809c0-.196.178-.462.535-.799.357-.337.64-.505.849-.505.28 0 .42.179.42.537 0 .091-.008.213-.024.366l-.04.396-.04.332-.04.346.137-.215c.73-1.175 1.408-1.762 2.036-1.762.303 0 .454.218.454.654 0 .075-.013.233-.038.474l-.05.449-.067.61c.303-.628.661-1.15 1.076-1.565.415-.415.785-.622 1.11-.622.323 0 .484.208.484.625 0 .179-.019.392-.056.64l-.26 1.81c-.058.375-.087.665-.087.87 0 .172.048.259.143.259.112 0 .251-.093.42-.278.169-.186.304-.396.405-.63.089.058.133.112.133.16 0 .206-.183.48-.547.826-.364.345-.654.518-.87.518-.277 0-.416-.186-.416-.557 0-.234.035-.597.107-1.089l.175-1.177.034-.278c.006-.059.017-.158.034-.298.015-.14.024-.247.024-.322 0-.277-.092-.415-.274-.415-.304 0-.659.306-1.063.918-.404.612-.636 1.195-.698 1.748l-.13 1.172zM11.53 9.234c-.329.6-.674 1.094-1.033 1.485-.36.39-.654.586-.882.586-.313 0-.486-.329-.518-.986l-.035-.678L9 8.261l-.015-.395c-.029-.523-.125-.785-.288-.785-.254 0-.5.24-.742.718-.085-.059-.127-.122-.127-.19 0-.177.158-.405.474-.684.317-.28.574-.42.773-.42.205 0 .35.092.435.276.085.184.14.523.167 1.018l.09 1.709c.032.65.135.976.311.976.263 0 .59-.302.98-.906.39-.604.64-1.197.75-1.78l.19-.995.87-.303c-.111.286-.225.72-.343 1.298l-.654 3.275c-.257 1.281-.654 2.228-1.191 2.84-.804.91-1.736 1.366-2.793 1.366-.222 0-.47-.05-.747-.147l.6-.663c.307.136.626.205.958.205.678 0 1.186-.22 1.525-.658.339-.439.622-1.243.85-2.413l.458-2.369z"/>
    </g>
</svg>
