<svg xmlns="http://www.w3.org/2000/svg" width="60" height="60" viewBox="0 0 60 60">
    <g fill="none" fill-rule="evenodd">
        <path fill="#FFF" fill-rule="nonzero" d="M0 0H60V60H0z"/>
        <g transform="translate(6.857 5.143)">
            <circle cx="41.143" cy="7.714" r="6" fill="#61C1BE" fill-rule="nonzero" stroke="#000" stroke-linecap="round" stroke-linejoin="round" stroke-width="1.714"/>
            <g transform="translate(.857 4.286)">
                <g transform="translate(4.286)">
                    <path stroke="#000" stroke-linecap="round" stroke-linejoin="round" stroke-width="1.714" d="M22.74 15.986c1.55.004 2.807 1.26 2.811 2.811h0c-.004 1.55-1.26 2.807-2.811 2.812M3.634 15.986c-1.55.004-2.806 1.26-2.811 2.811h0c.005 1.55 1.26 2.807 2.811 2.812M17.426 28.02v3.009c0 1.097-1.277 1.997-2.846 1.997h-2.769c-1.56 0-2.845-.9-2.845-1.997V28.02"/>
                    <path stroke="#000" stroke-width="1.714" d="M1.106 17.554V11.95C1.134 5.358 6.472.023 13.063 0h0c6.587.028 11.92 5.361 11.948 11.949v5.142"/>
                    <path stroke="#000" stroke-linecap="round" stroke-linejoin="round" stroke-width="1.714" d="M22.491 13.8c-1.14.771-3.3.763-4.688.446-1.666-.278-3.215-1.034-4.457-2.177-1.422 1.282-3.233 2.052-5.143 2.185-1.513-.002-3.015-.248-4.449-.728v6.214c.136 4.677 3.996 8.381 8.675 8.323h1.491c4.682.063 8.547-3.643 8.683-8.323v-5.914l-.112-.026z"/>
                    <circle cx="8.117" cy="18.291" r="1" fill="#000" fill-rule="nonzero"/>
                    <circle cx="17.906" cy="18.291" r="1" fill="#000" fill-rule="nonzero"/>
                </g>
                <path fill="#FFF" fill-rule="nonzero" stroke="#000" stroke-width="1.714" d="M11.143 38.02L11.143 23.143 36.857 23.143 36.857 38.571"/>
                <g fill-rule="nonzero">
                    <path d="M0 0H19.592V5.998H0z" transform="translate(13.714 28.286)"/>
                    <path fill="#E1002A" d="M8.942 3.179H7.551c-.252 0-.414-.172-.414-.384 0-.212.162-.383.414-.383h1.913c.132.003.257-.066.324-.18.068-.114.068-.256 0-.37-.067-.115-.192-.184-.324-.18H7.422c-.655 0-1.136.498-1.136 1.113S6.768 3.91 7.422 3.91h1.357c.252 0 .414.171.415.383 0 .212-.163.384-.415.385h-2.02c-.197.005-.355.167-.355.365 0 .198.158.36.356.365h2.193c.652-.005 1.13-.502 1.128-1.116-.001-.614-.483-1.114-1.139-1.112zm4.545-1.034c-.248 0-.449.201-.449.449v2.132c0 .242-.196.437-.437.437h-.823c-.242 0-.438-.195-.438-.437V2.593c0-.248-.2-.449-.449-.449-.248 0-.449.201-.449.449v2.184c0 .29.116.568.32.773.206.205.484.32.774.32h1.305c.29 0 .568-.115.773-.32.205-.205.32-.483.32-.773V2.593c0-.247-.2-.448-.447-.448zM16.783.973h-1.305c-.604 0-1.093.49-1.093 1.094V4.25c0 .248.2.45.449.45.248 0 .449-.202.449-.45V2.118c0-.116.046-.227.128-.31.082-.081.193-.127.309-.127h.823c.116 0 .228.046.31.128.082.082.128.193.128.309V4.25c0 .248.2.449.449.449.247 0 .448-.201.448-.45V2.067c0-.29-.115-.569-.32-.774-.206-.205-.484-.32-.775-.32v.001zm1.991 1.172c-.248 0-.449.201-.449.449v2.83c0 .247.201.448.45.448.247 0 .448-.2.448-.449v-2.83c0-.248-.201-.448-.449-.448z" transform="translate(13.714 28.286)"/>
                    <path fill="#61C1BE" d="M3.103 2.354c-.05-.086-.141-.14-.24-.14-.1 0-.192.054-.242.14L1.88 3.64l-.743-1.287c-.05-.086-.141-.139-.241-.139s-.191.053-.241.14l-.617 1.07c-.05.086-.05.192 0 .278.05.086.142.14.242.14H3.48c.1 0 .192-.054.242-.14.05-.086.05-.192 0-.278l-.62-1.07zm2.235-.14H4.104c-.1 0-.192.053-.242.14-.05.086-.05.192 0 .278l.699 1.21c.033.057.094.093.16.093.067 0 .129-.036.161-.094l.699-1.209c.05-.086.05-.193 0-.28-.05-.085-.143-.138-.243-.138zM4.72 4.113c-.143 0-.272.086-.327.218-.054.132-.024.285.077.386.101.101.253.131.386.076.132-.054.218-.183.218-.326 0-.196-.158-.354-.354-.354zm0 .544c-.105 0-.19-.085-.19-.19s.085-.19.19-.19.19.085.19.19c0 .05-.02.099-.055.134-.036.036-.084.056-.135.056zM18.774 1.806c-.325 0-.618-.195-.742-.495-.125-.3-.056-.646.174-.876.23-.23.575-.298.875-.174.3.124.496.417.495.742 0 .443-.359.802-.802.803zm0-1.297c-.273 0-.494.221-.494.494s.222.494.495.494.494-.221.494-.494-.222-.494-.495-.494z" transform="translate(13.714 28.286)"/>
                </g>
                <path fill="#FFF" fill-rule="nonzero" stroke="#000" stroke-width="1.714" d="M24.857 39.429L39.429 39.429 39.429 44.571 24.857 44.571"/>
                <path fill-rule="nonzero" stroke="#000" stroke-width="1.714" d="M20.571 39.429h-6v6h6c.474 0 .902-.192 1.213-.503.31-.31.502-.738.502-1.212v-2.571c0-.474-.192-.902-.502-1.212-.31-.31-.74-.502-1.213-.502z"/>
                <path fill-rule="nonzero" stroke="#000" stroke-width="1.714" d="M6.857 35.143V36c0 .947.768 1.714 1.714 1.714h6c1.42 0 2.572 1.152 2.572 2.572v5.143h0H3.429C1.535 45.429 0 43.894 0 42V34.286c1.014-3.292 4.479-5.48 10.393-6.566"/>
                <rect width="3.429" height="7.714" x="13.714" y="37.714" fill="#FFF" fill-rule="nonzero" stroke="#000" stroke-width="1.714" rx=".857"/>
            </g>
            <circle cx="36.857" cy="16.286" r="1.714" fill="#61C1BE" fill-rule="nonzero"/>
            <circle cx="33.429" cy="18.857" r="1" fill="#61C1BE" fill-rule="nonzero"/>
            <path fill="#000" fill-rule="nonzero" d="M42 8.571v.858h-3.429V6H42v.857L42.857 6h.857v3.429h-.857L42 8.57z"/>
            <path fill="#61C1BE" fill-rule="nonzero" d="M9.429 0l-.001 1.714h1.715V3.43l-1.715-.001v1.715H7.715V3.428H6V1.715h1.714V0H9.43zM2.571 12v.857h.858v1.714H2.57v.858H.857v-.858H0v-1.714h.857V12h1.714z"/>
        </g>
    </g>
</svg>
