<svg xmlns="http://www.w3.org/2000/svg" width="56" height="56" viewBox="0 0 56 56">
    <path fill="#DDD" fill-rule="nonzero" d="M28 0c15.464 0 28 12.536 28 28S43.464 56 28 56 0 43.464 0 28 12.536 0 28 0zm0 .933C13.051.933.933 13.051.933 28S13.051 55.067 28 55.067 55.067 42.949 55.067 28 42.949.933 28 .933zM27.985 36l.178.005A1.994 1.994 0 0 1 30 38c0 1.105-.889 2-1.985 2h-.03A1.993 1.993 0 0 1 26 38c0-1.105.889-2 1.985-2zM28 14c1.105 0 2 .85 2 1.9v15.2c0 1.05-.895 1.9-2 1.9s-2-.85-2-1.9V15.9c0-1.05.895-1.9 2-1.9z"/>
</svg>
