<svg xmlns="http://www.w3.org/2000/svg" width="24" height="24" viewBox="0 0 24 24">
    <path fill="#B0B0B0" fill-rule="nonzero" d="M21 14h-2.18c-.17.7-.44 1.35-.81 1.93l1.54 1.54-2.1 2.1-1.54-1.54c-.58.36-1.23.63-1.91.79V21h-3v-2.18c-.68-.16-1.33-.43-1.91-.79l-1.54 1.54-2.12-2.12 1.54-1.54c-.36-.58-.63-1.23-.79-1.91H4v-2.97h2.17c.16-.7.44-1.35.8-1.94L5.43 7.55l2.1-2.1 1.54 1.54c.58-.37 1.24-.64 1.93-.81V4h3v2.18c.68.16 1.33.43 1.91.79l1.54-1.54 2.12 2.12-1.54 1.54c.36.59.64 1.24.8 1.94H21V14zm-8.5 3c2.49 0 4.5-2.01 4.5-4.5S14.99 8 12.5 8 8 10.01 8 12.5s2.01 4.5 4.5 4.5z"/>
</svg>
