<svg xmlns="http://www.w3.org/2000/svg" width="28" height="28" viewBox="0 0 28 28">
    <g fill="#303C42" fill-rule="evenodd">
        <path d="M14 2C7.383 2 2 7.383 2 14s5.383 12 12 12 12-5.383 12-12S20.617 2 14 2m0 2c5.523 0 10 4.477 10 10s-4.477 10-10 10S4 19.523 4 14 8.477 4 14 4"/>
        <path fill-rule="nonzero" d="M9.046 10.86L7.193 9.79l1.159 4.413 4.4-1.203-1.852-1.07a3.61 3.61 0 0 1 2.998-1.814 3.536 3.536 0 0 1 3.088 1.602l2.132-.583A5.659 5.659 0 0 0 14.19 7.97a5.772 5.772 0 0 0-5.144 2.89M17.1 16.07a3.61 3.61 0 0 1-2.998 1.814 3.536 3.536 0 0 1-3.088-1.602l-2.132.583a5.659 5.659 0 0 0 4.928 3.164 5.772 5.772 0 0 0 5.144-2.89l1.853 1.07-1.159-4.412-4.4 1.203 1.852 1.07z"/>
    </g>
</svg>
