<svg xmlns="http://www.w3.org/2000/svg" width="16" height="16" viewBox="0 0 16 16">
    <g fill="none" fill-rule="evenodd">
        <path fill="#6C788F" fill-rule="nonzero" d="M4.802 4.644c-.805.643-1.247 1.47-1.247 2.327 0 .482.136.949.404 1.388.277.453.692.867 1.203 1.198.37.238.617.62.683 1.05.022.143.036.287.042.431a4.03 4.03 0 0 0 .266-.239c.34-.334.818-.495 1.295-.435.255.032.515.048.773.048v1.53c-.33 0-.653-.021-.969-.061-1.336 1.314-2.932 1.55-4.474 1.584v-.322c.833-.401 1.555-1.131 1.555-1.967 0-.114-.009-.229-.026-.342C2.9 9.922 2 8.53 2 6.97 2 4.225 4.786 2 8.222 2c3.384 0 6.137 2.158 6.22 4.845a4.797 4.797 0 0 0-1.608-.39c-.14-.669-.551-1.3-1.193-1.812a4.925 4.925 0 0 0-1.503-.806 5.974 5.974 0 0 0-1.917-.308c-.667 0-1.312.104-1.916.308a4.909 4.909 0 0 0-1.503.806z"/>
        <path fill="#FF664D" d="M9.5 8h5v2h-5zM9.5 11h5v2h-5z"/>
    </g>
</svg>
