<svg xmlns="http://www.w3.org/2000/svg" width="24" height="25" viewBox="0 0 24 25">
    <path fill="#6C788F" d="M20.32 12.96l-.578-6.105c-.03-.316-.281-.566-.597-.597l-6.106-.578h-.008c-.062 0-.111.02-.148.056l-9.147 9.147c-.036.036-.057.086-.057.138 0 .051.02.1.057.137l7.106 7.106c.037.037.086.056.138.056.053 0 .102-.02.14-.056l9.146-9.147c.039-.04.058-.097.054-.156zm-9.341 7.343L5.697 15.02l7.807-7.806 4.824.457.457 4.824-7.806 7.807zM15.28 9c-.947 0-1.719.771-1.719 1.719 0 .947.772 1.719 1.72 1.719.947 0 1.718-.772 1.718-1.72C17 9.772 16.229 9 15.281 9zm0 2.344c-.345 0-.625-.28-.625-.625 0-.346.28-.625.625-.625.346 0 .625.279.625.625 0 .345-.279.625-.625.625z"/>
</svg>
