<svg xmlns="http://www.w3.org/2000/svg" width="24" height="24" viewBox="0 0 24 24">
    <path fill="#6C788F" fill-rule="evenodd" d="M13.415 6c.108 0 .212.043.289.12l1.508 1.509a.407.407 0 0 1 0 .58l-7.798 7.798a.412.412 0 0 1-.657-.106l-.32-.641H5.36l-.56 1.962 1.979 1.98 1.962-.56v-1.079l-.641-.32a.413.413 0 0 1-.106-.657l7.798-7.798a.424.424 0 0 1 .58 0l1.508 1.507a.411.411 0 0 1 0 .582l-8.44 8.365c-.005.004-.012.006-.018.01-.019.018-.043.031-.067.045-.023.014-.046.028-.072.037l-.02.01-2.49.712-3.25.929a.41.41 0 0 1-.506-.507l.927-3.25.712-2.49a.419.419 0 0 1 .096-.162l.007-.015 8.365-8.44a.41.41 0 0 1 .29-.121zm2.998-2.593c.543-.543 1.483-.542 2.024 0l2.144 2.149c.271.27.419.63.419 1.014 0 .382-.148.741-.419 1.012L19.26 8.896a.354.354 0 0 1-.504 0l-3.65-3.658a.36.36 0 0 1-.001-.506z"/>
</svg>
