<svg xmlns="http://www.w3.org/2000/svg" width="16" height="16" viewBox="0 0 16 16">
    <path fill="#FF664D" fill-rule="nonzero" d="M15.002 2.02c1.49 1.777 1.288 4.4-.452 5.86-1.486 1.248-3.613 1.243-5.13.11L7.796 9.35c.914 1.707.564 3.857-.95 5.127-1.74 1.46-4.36 1.204-5.85-.572-1.49-1.776-1.287-4.4.453-5.86 1.486-1.247 3.613-1.242 5.13-.109l1.623-1.36c-.914-1.708-.564-3.857.95-5.127 1.74-1.46 4.36-1.204 5.85.572zM2.65 9.475c-.967.812-1.08 2.27-.252 3.256.828.987 2.283 1.129 3.25.318.732-.615.975-1.6.689-2.471l-1.939 1.626-1.2-1.43 1.906-1.598a2.283 2.283 0 0 0-2.454.3zm7.702-6.596a2.287 2.287 0 0 0-.689 2.471l1.939-1.626 1.2 1.43-1.907 1.597c.791.377 1.752.291 2.455-.299.967-.81 1.08-2.268.252-3.255-.828-.987-2.283-1.13-3.25-.318z"/>
</svg>
