<svg xmlns="http://www.w3.org/2000/svg" xmlns:xlink="http://www.w3.org/1999/xlink" width="18" height="18" viewBox="0 0 18 18">
    <defs>
        <rect id="b" width="280" height="360" rx="8"/>
        <filter id="a" width="107.1%" height="105.6%" x="-3.6%" y="-2.2%" filterUnits="objectBoundingBox">
            <feOffset dy="2" in="SourceAlpha" result="shadowOffsetOuter1"/>
            <feGaussianBlur in="shadowOffsetOuter1" result="shadowBlurOuter1" stdDeviation="3"/>
            <feColorMatrix in="shadowBlurOuter1" values="0 0 0 0 0.798461069 0 0 0 0 0.83129593 0 0 0 0 0.905174366 0 0 0 1 0"/>
        </filter>
    </defs>
    <g fill="none" fill-rule="evenodd">
        <path fill="#F4F7FD" d="M-233-435h3952v2724H-233z"/>
        <g transform="translate(-30 -199)">
            <use fill="#000" filter="url(#a)" xlink:href="#b"/>
            <use fill="#FFF" xlink:href="#b"/>
        </g>
        <g fill-rule="nonzero">
            <path fill="#666" d="M15 4.535L12.01 2l-.845.975 2.99 2.535.845-.975zM5.835 3.04l-.845-.975L2 4.535l.845.975 2.99-2.47zm2.665.39c-3.25 0-5.85 2.6-5.85 5.85 0 3.25 2.6 5.85 5.85 5.85 3.25 0 5.85-2.6 5.85-5.85 0-3.25-2.6-5.85-5.85-5.85z"/>
            <path fill="#FFF" d="M8.818 7H8v3.37L10.564 12l.436-.674-2.182-1.348z"/>
        </g>
    </g>
</svg>
