<svg xmlns="http://www.w3.org/2000/svg" width="16" height="16" viewBox="0 0 16 16">
    <path fill="#666" fill-rule="evenodd" d="M3.866 3l.713 4.36h1.468L7.086 3H8.85l1.039 4.36h1.467l.7-4.36h1.974l-.807 4.36H14.5v2h-1.647l-.741 4H9.536l-.907-4H7.173l-.885 4H3.754l-.773-4H1.5v-2h1.095L1.752 3h2.114zm1.749 6.36H4.88c.097.664.195 1.33.288 1.998h.056a188.2 188.2 0 0 1 .39-1.998zm5.444 0l-.74-.001c.13.658.259 1.329.393 1.999h.07c.092-.672.185-1.34.277-1.998zM7.926 5.842H7.87c-.09.5-.179 1.006-.275 1.518h.603a47.03 47.03 0 0 1-.272-1.518z"/>
</svg>
