<svg xmlns="http://www.w3.org/2000/svg" width="48" height="48" viewBox="0 0 48 48">
    <g fill="none" fill-rule="evenodd">
        <path fill="#87D291" d="M24 10.015c6.075 0 11 4.855 11 10.844 0 3.265-1.47 6.185-3.786 8.174-.495.625-.846 1.152-.846 1.672v1.141c0 1.183-.971 2.14-2.17 2.14h-8.395c-1.2 0-2.171-.957-2.171-2.14v-1.141c0-.52-.351-1.047-.846-1.672C14.471 27.044 13 24.124 13 20.859c0-5.989 4.925-10.844 11-10.844z"/>
        <path stroke="#222" stroke-linecap="round" stroke-linejoin="round" stroke-width="2" d="M18.062 32.987h12.421v5.512c0 .82-.36 1.6-.986 2.16l-1.451 1.303A4.16 4.16 0 0 1 25.272 43h-1.999a4.16 4.16 0 0 1-2.774-1.038l-1.45-1.302a2.903 2.903 0 0 1-.987-2.16v-5.513zM18.789 39.717h10.422M18.789 36.293h10.422"/>
        <g stroke="#222" stroke-linecap="round" stroke-linejoin="round" stroke-width="2">
            <path d="M21.273 33c0-4.045-.91-7.837-2.728-11.455M26.727 33c0-4.045.91-7.837 2.728-11.455"/>
            <path d="M18.545 21.545c1.363 0 1.363 1.091 2.725 1.091 1.363 0 1.363-1.09 2.725-1.09 1.365 0 1.365 1.09 2.73 1.09s1.365-1.09 2.73-1.09"/>
        </g>
        <g stroke="#222" stroke-linecap="round" stroke-linejoin="round" stroke-width="2">
            <path d="M6.801 20.5H9M36.609 9L35 10.503M11 9l1.609 1.503M41.2 20.5H39M24 4v2.2"/>
        </g>
    </g>
</svg>
