<svg xmlns="http://www.w3.org/2000/svg" width="16" height="16" viewBox="0 0 16 16">
    <g fill="none" fill-rule="nonzero">
        <path fill="#FF664D" d="M13.833 12.342c0 .475.272.886.667 1.087v.166a2.472 2.472 0 0 1-2.138-.75 3.35 3.35 0 0 1-.862.111c-1.657 0-3-1.195-3-2.669s1.343-2.669 3-2.669 3 1.195 3 2.67c0 .576-.206 1.11-.556 1.547-.073.16-.111.333-.11.508z"/>
        <path fill="#6C788F" d="M4.303 4.908c-.805.643-1.247 1.47-1.247 2.327 0 .482.136.949.404 1.388.277.453.692.867 1.203 1.198.369.238.617.62.683 1.05.022.143.036.287.041.431a4.03 4.03 0 0 0 .266-.239c.34-.334.819-.495 1.296-.435.254.032.515.048.773.048v1.53c-.33 0-.653-.022-.969-.061-1.336 1.313-2.932 1.55-4.474 1.584v-.322c.833-.401 1.555-1.132 1.555-1.967 0-.114-.009-.229-.026-.342C2.4 10.186 1.5 8.795 1.5 7.235c0-2.746 2.786-4.971 6.222-4.971 3.384 0 6.137 2.158 6.22 4.845a4.797 4.797 0 0 0-1.608-.39c-.14-.669-.551-1.3-1.194-1.812A4.925 4.925 0 0 0 9.64 4.1a5.974 5.974 0 0 0-1.917-.308c-.667 0-1.312.104-1.916.308a4.909 4.909 0 0 0-1.503.806z"/>
    </g>
</svg>
