<svg xmlns="http://www.w3.org/2000/svg" width="16" height="16" viewBox="0 0 16 16">
    <g fill="none" fill-rule="evenodd">
        <path fill="#F4F7FD" d="M-181-228h1400V904H-181z"/>
        <path fill="#FFF" d="M-181-119h1400V58H-181z"/>
        <path fill="#6C788F" fill-rule="nonzero" d="M12.194 11.836a.542.542 0 0 0-.286-.39l-2.293-1.351-.02-.01a.712.712 0 0 0-.813.128l-.676.677a.396.396 0 0 1-.152.069c-.008 0-.788-.057-2.223-1.493-1.434-1.433-1.494-2.215-1.495-2.215.001-.04.04-.134.068-.163l.578-.577a.736.736 0 0 0 .143-.804L3.75 3.308A.527.527 0 0 0 3.278 3a.543.543 0 0 0-.384.165L1.32 4.735c-.15.15-.28.413-.309.624-.014.1-.293 2.51 3.011 5.815 2.805 2.805 4.992 3.023 5.596 3.023.074 0 .148-.003.22-.012.211-.028.473-.157.623-.308l1.572-1.572a.542.542 0 0 0 .16-.469z"/>
        <g stroke="#FF664D" stroke-width="2">
            <path d="M7 5.313A3.188 3.188 0 0 1 10.188 8.5M7 2a6.5 6.5 0 0 1 6.5 6.5"/>
        </g>
    </g>
</svg>
