<svg xmlns="http://www.w3.org/2000/svg" width="12" height="12" viewBox="0 0 12 12">
    <path fill="#222" fill-rule="nonzero" d="M11.994 8.892a.484.484 0 0 0-.254-.349L9.692 7.337l-.017-.01a.636.636 0 0 0-.726.115l-.604.605a.354.354 0 0 1-.136.061c-.007 0-.703-.05-1.985-1.333-1.28-1.28-1.334-1.978-1.335-1.978.001-.036.036-.12.061-.146l.516-.515a.658.658 0 0 0 .128-.718L4.456 1.276A.47.47 0 0 0 4.034 1a.485.485 0 0 0-.343.147L2.286 2.55c-.135.134-.25.368-.276.557-.012.09-.262 2.242 2.688 5.193C7.203 10.805 9.156 11 9.695 11c.066 0 .131-.003.197-.01.188-.025.422-.141.555-.275l1.404-1.404a.484.484 0 0 0 .143-.42z"/>
</svg>
