<svg xmlns="http://www.w3.org/2000/svg" width="24" height="24" viewBox="0 0 24 24">
    <path fill="#717988" d="M13.5 3c-2.75 0-4.835.647-6.235 1.969C5.867 6.29 5.25 8.219 5.25 10.5v.68c-.429.408-.75.933-.75 1.57 0 .945.668 1.616 1.5 1.945.277.876.58 1.795.915 2.578.364.857.693 1.536 1.147 2.018 1.02 1.089 2.446 1.707 3.938 1.707s2.918-.618 3.938-1.707c.454-.482.76-1.161 1.124-2.018.335-.783.66-1.702.938-2.577.832-.33 1.5-1 1.5-1.945 0-.635-.323-1.16-.75-1.57V10.5c0-2.118-.482-3.625-1.335-4.617-.724-.84-1.691-1.185-2.649-1.29l-.586-1.17L13.97 3h-.47zm-.445 1.547l.515 1.032c.25.499.348.855.351 1.007.005.153.01.09-.022.118-.065.055-.697.218-1.477.258-.78.04-1.699.02-2.555.352-.855.332-1.607 1.22-1.617 2.438h1.5c.006-.74.178-.847.656-1.032.479-.185 1.304-.24 2.11-.281.806-.041 1.637.008 2.344-.585.352-.298.577-.81.562-1.313-.004-.11-.03-.217-.047-.33.344.148.649.373.891.657.544.632.984 1.743.984 3.632v1.383l.375.21c.228.133.375.372.375.657.01.391-.29.72-.68.75l-.515.023-.14.492c-.277.899-.598 1.783-.962 2.65-.338.791-.726 1.466-.844 1.592-1.598 1.688-4.123 1.688-5.719 0-.12-.126-.506-.8-.844-1.594-.364-.866-.684-1.75-.96-2.649l-.141-.492-.516-.023c-.39-.03-.688-.359-.679-.749 0-.28.145-.524.375-.656l.375-.21V10.5c0-2.023.513-3.477 1.547-4.454.96-.907 2.528-1.425 4.758-1.5v.001zM9.75 12c-.414 0-.75.336-.75.75s.336.75.75.75.75-.336.75-.75-.336-.75-.75-.75zm4.5 0c-.414 0-.75.336-.75.75s.336.75.75.75.75-.336.75-.75-.336-.75-.75-.75z"/>
</svg>
