<svg xmlns="http://www.w3.org/2000/svg" width="24" height="24" viewBox="0 0 24 24">
    <g fill="none">
        <path fill="#6C788F" d="M22.893 12.734l-1.297-2.06.77-2.31c.104-.315-.027-.661-.312-.827L19.955 6.32l-.386-2.406c-.053-.328-.328-.573-.658-.587l-2.42-.096-1.452-1.95c-.198-.267-.555-.355-.853-.212L12 2.115 9.813 1.067c-.298-.141-.655-.053-.853.213L7.508 3.23l-2.42.096c-.33.013-.605.258-.657.586l-.386 2.406-2.099 1.218c-.286.166-.416.512-.312.827l.77 2.311-1.297 2.06c-.176.281-.131.648.107.878L2.961 15.3l-.196 2.43c-.027.33.182.635.499.728l2.326.675.947 2.244c.128.306.454.479.777.411l2.373-.49 1.873 1.545c.128.104.284.158.44.158.156 0 .312-.054.44-.158l1.873-1.545 2.373.49c.322.07.649-.105.777-.411l.947-2.244 2.326-.675c.318-.092.526-.397.499-.729l-.196-2.429 1.747-1.687c.238-.23.283-.597.107-.878z"/>
        <path fill="#FFF" d="M17 7L10.2 13.8 7.4 11 6 12.4 10.2 16.6 18.4 8.4z"/>
    </g>
</svg>
