<svg xmlns="http://www.w3.org/2000/svg" width="54" height="54" viewBox="0 0 54 54">
    <g fill="none" fill-rule="evenodd" stroke="#222" stroke-linejoin="round" stroke-width="2">
        <path d="M13.151 38.701L13.346 44.721M32.497 43.86V31.54c4.863-3.257 7.975-8.87 7.653-15.179C39.706 7.646 32.507.503 23.682.026 13.587-.518 5.23 7.404 5.23 17.253l-.019 1.131c.019.51-5.21 8.884-5.21 8.884l4.675 1.67v4.952c0 2.703 2.218 4.893 4.955 4.893 0 0 18.89-.189 18.89-4.928v-3.687s0-1.053-1.067-2.106l-4.8-4.74V19.11" transform="translate(7 5)"/>
        <path d="M28.206 13.76c0 2.85-2.296 5.16-5.128 5.16-2.832 0-5.128-2.31-5.128-5.16s2.296-5.16 5.128-5.16c2.832 0 5.128 2.31 5.128 5.16zM22.651 8.6L22.651 0" transform="translate(7 5)"/>
    </g>
</svg>
