<svg xmlns="http://www.w3.org/2000/svg" width="32" height="33" viewBox="0 0 32 33">
    <path fill="#222" fill-rule="evenodd" d="M8.944 9l1.301 7h2.811l1.897-7h3.29l1.897 7h2.806l1.28-7h3.683l-1.474 7H28v2h-1.986l-1.684 8h-4.806l-2.064-8h-1.984l-2.012 8H8.735l-1.758-8H5v-2h1.538L5 9h3.944zm3.596 8.998L10.601 18l.773 4.715h.104c.34-1.575.7-3.168 1.062-4.717zM22.596 18h-1.94l.082.351c.328 1.423.646 2.894.98 4.364h.13l.575-3.638.173-1.077zm-6.076-4.336h-.105c-.156.77-.313 1.549-.48 2.336h1.058a67.727 67.727 0 0 1-.473-2.336z"/>
</svg>
