<svg xmlns="http://www.w3.org/2000/svg" width="16" height="16" viewBox="0 0 16 16">
    <g fill="none" fill-rule="evenodd">
        <path fill="#6C788F" fill-rule="nonzero" d="M8.667 11.67l4.666-.03V4.994l-3.446.004-1.21 1.21-.01 5.462zM7.333 6.21L6.12 5.025l-3.452-.023v6.637l4.666.032V6.209zm-.666-2.514L8 5l1.333-1.333 3.998-.006a1.333 1.333 0 0 1 1.336 1.332v6.646c0 .733-.592 1.329-1.324 1.334L9.333 13l-1.33 1.333L6.667 13l-4.01-.027a1.333 1.333 0 0 1-1.324-1.334V5.002c0-.736.597-1.333 1.334-1.333l4 .026z"/>
        <path fill="#FF664D" d="M6.667 13h2.666l-1.33 1.333z"/>
    </g>
</svg>
