<svg xmlns="http://www.w3.org/2000/svg" width="32" height="32" viewBox="0 0 32 32">
    <g fill="none" fill-rule="evenodd">
        <circle cx="16" cy="16" r="16" fill="#000"/>
        <path fill="#999" fill-rule="nonzero" d="M16 15.912l-6.714-2.575.414 9.487H7.9l.432-9.858L7 12.456 16 9l9 3.456-9 3.456zm0-4.32c-.495 0-.9.19-.9.432s.405.432.9.432.9-.19.9-.432-.405-.432-.9-.432zm0 5.184l5.013-1.927a5.9 5.9 0 0 1 1.224 2.851 6.568 6.568 0 0 0-.837-.06c-2.295 0-4.302 1.184-5.4 2.946-1.134-1.826-3.185-2.946-5.4-2.946-.288 0-.567.026-.837.06a5.9 5.9 0 0 1 1.224-2.85L16 16.775z"/>
    </g>
</svg>
