<svg xmlns="http://www.w3.org/2000/svg" width="24" height="24" viewBox="0 0 24 24">
    <path fill="#717988" fill-rule="evenodd" d="M17.17 16.21c-.14.106-.34.165-.427.08-.005-.005-.011-.005-.016-.009-.008-.007-.012-.017-.02-.023-.299-.23-1.633-1.561-2.458-2.4a.423.423 0 0 0-.588-.012.399.399 0 0 0-.013.574c.194.197 1.748 1.774 2.37 2.327-.046.178-.216.288-.303.33-.267.131-.545.11-.65.014-.002-.002-.007-.002-.01-.004l-.012-.015c-.5-.39-1.754-1.688-2.038-1.989a.424.424 0 0 0-.588-.024.4.4 0 0 0-.025.574c.014.014 1.242 1.306 1.932 1.906a.722.722 0 0 1-.383.424c-.131.057-.335.086-.57-.083-.598-.494-1.799-1.74-2.034-1.987a.424.424 0 0 0-.59-.02.4.4 0 0 0-.02.575c.28.292 1.108 1.147 1.737 1.727-.07.008-.144.013-.214.013-.276 0-.75-.173-.99-.326-.292-.187-2.126-1.522-3.71-2.816-.24-.195-.787-.596-1.287-.963a68.564 68.564 0 0 1-.697-.514l1.56-4.056c.405-.018.945-.063 1.516-.113.323-.027.646-.054.956-.078-.476.476-1.182 1.327-1.089 2.126.043.363.247.666.59.876.196.118.437.18.716.18.592 0 1.377-.288 1.833-.842a2.95 2.95 0 0 0 .945-.292c.489.448 1.143.974 1.831 1.527 1.197.96 2.554 2.051 2.913 2.663.2.34-.078.584-.167.65m4.902-9.324a.421.421 0 0 0-.381-.049l-3.397 1.204c-.42.15-.756.45-.944.847a1.564 1.564 0 0 0-.08.229c-.585-.162-1.668-.5-2.746-1.04-1.39-.7-2.566-.61-3.914.378-.542.009-1.298.072-2.042.136-.466.04-.908.077-1.266.098a1.589 1.589 0 0 0-.152-.614 1.64 1.64 0 0 0-.944-.846L2.809 6.025a.425.425 0 0 0-.38.048.404.404 0 0 0-.179.333v8.125c0 .225.187.407.417.407h1.217c.518 0 1-.239 1.31-.623l.569.418c.486.356 1.018.746 1.251.936 1.552 1.266 3.418 2.634 3.788 2.872.348.223.973.459 1.448.459.186 0 .654 0 .983-.271.34.13.704.123 1.044-.023.34-.146.614-.42.773-.753.326.065.7.017 1.038-.149.318-.155.552-.39.678-.665.3.027.622-.068.91-.283.41-.306.599-.758.546-1.204l1.056-.57c.31.408.802.668 1.339.668h1.216c.231 0 .417-.182.417-.406V7.219a.404.404 0 0 0-.177-.333"/>
</svg>
