<svg xmlns="http://www.w3.org/2000/svg" width="24" height="24" viewBox="0 0 24 24">
    <g fill="#6C788F">
        <path d="M20 12c-2.388 3.333-5.054 5-8 5-.655 0-1.296-.082-1.924-.247l1.756-1.757L12 15c1.845 0 3.603-.9 5.312-2.826l.15-.175-.15-.173c-.385-.434-.772-.815-1.163-1.147l1.417-1.416C18.407 9.997 19.22 10.91 20 12zm-8-5c.655 0 1.297.083 1.925.248l-1.757 1.755L12 9c-1.845 0-3.603.9-5.312 2.826L6.537 12l.15.175c.386.434.774.816 1.165 1.147l-1.417 1.417C5.593 14.004 4.782 13.09 4 12c2.388-3.333 5.054-5 8-5z"/>
        <path d="M0 0H2V18H0z" transform="rotate(45 2.879 23.778)"/>
    </g>
</svg>
