<svg xmlns="http://www.w3.org/2000/svg" width="134" height="41" viewBox="0 0 134 41">
    <g fill="none" fill-rule="evenodd">
        <path fill="#FFF" d="M0 0H1400V800H0z" transform="translate(-888 -148)"/>
        <g fill-rule="nonzero">
            <path fill="#E1002A" d="M61.067 21.31H51.6c-1.716 0-2.817-1.191-2.817-2.663 0-1.471 1.101-2.662 2.817-2.662h13.012c.904.024 1.749-.453 2.207-1.247.459-.794.459-1.78 0-2.573-.458-.794-1.303-1.272-2.207-1.247H50.723c-4.458 0-7.723 3.46-7.723 7.73 0 4.269 3.272 7.73 7.723 7.73h9.232c1.715 0 2.818 1.187 2.822 2.657.003 1.47-1.107 2.664-2.822 2.67H46.22c-1.346.037-2.418 1.16-2.418 2.533s1.072 2.496 2.418 2.533h14.916c4.442-.03 7.69-3.481 7.679-7.743-.011-4.262-3.287-7.733-7.747-7.718zm30.913-7.174c-1.687 0-3.054 1.394-3.054 3.115v14.796c0 1.676-1.332 3.034-2.974 3.035h-5.598c-1.643 0-2.976-1.358-2.977-3.035V17.244c0-1.72-1.367-3.115-3.053-3.115s-3.053 1.394-3.053 3.115v15.155c0 2.013.783 3.942 2.178 5.365s3.287 2.222 5.26 2.221h8.876c1.972 0 3.864-.798 5.259-2.22 1.395-1.424 2.178-3.353 2.178-5.366V17.244c-.002-1.715-1.362-3.106-3.042-3.112v.004zm22.422-8.132h-8.878c-4.107 0-7.436 3.398-7.436 7.588v15.153c0 1.72 1.367 3.116 3.054 3.116 1.686 0 3.053-1.395 3.053-3.116V13.947c0-.805.313-1.577.87-2.146.559-.57 1.315-.889 2.104-.888h5.602c.79 0 1.546.319 2.104.888.558.57.871 1.341.87 2.146v14.795c0 1.72 1.368 3.115 3.054 3.115 1.686 0 3.053-1.395 3.053-3.115V13.588c0-2.015-.784-3.947-2.182-5.37-1.398-1.424-3.293-2.222-5.268-2.218v.004zm13.545 8.132c-1.687 0-3.054 1.394-3.054 3.115v19.634c0 1.72 1.367 3.115 3.054 3.115 1.686 0 3.053-1.395 3.053-3.115V17.244c-.002-1.72-1.368-3.112-3.053-3.112v.004z" transform="translate(-888 -148) translate(888 148)"/>
            <path fill="#61C1BE" d="M20.992 15.964c-.337-.595-.959-.962-1.631-.962-.673 0-1.295.367-1.632.962l-5.022 8.88-5.022-8.882c-.336-.595-.958-.962-1.63-.962-.674 0-1.295.367-1.632.962l-4.17 7.39c-.337.596-.337 1.33-.001 1.925.337.595.959.961 1.632.96h21.664c.673 0 1.295-.366 1.631-.96.337-.596.337-1.329.001-1.924l-4.188-7.39zM36.107 15h-8.35c-.673 0-1.295.366-1.631.961-.337.595-.337 1.329 0 1.924l4.723 8.352c.222.4.637.647 1.087.647.45 0 .866-.247 1.088-.647l4.724-8.352c.337-.597.336-1.332-.003-1.928-.339-.595-.964-.96-1.638-.957zm-4.18 13.112c-.967 0-1.84.595-2.21 1.508-.37.913-.166 1.964.518 2.663.685.7 1.714.908 2.608.53.895-.378 1.478-1.27 1.478-2.258-.001-1.349-1.072-2.442-2.393-2.443zm0 3.756c-.71 0-1.285-.588-1.285-1.313s.575-1.313 1.286-1.313c.71 0 1.285.588 1.285 1.313.001.35-.134.684-.375.932-.241.247-.569.386-.91.387v-.006zM128.506 12c-2.226.002-4.233-1.337-5.086-3.392-.853-2.055-.383-4.422 1.19-5.996 1.573-1.574 3.939-2.045 5.995-1.193C132.66 2.27 134 4.277 134 6.502c-.004 3.033-2.461 5.492-5.494 5.498zm0-8.886c-1.87.001-3.385 1.518-3.384 3.387 0 1.87 1.516 3.385 3.386 3.385s3.385-1.516 3.385-3.386c-.003-1.869-1.518-3.383-3.387-3.384v-.002z" transform="translate(-888 -148) translate(888 148)"/>
        </g>
    </g>
</svg>
