<svg xmlns="http://www.w3.org/2000/svg" xmlns:xlink="http://www.w3.org/1999/xlink" width="436" height="245" viewBox="0 0 436 245">
    <defs>
        <path id="prefix__a" d="M0.692 0.284L21.158 0.284 21.158 41.193 0.692 41.193z"/>
        <path id="prefix__c" d="M0.469 0.392L23.339 0.392 23.339 30.657 0.469 30.657z"/>
    </defs>
    <g fill="none" fill-rule="evenodd">
        <path fill="#FFF" d="M0 0H1400V2065H0z" transform="translate(-100 -316)"/>
        <g>
            <path fill="#EE7B11" d="M120.865 83.473c-.396.251-2.254 1.436-4.838 1.421-3.525-.018-6.022-2.815-6.003-6.454.022-4.053 2.89-6.452 6.068-6.436 1.716.01 2.435.535 3.572.541 1.21.007 1.857-.574 2.467-1.741.33-.649.53-1.02.53-1.02-.256-.156-2.874-1.96-7.33-1.984-6.537-.034-10.475 4.63-10.506 10.613-.035 6.524 4.416 10.64 10.393 10.67 4.33.025 6.966-1.728 7.429-2.056l-1.782-3.554zM174.636 76.506c.013-2.327 1.658-4.48 3.947-4.468 2.56.013 3.961 2.248 3.994 4.51l-7.94-.042zm4.047-8.368c-4.97-.026-9.185 3.997-9.22 10.615-.037 6.776 4.007 10.642 10.084 10.674 4.829.025 7.342-2.076 7.648-2.266 0 0-.468-.773-.594-.989-.674-1.11-1.448-1.47-2.3-1.473-1.712-.01-1.935.694-4.251.682-3.975-.021-5.335-3.125-5.419-5.195l13.306.072.008-1.543c.033-6.347-3.597-10.546-9.262-10.577zM216.623 68.594c-4.48-.024-6.794 2.916-7.165 3.358-1.114-2.137-3.189-3.413-5.914-3.429-3.942-.02-6.196 2.262-6.566 2.63-.16-.614-.958-2.29-3.506-2.304-.733-.004-1.813.223-1.901.243.103.481.572 2.814.554 6.032l-.075 14.166 5.184.028.076-14.446c.104-.089 2.052-2.04 4.39-2.028 2.377.012 3.475 1.757 3.463 4.139l-.066 12.376 5.209.028.076-14.446c.102-.097 2.019-2.04 4.384-2.028 2.371.013 3.446 1.757 3.432 4.139l-.066 12.377 5.237.028.07-13.185c.024-4.633-2.595-7.656-6.816-7.678M95.504 83.251c-.32.186-1.726 1.438-3.81 1.427-1.788-.01-3.149-1.1-3.139-2.902.008-1.523 1.484-2.833 4.292-2.818l2.68.014-.023 4.28zm.432 3.08c.359.941 1.226 2.052 3.042 2.063.962.005 2.204-.246 2.41-.324-.152-.594-.622-2.185-.603-5.758l.037-7.155c.029-5.307-3.38-7.604-8.653-7.632-4.442-.024-7.62 2.089-7.985 2.33 0 0 .207.375.35.638.441.759.826 1.877 2.128 1.884 1.296.006 2.412-.983 4.874-.97 2.714.014 4.024 1.335 4.013 3.347l-.003.715-1.702-.01c-6.956-.036-10.63 2.635-10.653 6.95-.02 3.817 2.867 6.373 6.89 6.395 3.82.02 5.517-2.199 5.855-2.473zM136.928 83.472c-.32.185-1.726 1.438-3.809 1.426-1.789-.009-3.149-1.099-3.14-2.901.008-1.523 1.485-2.833 4.293-2.818l2.679.014-.023 4.28zm.433 3.08c.358.941 1.226 2.052 3.042 2.063.961.005 2.203-.246 2.409-.324-.151-.594-.622-2.185-.604-5.758l.039-7.156c.028-5.306-3.38-7.603-8.653-7.632-4.443-.023-7.62 2.09-7.986 2.33 0 0 .208.375.351.639.44.759.826 1.877 2.127 1.884 1.297.006 2.413-.983 4.875-.97 2.714.014 4.023 1.335 4.012 3.347l-.003.715-1.702-.01c-6.955-.036-10.63 2.635-10.652 6.95-.02 3.816 2.867 6.373 6.889 6.394 3.82.021 5.518-2.199 5.856-2.472z" transform="translate(-100 -316) translate(195 380)"/>
            <path fill="#DC062B" d="M16.68 65.272c-3.127-1.482-5.692-2.678-5.68-5.074.01-1.826 1.483-3.15 4.375-3.135 1.064.006 1.932.136 2.83.305.47.087.972.154 1.387.157 2.528.012 3.96-1.483 4.924-4.342l.396-1.16c-.402-.165-4.52-2-9.9-2.029-8.56-.046-13.11 5.414-13.137 11.117-.015 2.872.874 4.96 2.275 6.603 1.802 2.12 4.38 3.517 6.796 4.711 3.516 1.752 6.692 3.05 6.679 5.608-.01 2.28-2.369 3.562-5.512 3.545-4.309-.022-8.061-2.506-8.542-2.807L0 85.381c.625.357 5.166 3.278 12.663 3.318 7.992.038 14.066-4.508 14.103-11.56.038-7.011-5.559-9.637-10.087-11.867M47.913 68.713l14.586-17.69-10.327-.056L40.533 66.24l-.172-.001.082-15.334-8.513-.045-.2 37.64.507.004c3.68.02 8.071-1.657 8.103-7.813l.046-8.637h.172l11.696 16.088 10.834.058-15.175-19.487zM63.198 10.703c-3.001.55-7.458 3.244-7.47 8.051-.01 4.375 3.55 7.038 3.527 12.766-.003 4.306-2.394 7.188-4.97 8.781 1.037-.083 2.175-.137 3.425-.135 2.62.01 4.2.27 4.298.284l13.534-16.425c-3.704-5.612-8.04-9.973-12.344-13.322" transform="translate(-100 -316) translate(195 380)"/>
            <path fill="#DC062B" d="M74.253 55.308c1.707-2.62 1.943-6.819 2.112-11.096.178-3.984 1.027-6.987 6.364-6.977 1.183.007 2.306.175 4.347.182 7.817.004 12.935-2.663 16.117-4.413-6.461-4.168-15.909-8.44-27.651-8.98-.779 2.16-6.817 18.68-7.277 20.015.066.074 1.104 1.252 2.397 3.533 1.901 3.14 2.917 5.799 3.591 7.736" transform="translate(-100 -316) translate(195 380)"/>
            <g transform="translate(-100 -316) translate(195 380) translate(40.146 .446)">
                <mask id="prefix__b" fill="#fff">
                    <use xlink:href="#prefix__a"/>
                </mask>
                <path fill="#EE7B11" d="M5.785 41.193c-.68.002-1.017-.458-1.103-1.234-.086-.78-3.283-31.555-3.757-36.215-.07-.681-.232-1.929-.233-2.373C.695.65 1.166.28 1.715.284c1.594.003 10.263 2.082 19.443 8.59-2.66.738-7.475 3.468-7.484 9.18-.011 5.063 3.598 7.867 3.59 12.943-.015 8.26-9.517 10.202-11.479 10.196" mask="url(#prefix__b)"/>
            </g>
            <path fill="#EE7B11" d="M75.013 57.512c.143.383.277.707.414.931.21.362.484.526.823.527.214-.002.477-.07.77-.2.712-.329 28.853-13.243 33.096-15.176.617-.288 1.78-.804 2.167-1.026.398-.222.582-.553.585-.89 0-.19-.055-.382-.161-.552-.524-.857-3.227-3.758-7.75-6.93-3.616 1.966-9.262 5.01-17.638 4.997-2.051-.01-2.512-.154-3.914-.152-4.092-.007-5.12 1.734-5.29 5.32-.026.677-.044 1.588-.09 2.587-.147 3.204-.548 7.62-3.012 10.564M160.136 84.92s-8.127 2.595-8.686-6.535c0 0 .85-7.5 8.75-5.43l-.064 11.966zm.117-21.903l-.033 6.084s-12.76-3.515-13.84 9.053c0 0-1.895 13.174 14.344 10.624 0 0 3.45-.388 4.467-.99l.154-28.8s-5.069-.434-5.092 4.029z" transform="translate(-100 -316) translate(195 380)"/>
            <g transform="translate(-100 -316) translate(195 380) translate(222.628 69.06)">
                <mask id="prefix__d" fill="#fff">
                    <use xlink:href="#prefix__c"/>
                </mask>
                <path fill="#EE7B11" d="M1.435.594s8.827 18.503 9.229 19.114c0 0-.838 4.863-3.28 6.27 0 0-3.858.994-5.88-.032L.469 29.794s7.28 3.69 13.002-4.19c0 0 9.458-24.085 9.869-25.096L18.27.48l-4.946 14.78L7.712 2.655S6.914.216 3.465.402l-2.03.192z" mask="url(#prefix__d)"/>
            </g>
        </g>
    </g>
</svg>
