<?xml version="1.0" encoding="UTF-8"?>
<svg width="70px" height="70px" viewBox="0 0 70 70" version="1.1" xmlns="http://www.w3.org/2000/svg" xmlns:xlink="http://www.w3.org/1999/xlink">
    <!-- Generator: Sketch 64 (93537) - https://sketch.com -->
    <title>Survey</title>
    <desc>Created with Sketch.</desc>
    <g id="Survey" stroke="none" stroke-width="1" fill="none" fill-rule="evenodd">
        <rect fill="#FFFFFF" x="0" y="0" width="70" height="70"></rect>
        <g id="Group-5-Copy-4" transform="translate(5.000000, 8.000000)" fill-rule="nonzero">
            <rect id="Rectangle" stroke="#6A758B" stroke-width="2" x="1" y="13" width="12" height="12" rx="2"></rect>
            <rect id="Rectangle-Copy" stroke="#6A758B" stroke-width="2" x="18" y="6.77817459" width="24" height="24" rx="2"></rect>
            <rect id="Rectangle-Copy-2" stroke="#6A758B" stroke-width="2" x="47" y="13" width="12" height="12" rx="2"></rect>
            <rect id="Rectangle-Copy-2" fill="#6A758B" x="42" y="49" width="10" height="2"></rect>
            <rect id="Rectangle-Copy-3" fill="#6A758B" x="8" y="49" width="14" height="2"></rect>
            <g id="Rectangle-2" transform="translate(34.000000, 12.292893) rotate(-45.000000) translate(-34.000000, -12.292893) translate(23.500000, 6.792893)" fill="#EA644D" stroke="#FFFFFF" stroke-width="2">
                <path d="M4.70724965,-0.707106781 L-0.292893219,-0.707106781 L-0.292893219,11.2928932 L21.7071068,11.2928932 L21.7071068,6.29289322 L4.70624965,6.29289322 L4.70724965,-0.707106781 Z" id="Combined-Shape"></path>
            </g>
            <g id="Group-4" transform="translate(23.000000, 25.000000)" stroke-linejoin="round">
                <path d="M7.33908823,-0.961538462 C6.19008417,-0.961538462 5.14985622,-0.495812548 4.3968793,0.257164381 C3.64390237,1.01014131 3.17817645,2.05036925 3.17817645,3.19937331 L3.17817645,10.0811856 L-1.5,12.895995 L-1.5,20.7007099 L3.5,25.8619474 L3.5,29.5 L14.5,29.5 L14.5,26.5250528 L17.3641664,22.4991236 L17.9249486,20.6522442 C18.3317791,19.3123893 18.4012996,17.8927789 18.1273313,16.5195843 L17.3171388,12.4587061 L11.5,9.94358714 L11.5,3.19937331 C11.5,2.05036925 11.0342741,1.01014131 10.2812972,0.257164381 C9.52832023,-0.495812548 8.48809229,-0.961538462 7.33908823,-0.961538462 Z" id="Path" stroke="#FFFFFF" stroke-width="3"></path>
                <path d="M5,28 L5,25.2545234 L0.845290006,20.9658344 C0.30314575,20.4062073 2.90983776e-15,19.6576057 0,18.8784377 L0,15.4401647 C-1.48445441e-15,14.3877035 0.551515496,13.4122105 1.45332069,12.8696039 L4.67817645,10.9292422 L4.67817645,10.9292422 L4.67817645,14.3680516 L4.67817645,3.19937331 C4.67817645,1.72979232 5.86950723,0.538461538 7.33908823,0.538461538 C8.80866922,0.538461538 10,1.72979232 10,3.19937331 L10,10.9292422 L10,10.9292422 L14.9318303,13.8835578 C15.6156624,14.2931939 16.1083486,14.9581441 16.3011276,15.7316196 L16.7995775,17.7315197 C16.9307362,18.2577598 16.9167882,18.8097123 16.7592173,19.3286561 L16.142256,21.3605553 C16.048042,21.6708398 15.9041448,21.9637972 15.7161651,22.2280251 L13,26.0459207 L13,26.0459207 L13,28" id="Path" stroke="#6A758B" stroke-width="2" fill="#FFFFFF"></path>
            </g>
        </g>
    </g>
</svg>